<?xml version="1.0" encoding="UTF-8" standalone="no"?>
<svg
   xmlns:dc="http://purl.org/dc/elements/1.1/"
   xmlns:cc="http://creativecommons.org/ns#"
   xmlns:rdf="http://www.w3.org/1999/02/22-rdf-syntax-ns#"
   xmlns:svg="http://www.w3.org/2000/svg"
   xmlns="http://www.w3.org/2000/svg"
   xmlns:sodipodi="http://sodipodi.sourceforge.net/DTD/sodipodi-0.dtd"
   xmlns:inkscape="http://www.inkscape.org/namespaces/inkscape"
   sodipodi:docname="exit_south.svg"
   inkscape:version="1.0 (6e3e5246a0, 2020-05-07)"
   id="svg8"
   version="1.1"
   viewBox="0 0 21.166666 21.166666"
   height="80"
   width="80">
  <defs
     id="defs2" />
  <sodipodi:namedview
     inkscape:document-rotation="0"
     inkscape:window-maximized="1"
     inkscape:window-y="0"
     inkscape:window-x="0"
     inkscape:window-height="703"
     inkscape:window-width="1366"
     inkscape:showpageshadow="false"
     inkscape:pagecheckerboard="true"
     units="px"
     showgrid="false"
     inkscape:current-layer="layer1"
     inkscape:document-units="mm"
     inkscape:cy="50.57552"
     inkscape:cx="7.7896583"
     inkscape:zoom="3.6338092"
     inkscape:pageshadow="2"
     inkscape:pageopacity="0.27843137"
     borderopacity="1.0"
     bordercolor="#666666"
     pagecolor="#ffffff"
     id="base" />
  <metadata
     id="metadata5">
    <rdf:RDF>
      <cc:Work
         rdf:about="">
        <dc:format>image/svg+xml</dc:format>
        <dc:type
           rdf:resource="http://purl.org/dc/dcmitype/StillImage" />
        <dc:title></dc:title>
      </cc:Work>
    </rdf:RDF>
  </metadata>
  <g
     transform="translate(0,-229.26668)"
     id="layer1"
     inkscape:groupmode="layer"
     inkscape:label="Livello 1">
    <circle
       r="10.583333"
       cy="239.85001"
       cx="10.583333"
       id="path11"
       style="fill:#666666;fill-rule:evenodd;stroke-width:0.316614" />
    <path
       d="m 7.8051389,235.18076 c -0.362066,0 -0.653614,0.32592 -0.653614,0.73048 v 8.60801 h 0.7166 v -7.93599 c 0,-0.29945 0.215599,-0.54045 0.483605,-0.54045 h 0.488142 v 7.10996 l 4.4586681,1.36648 h 0.716601 v -8.60801 c 0,-0.40456 -0.291548,-0.73048 -0.653615,-0.73048 z m 1.565845,3.69055 c 0.0017,-2e-5 0.0034,-2e-5 0.0051,0 0.129396,-8e-5 0.234324,0.15349 0.234329,0.34296 -5e-6,0.18947 -0.104933,0.34303 -0.234329,0.34295 -0.129293,-1.3e-4 -0.234057,-0.15364 -0.234063,-0.34295 -2.6e-5,-0.18646 0.101684,-0.33879 0.228992,-0.34296 z"
       style="fill:#ffffff;stroke-width:0.129274"
       id="rect13" />
    <path
       sodipodi:nodetypes="cccc"
       id="path34"
       d="m 7.0162985,246.33745 3.5670335,3.56672 3.567036,-3.56735 z"
       style="fill:#ffffff;fill-opacity:1;stroke:none;stroke-width:0.188755px;stroke-linecap:butt;stroke-linejoin:miter;stroke-opacity:1" />
  </g>
</svg>
