<?xml version="1.0" encoding="UTF-8" standalone="no"?>
<!-- Created with Inkscape (http://www.inkscape.org/) -->

<svg
   xmlns:dc="http://purl.org/dc/elements/1.1/"
   xmlns:cc="http://creativecommons.org/ns#"
   xmlns:rdf="http://www.w3.org/1999/02/22-rdf-syntax-ns#"
   xmlns:svg="http://www.w3.org/2000/svg"
   xmlns="http://www.w3.org/2000/svg"
   xmlns:sodipodi="http://sodipodi.sourceforge.net/DTD/sodipodi-0.dtd"
   xmlns:inkscape="http://www.inkscape.org/namespaces/inkscape"
   width="256"
   height="256"
   viewBox="0 0 67.733331 67.733331"
   version="1.1"
   id="svg8"
   inkscape:version="0.92.4 (5da689c313, 2019-01-14)"
   sodipodi:docname="rectangular_draw.svg">
  <defs
     id="defs2" />
  <sodipodi:namedview
     id="base"
     pagecolor="#ffffff"
     bordercolor="#666666"
     borderopacity="1.0"
     inkscape:pageopacity="0.27843137"
     inkscape:pageshadow="2"
     inkscape:zoom="1.979899"
     inkscape:cx="35.951386"
     inkscape:cy="71.463427"
     inkscape:document-units="mm"
     inkscape:current-layer="layer1"
     showgrid="false"
     units="px"
     inkscape:pagecheckerboard="true"
     inkscape:showpageshadow="false"
     inkscape:window-width="1920"
     inkscape:window-height="1017"
     inkscape:window-x="-8"
     inkscape:window-y="-8"
     inkscape:window-maximized="1" />
  <metadata
     id="metadata5">
    <rdf:RDF>
      <cc:Work
         rdf:about="">
        <dc:format>image/svg+xml</dc:format>
        <dc:type
           rdf:resource="http://purl.org/dc/dcmitype/StillImage" />
        <dc:title />
      </cc:Work>
    </rdf:RDF>
  </metadata>
  <g
     inkscape:label="Livello 1"
     inkscape:groupmode="layer"
     id="layer1"
     transform="translate(0,-229.26668)">
    <path
       id="rect815"
       transform="matrix(0.26458333,0,0,0.26458333,0,229.26668)"
       style="color:#000000;font-style:normal;font-variant:normal;font-weight:normal;font-stretch:normal;font-size:medium;line-height:normal;font-family:sans-serif;font-variant-ligatures:normal;font-variant-position:normal;font-variant-caps:normal;font-variant-numeric:normal;font-variant-alternates:normal;font-feature-settings:normal;text-indent:0;text-align:start;text-decoration:none;text-decoration-line:none;text-decoration-style:solid;text-decoration-color:#000000;letter-spacing:normal;word-spacing:normal;text-transform:none;writing-mode:lr-tb;direction:ltr;text-orientation:mixed;dominant-baseline:auto;baseline-shift:baseline;text-anchor:start;white-space:normal;shape-padding:0;clip-rule:nonzero;display:inline;overflow:visible;visibility:visible;opacity:1;isolation:auto;mix-blend-mode:normal;color-interpolation:sRGB;color-interpolation-filters:linearRGB;solid-color:#000000;solid-opacity:1;vector-effect:none;fill:#000000;fill-opacity:1;fill-rule:nonzero;stroke:#b1b1b1;stroke-width:0.99999994;stroke-linecap:round;stroke-linejoin:round;stroke-miterlimit:4;stroke-dasharray:none;stroke-dashoffset:0;stroke-opacity:1;paint-order:normal;color-rendering:auto;image-rendering:auto;shape-rendering:auto;text-rendering:auto;enable-background:accumulate"
       d="M 48.751953,0.00585938 C 46.31219,-0.03490283 43.880746,0.13892606 41.515625,0.65039062 39.554957,1.074378 37.353285,1.6246054 36.035156,3.1367188 c -1.317621,1.5115842 -1.990888,3.779521 -1.714844,5.765625 0.276061,1.9862552 1.623629,3.8699492 3.222657,5.0800782 1.101984,0.833953 2.605196,0.987714 3.972656,1.1875 4.788748,0.69959 9.788138,1.026595 14.517578,0 1.959175,-0.42531 4.156489,-0.981876 5.472656,-2.494141 1.316429,-1.512567 1.990889,-3.779483 1.714844,-5.7656248 C 62.944646,4.9239389 61.597781,3.0393002 59.998047,1.8300781 58.897947,0.99854427 57.397847,0.848967 56.033203,0.65039062 53.638629,0.30197488 51.191717,0.04662158 48.751953,0.00585938 Z m 43.556641,0 C 89.86883,-0.03490283 87.435433,0.13892606 85.070312,0.65039062 83.109645,1.074378 80.907973,1.6246054 79.589844,3.1367188 78.272225,4.648303 77.598955,6.9162398 77.875,8.9023438 c 0.276057,1.9862552 1.623625,3.8699492 3.222656,5.0800782 1.101978,0.833953 2.605197,0.987714 3.972656,1.1875 4.788749,0.69959 9.790096,1.026595 14.519532,0 1.959176,-0.42531 4.156496,-0.981876 5.472656,-2.494141 1.31643,-1.512567 1.99089,-3.779483 1.71484,-5.7656248 -0.27605,-1.9862173 -1.62292,-3.870856 -3.22265,-5.0800781 -1.1001,-0.83153383 -2.6002,-0.9811111 -3.964846,-1.17968748 -2.394575,-0.34841574 -4.841487,-0.60376904 -7.28125,-0.64453124 z m 43.556636,0 c -2.43976,-0.04076221 -4.87315,0.13306668 -7.23828,0.64453124 -1.96066,0.42398738 -4.16234,0.97421478 -5.48047,2.48632818 -1.31761,1.5115842 -1.99089,3.779521 -1.71484,5.765625 0.27606,1.9862552 1.62363,3.8699492 3.22266,5.0800782 1.10197,0.833953 2.60519,0.987714 3.97265,1.1875 4.78875,0.69959 9.79009,1.026595 14.51953,0 1.95918,-0.42531 4.1565,-0.981876 5.47266,-2.494141 1.31643,-1.512567 1.99089,-3.779483 1.71484,-5.7656248 -0.27605,-1.9862173 -1.62292,-3.870856 -3.22265,-5.0800781 -1.1001,-0.83153383 -2.60021,-0.9811111 -3.96485,-1.17968748 -2.39457,-0.34841574 -4.84148,-0.60376904 -7.28125,-0.64453124 z m 43.55469,0 c -2.43976,-0.04076221 -4.8712,0.13306668 -7.23633,0.64453124 -1.96066,0.42398738 -4.16234,0.97421478 -5.48047,2.48632818 -1.31762,1.5115842 -1.99088,3.779521 -1.71484,5.765625 0.27606,1.9862552 1.62363,3.8699492 3.22266,5.0800782 1.10198,0.833953 2.60519,0.987714 3.97265,1.1875 4.78876,0.69959 9.7901,1.026595 14.51953,0 1.95918,-0.42531 4.1565,-0.981876 5.47266,-2.494141 1.31643,-1.512567 1.99089,-3.779483 1.71484,-5.7656248 -0.27605,-1.9862173 -1.62292,-3.870856 -3.22265,-5.0800781 -1.1001,-0.83153383 -2.6002,-0.9811111 -3.96485,-1.17968748 -2.39457,-0.34841574 -4.84343,-0.60376904 -7.2832,-0.64453124 z M 10.1875,0.44726562 C 9.4202615,0.43441523 8.6558263,0.48938275 7.9121094,0.65039062 5.953667,1.0744158 3.8051953,1.6722652 2.4375,3.1367188 1.2780362,4.3782558 0.9548913,6.2385846 0.65234375,7.9101562 c -0.5908845,3.2646428 -0.7037845,6.7109328 0,9.9531248 0.42528275,1.959194 0.98186615,4.156474 2.49414065,5.472657 1.5125782,1.316447 3.7795044,1.9909 5.765625,1.714843 1.9862206,-0.276283 3.8708826,-1.622933 5.0800786,-3.222656 0.831544,-1.100107 0.979176,-2.60017 1.177734,-3.964844 0.188266,-1.293921 -0.707666,-2.822372 0,-3.921875 0.550895,-0.855912 2.11282,-0.497965 2.78125,-1.265625 C 19.267975,11.163517 19.94206,8.896298 19.666016,6.9101562 19.389955,4.9239389 18.04309,3.0393002 16.443359,1.8300781 15.343258,0.99854427 13.841208,0.848967 12.476562,0.65039062 11.723544,0.54078433 10.954738,0.46011602 10.1875,0.44726562 Z M 191.85352,24.298828 c -0.25512,0.0052 -0.50945,0.02422 -0.75782,0.05859 -1.98638,0.275149 -3.86995,1.623614 -5.08008,3.222656 -0.83396,1.101959 -0.98576,2.605186 -1.18554,3.972656 -0.69961,4.788775 -1.02663,9.790058 0,14.519532 0.42529,1.959193 0.98187,4.156511 2.49414,5.472656 1.51258,1.316447 3.7795,1.9909 5.76562,1.714844 1.98623,-0.276284 3.87089,-1.622896 5.08008,-3.222657 0.83154,-1.100107 0.98113,-2.600207 1.17969,-3.964843 0.69683,-4.789191 1.02407,-9.789528 0,-14.519532 -0.42402,-1.958475 -0.97627,-4.155453 -2.48633,-5.472656 -1.32267,-1.153743 -3.22398,-1.817595 -5.00976,-1.78125 z M 7.6679688,39.652344 c -0.2550306,0.0054 -0.5075939,0.02604 -0.7558594,0.06055 -1.9862272,0.276283 -3.8728333,1.622933 -5.0820313,3.222656 -0.83153561,1.100145 -0.97917638,2.600207 -1.17773435,3.964844 -0.69683233,4.789152 -1.02663322,9.790057 0,14.519531 0.42528315,1.959194 0.98188035,4.156473 2.49414065,5.472656 1.5125774,1.316447 3.7794961,1.990901 5.765625,1.714844 1.9862276,-0.276284 3.8708826,-1.622896 5.0800786,-3.222656 0.831541,-1.100107 0.979176,-2.600208 1.177734,-3.964844 0.696826,-4.789191 1.026633,-9.790057 0,-14.519531 -0.425283,-1.959197 -0.979924,-4.156477 -2.492188,-5.47266 C 11.354228,40.275876 9.4531825,39.6145 7.6679688,39.652344 Z M 191.85352,67.855469 c -0.25512,0.0052 -0.50945,0.02422 -0.75782,0.05859 -1.98638,0.27515 -3.86995,1.623614 -5.08008,3.222657 -0.83396,1.101959 -0.98576,2.605185 -1.18554,3.972656 -0.69961,4.788775 -1.02663,9.790057 0,14.519531 0.42529,1.959194 0.98187,4.156474 2.49414,5.472656 1.51258,1.31641 3.7795,1.990901 5.76562,1.714844 1.98623,-0.276283 3.87089,-1.622933 5.08008,-3.222656 0.83154,-1.100145 0.98113,-2.600208 1.17969,-3.964844 0.69683,-4.78919 1.02407,-9.789528 0,-14.519531 -0.42402,-1.958476 -0.97626,-4.155453 -2.48633,-5.472656 -1.32267,-1.15371 -3.22398,-1.817578 -5.00976,-1.78125 z M 7.6679688,83.208984 c -0.2550306,0.0054 -0.5075939,0.02604 -0.7558594,0.06055 -1.9862272,0.276284 -3.8728333,1.622934 -5.0820313,3.222657 -0.83153561,1.100144 -0.97917638,2.600207 -1.17773435,3.964843 -0.69683233,4.789191 -1.02662699,9.790056 0,14.519526 0.42528275,1.9592 0.98186615,4.15651 2.49414065,5.47266 1.5125782,1.31645 3.7795044,1.9909 5.765625,1.71484 1.9862206,-0.27628 3.8708826,-1.62289 5.0800786,-3.22265 0.831544,-1.10011 0.979176,-2.60021 1.177734,-3.96485 0.696826,-4.78919 1.026633,-9.790052 0,-14.519526 C 14.744639,88.497838 14.189998,86.300558 12.677734,84.984375 11.354228,83.832517 9.4531825,83.171141 7.6679688,83.208984 Z M 191.85352,111.41211 c -0.25512,0.005 -0.50945,0.0242 -0.75782,0.0586 -1.98638,0.27515 -3.86995,1.62362 -5.08008,3.22266 -0.83396,1.102 -0.98576,2.60518 -1.18554,3.97266 -0.69961,4.78877 -1.02663,9.79005 0,14.51953 0.42529,1.95919 0.98187,4.15647 2.49414,5.47265 1.51258,1.31641 3.7795,1.9909 5.76562,1.71485 1.98623,-0.27629 3.87089,-1.62294 5.08008,-3.22266 0.83154,-1.10014 0.98113,-2.60021 1.17969,-3.96484 0.69683,-4.78916 1.02407,-9.78949 0,-14.51953 -0.42402,-1.95844 -0.97627,-4.15546 -2.48633,-5.47266 -1.32267,-1.15374 -3.22398,-1.8176 -5.00976,-1.78125 z M 7.6679688,126.76562 c -0.2550306,0.005 -0.5075939,0.026 -0.7558594,0.0606 -1.9862272,0.27629 -3.8728333,1.62294 -5.0820313,3.22266 -0.83153561,1.10014 -0.97917638,2.60021 -1.17773435,3.96484 -0.69683233,4.78919 -1.02663322,9.79006 0,14.51953 0.42528315,1.9592 0.98188035,4.15648 2.49414065,5.47266 1.5125774,1.31641 3.7794961,1.9909 5.765625,1.71484 1.9862276,-0.27628 3.8708826,-1.62293 5.0800786,-3.22265 0.831541,-1.10015 0.979176,-2.60021 1.177734,-3.96485 0.696826,-4.78919 1.026633,-9.79005 0,-14.51953 -0.425283,-1.95919 -0.979924,-4.15647 -2.492188,-5.47265 -1.323506,-1.15186 -3.2245515,-1.81324 -5.0097652,-1.7754 z M 191.85352,154.96875 c -0.25512,0.005 -0.50945,0.0242 -0.75782,0.0586 -1.98638,0.27515 -3.86995,1.62362 -5.08008,3.22266 -0.83396,1.102 -0.98576,2.60522 -1.18554,3.97266 -0.69961,4.78877 -1.02663,9.79005 0,14.51953 0.42529,1.95919 0.98187,4.15647 2.49414,5.47265 1.51258,1.31641 3.7795,1.9909 5.76562,1.71485 1.98623,-0.27629 3.87089,-1.62294 5.08008,-3.22266 0.83154,-1.10011 0.98113,-2.60021 1.17969,-3.96484 0.69683,-4.78916 1.02407,-9.78949 0,-14.51953 -0.42402,-1.95844 -0.97626,-4.15546 -2.48633,-5.47266 -1.32267,-1.15374 -3.22398,-1.8176 -5.00976,-1.78125 z M 7.6679688,170.32227 c -0.2550306,0.005 -0.5075939,0.026 -0.7558594,0.0605 -1.9862272,0.27629 -3.8728333,1.6229 -5.0820313,3.22266 -0.83153561,1.10011 -0.97917638,2.60021 -1.17773435,3.96484 -0.69683233,4.78919 -1.02662699,9.79006 0,14.51953 0.42528275,1.9592 0.98186615,4.15648 2.49414065,5.47266 1.5125782,1.31641 3.7795044,1.9909 5.765625,1.71484 1.9862206,-0.27628 3.8708826,-1.62293 5.0800786,-3.22265 0.831544,-1.10015 0.979176,-2.60021 1.177734,-3.96485 0.696826,-4.78915 1.026633,-9.79005 0,-14.51953 -0.425283,-1.95919 -0.979924,-4.15651 -2.492188,-5.47265 -1.323506,-1.1519 -3.2245515,-1.81324 -5.0097652,-1.77539 z m 32.7812502,13.86132 c -2.439842,-0.0414 -4.87161,0.13317 -7.236328,0.64649 -1.959176,0.42527 -4.158447,0.97992 -5.47461,2.49219 -1.316433,1.5126 -1.990888,3.78143 -1.714843,5.76757 0.27606,1.98622 1.622925,3.8709 3.222656,5.08008 1.100101,0.83154 2.602151,0.9792 3.966797,1.17774 4.789154,0.69683 9.787885,1.02546 14.517578,0 1.961401,-0.42528 4.162513,-0.9786 5.480469,-2.49219 1.316813,-1.51227 1.990892,-3.7814 1.714843,-5.76758 -0.276056,-1.98622 -1.622627,-3.87127 -3.222656,-5.08008 -1.102125,-0.83263 -2.605703,-0.97919 -3.972656,-1.17773 -2.394664,-0.34783 -4.841408,-0.60511 -7.28125,-0.64649 z m 43.55664,0 c -2.439841,-0.0414 -4.873561,0.13317 -7.238281,0.64649 -1.959175,0.42527 -4.156492,0.97992 -5.472656,2.49219 -1.316432,1.5126 -1.990889,3.78143 -1.714844,5.76757 0.276057,1.98622 1.622926,3.8709 3.222656,5.08008 1.100104,0.83154 2.600197,0.9792 3.964844,1.17774 4.789153,0.69683 9.789842,1.02546 14.519531,0 1.961401,-0.42528 4.162514,-0.9786 5.480469,-2.49219 1.316814,-1.51227 1.990893,-3.7814 1.714844,-5.76758 -0.276057,-1.98622 -1.622624,-3.87127 -3.222656,-5.08008 -1.102126,-0.83263 -2.605704,-0.97919 -3.972657,-1.17773 -2.394663,-0.34783 -4.841408,-0.60511 -7.28125,-0.64649 z m 43.556641,0 c -2.43984,-0.0414 -4.87356,0.13317 -7.23828,0.64649 -1.95918,0.42527 -4.15649,0.97992 -5.47266,2.49219 -1.31643,1.5126 -1.99089,3.78143 -1.71484,5.76757 0.27606,1.98622 1.62292,3.8709 3.22266,5.08008 1.1001,0.83154 2.60019,0.9792 3.96484,1.17774 4.78915,0.69683 9.78984,1.02546 14.51953,0 1.9614,-0.42528 4.16251,-0.9786 5.48047,-2.49219 1.31681,-1.51227 1.99089,-3.7814 1.71484,-5.76758 -0.27605,-1.98622 -1.62262,-3.87127 -3.22265,-5.08008 -1.10213,-0.83263 -2.60571,-0.97919 -3.97266,-1.17773 -2.39467,-0.34783 -4.84141,-0.60511 -7.28125,-0.64649 z m 43.55469,0 c -2.43984,-0.0414 -4.87161,0.13317 -7.23633,0.64649 -1.95918,0.42527 -4.15649,0.97992 -5.47266,2.49219 -1.31643,1.5126 -1.99089,3.78143 -1.71484,5.76757 0.27606,1.98622 1.62293,3.8709 3.22266,5.08008 1.1001,0.83154 2.60019,0.9792 3.96484,1.17774 4.78915,0.69683 9.78984,1.02546 14.51953,0 1.9614,-0.42528 4.16056,-0.9786 5.47852,-2.49219 1.31681,-1.51227 1.99089,-3.7814 1.71484,-5.76758 -0.27606,-1.98622 -1.62067,-3.87127 -3.2207,-5.08008 -1.10213,-0.83263 -2.60571,-0.97919 -3.97266,-1.17773 -2.39466,-0.34783 -4.84336,-0.60511 -7.2832,-0.64649 z"
       inkscape:connector-curvature="0" />
    <g
       id="g825"
       transform="matrix(1.0019352,0,0,0.9826265,-0.12935288,5.1582749)">
      <path
         sodipodi:nodetypes="ccccc"
         inkscape:connector-curvature="0"
         id="rect842"
         d="m 43.712086,275.09267 3.278454,-2.78611 c 6.607717,4.75971 15.940737,17.32726 20.266445,22.4801 0.712594,1.72343 0.7739,2.88864 -2.001075,1.62286 C 60.365754,291.699 48.04073,282.3421 43.712086,275.09267 Z"
         style="opacity:1;fill:#e9c6af;fill-opacity:1;fill-rule:nonzero;stroke:#000000;stroke-width:0.11766832;stroke-linecap:round;stroke-linejoin:round;stroke-miterlimit:4;stroke-dasharray:none;stroke-dashoffset:0;stroke-opacity:1;paint-order:normal" />
      <path
         sodipodi:nodetypes="cscscc"
         inkscape:connector-curvature="0"
         id="path846"
         d="m 43.712086,275.09267 c -9.493705,-2.8742 -7.753707,-5.57994 -7.870912,-7.92668 -0.105266,-2.10765 -1.805406,-4.53752 -1.805406,-4.53752 0,0 3.107636,-0.32845 7.569998,1.06722 4.87817,1.52572 5.384774,8.61087 5.384774,8.61087 z"
         style="fill:#ff8080;fill-opacity:1;stroke:#000000;stroke-width:0.11766832px;stroke-linecap:butt;stroke-linejoin:miter;stroke-opacity:1" />
    </g>
  </g>
</svg>
