<?xml version="1.0" encoding="UTF-8" standalone="no"?>
<!-- Created with Inkscape (http://www.inkscape.org/) -->

<svg
   xmlns:dc="http://purl.org/dc/elements/1.1/"
   xmlns:cc="http://creativecommons.org/ns#"
   xmlns:rdf="http://www.w3.org/1999/02/22-rdf-syntax-ns#"
   xmlns:svg="http://www.w3.org/2000/svg"
   xmlns="http://www.w3.org/2000/svg"
   xmlns:sodipodi="http://sodipodi.sourceforge.net/DTD/sodipodi-0.dtd"
   xmlns:inkscape="http://www.inkscape.org/namespaces/inkscape"
   width="240"
   height="240"
   viewBox="0 0 63.499998 63.500001"
   version="1.1"
   id="svg8"
   inkscape:version="0.92.4 (5da689c313, 2019-01-14)"
   sodipodi:docname="palm.svg">
  <defs
     id="defs2">
    <clipPath
       clipPathUnits="userSpaceOnUse"
       id="clipPath46994">
      <circle
         r="8.5526247"
         cy="180.73778"
         cx="31.270531"
         id="circle46996"
         style="opacity:1;fill:#4d4d4d;fill-opacity:1;fill-rule:nonzero;stroke:none;stroke-width:0.80000001;stroke-linecap:round;stroke-miterlimit:4;stroke-dasharray:none;stroke-opacity:1;filter:url(#filter46782)"
         transform="matrix(1.0374765,0,0,1.0374765,-0.67853115,75.500327)" />
    </clipPath>
  </defs>
  <sodipodi:namedview
     id="base"
     pagecolor="#ffffff"
     bordercolor="#666666"
     borderopacity="1.0"
     inkscape:pageopacity="0.0"
     inkscape:pageshadow="2"
     inkscape:zoom="0.5"
     inkscape:cx="10.926554"
     inkscape:cy="-21.512859"
     inkscape:document-units="mm"
     inkscape:current-layer="layer1"
     showgrid="true"
     units="px"
     inkscape:showpageshadow="false"
     objecttolerance="1"
     gridtolerance="4"
     guidetolerance="1"
     inkscape:window-width="1920"
     inkscape:window-height="1017"
     inkscape:window-x="-8"
     inkscape:window-y="-8"
     inkscape:window-maximized="1">
    <inkscape:grid
       type="xygrid"
       id="grid815"
       spacingx="21.166666"
       spacingy="21.166666" />
  </sodipodi:namedview>
  <metadata
     id="metadata5">
    <rdf:RDF>
      <cc:Work
         rdf:about="">
        <dc:format>image/svg+xml</dc:format>
        <dc:type
           rdf:resource="http://purl.org/dc/dcmitype/StillImage" />
        <dc:title></dc:title>
      </cc:Work>
    </rdf:RDF>
  </metadata>
  <g
     inkscape:label="Livello 1"
     inkscape:groupmode="layer"
     id="layer1"
     transform="translate(0,-233.49999)">
    <g
       style="enable-background:new"
       transform="matrix(0.23891653,0,0,0.23891653,66.203955,190.91423)"
       id="g3045">
      <path
         inkscape:connector-curvature="0"
         style="fill:#a4d45a;fill-opacity:1;stroke:none;stroke-width:0.19081706px;stroke-linecap:butt;stroke-linejoin:miter;stroke-opacity:1"
         d="m -541.40039,357.11133 c -4.22908,13.41097 -8.69532,36.10246 -19.82227,53.88281 -7.99634,-22.08619 -24.15796,-49.78804 -19.60937,-53.47852 -7.00929,2.49372 -1.0875,48.16143 19.13086,78.41602 0.36125,-5.31019 0.5598,-9.28792 0.68945,-12.38281 l 0.45703,14.0664 0.0234,0.75391 c 0.36095,-0.53972 0.70138,-1.077 1.05078,-1.61523 0.77525,-0.75305 1.35242,-1.68415 1.75391,-2.77344 18.42807,-29.91583 19.38827,-57.30269 16.32617,-76.86914 z m 15.25,26.81836 c -6.58496,16.01681 -14.71226,46.02834 -34.11523,62.60156 l 0.82031,25.28906 c 30.3738,-32.65489 34.90123,-65.19237 33.29492,-87.89062 z m -69.37695,0.71289 c -1.11895,22.31946 3.87744,54.00354 33.45703,85.46484 l 0.27148,-25 c -18.57004,-16.44676 -27.0135,-45.04116 -33.72851,-60.46484 z m 84.95898,29.46289 c -9.38133,16.78879 -22.69888,50.50568 -48.73242,62.21484 l 0.71875,22.13672 c 25.42345,-5.68337 46.68235,-63.03555 48.01367,-84.35156 z m -99.91406,1.02539 c 1.61696,23.25872 11.03775,55.84696 47.82812,84.44922 0.0913,-0.0504 0.17691,-0.10359 0.26758,-0.1543 l 0.25781,-23.83203 c -25.21104,-11.83928 -38.8343,-44.22075 -48.35351,-60.46289 z m 111.68554,37.98047 c -12.37553,14.71827 -31.80425,45.31942 -59.57226,51.91797 l 0.71094,21.90429 c 39.17331,-21.88975 53.46848,-51.63453 58.86132,-73.82226 z m -122.65429,1.26172 c 5.76951,21.77631 20.34251,50.73215 58.77539,71.74804 l 0.23242,-21.44726 c -27.05542,-6.81679 -46.57907,-36.12157 -59.00781,-50.30078 z m 123.51562,28.03125 c -11.90681,15.93319 -30.37354,49.26126 -59.35156,56.0039 l 0.69141,21.32422 c 25.45327,1.45151 54.48948,-56.0624 58.66015,-77.32812 z m -123.77539,1.27148 c 4.66882,22.84263 18.30528,53.9072 58.54492,77.41016 0.0389,-0.0288 0.0746,-0.0591 0.11329,-0.0879 l 0.24804,-22.91602 c -28.22187,-6.98118 -46.89812,-39.00805 -58.90625,-54.40625 z m 127.02735,31.92188 c -12.25369,16.19553 -31.45165,50.48666 -61.52539,56.03125 l 0.63281,21.28906 c 24.16528,0.84333 56.55897,-55.94365 60.89258,-77.32031 z m -129.59571,1.33203 c 7.79595,18.14631 42.3061,78.22081 60.75782,76.59179 l 0.35546,-22.11914 c -29.31362,-5.80823 -48.74625,-38.80736 -61.11328,-54.47265 z m 135.74219,32.64062 c -13.01078,16.76703 -33.84896,53.19262 -66.3418,55.78711 0.002,-0.0218 0.008,-0.0446 0.01,-0.0664 -0.0831,0.008 -0.16507,0.0117 -0.24805,0.0195 l 0.002,0.0684 v 0.008 l 0.043,1.3418 c 0.0113,-0.0627 0.0146,-0.12308 0.0254,-0.18555 l 1.125,18.95898 c 28.7053,-3.16081 60.68286,-54.14978 65.38477,-75.93164 z m -141.18945,1.45117 c 10.49561,21.48118 39.67698,74.88087 65.63672,74.80664 l 0.55664,-20.48437 c -31.82529,-2.77869 -53.01683,-38.0439 -66.19336,-54.32227 z m 144.22265,34.01368 c -13.5631,16.5064 -35.60914,52.71241 -68.52148,53.95117 l 0.83594,18.67773 c 22.44056,3.76506 62.13656,-52.90414 67.68554,-72.6289 z m -146.52539,1.50586 c 11.08162,21.16905 27.24985,65.39451 67.82618,71.6914 l 0.30664,-19.21094 c -32.13226,-1.58747 -54.44308,-36.50136 -68.13282,-52.48046 z m 150.08008,28.33007 c -14.02617,16.68137 -37.11381,53.7594 -71.13281,53.17774 l 0.39648,19.04101 c 27.28635,-2.20408 65.34114,-54.12334 70.73633,-72.21875 z m -153.01953,1.57227 c 12.34415,22.28574 42.53991,71.57963 70.60352,69.89062 l 0.15234,-18.15625 c -33.22558,0.20399 -56.59567,-35.57982 -70.75586,-51.73437 z m 153.18359,25.7207 c -13.92687,16.56319 -36.78773,53.23255 -70.41211,53.18164 L -551.05273,720 c 26.68451,-4.38492 63.81282,-62.14181 69.26757,-77.83594 z m -152.78711,1.57032 c 11.98976,21.83461 44.55482,76.53187 69.64844,75.46484 l 0.41602,-23.72852 c -32.85931,-0.29121 -56.00256,-35.69396 -70.06446,-51.73632 z m 150.77344,30.70703 c -13.50083,16.05657 -35.39642,51.01065 -67.35547,53.08789 l 0.91211,20.68359 c 23.69545,-0.60207 60.85986,-54.04673 66.44336,-73.77148 z m -148.0957,1.52343 c 10.09384,19.61416 34.77878,71.68157 66.71094,73.81836 l 0.33007,-22.20703 c -31.26,-2.33745 -53.41431,-36.06539 -67.04101,-51.61133 z m 149.26953,25.80078 c -13.54098,16.10426 -35.5283,51.2202 -67.64258,53.10743 l 0.54492,21.42773 c 26.16422,-1.39268 61.62118,-53.36019 67.09766,-74.53516 z m -149.88086,1.54102 c 10.30654,19.86694 40.45598,76.52686 66.7793,75.64258 l 0.57617,-24.01367 c -31.42625,-2.1333 -53.683,-36.0308 -67.35547,-51.62891 z m 145.87891,29.66602 c -12.82726,15.25549 -33.23212,47.57079 -62.64649,52.53906 l 0.70117,21.63086 c 24.55442,-5.37964 54.66251,-48.72731 61.94532,-74.16992 z m -141.23828,1.44922 c 5.97112,22.53727 20.35571,52.76709 61.87695,73.92382 -0.32603,-4.08889 0.42487,-15.2221 0.50781,-22.90039 -28.81392,-5.10512 -49.4449,-36.26112 -62.38476,-51.02343 z"
         id="path3003"
         transform="matrix(0.26458333,0,0,0.26458333,0,85.333349)" />
      <path
         id="path3005"
         d="m -18.957801,269.68481 c -3.719481,0.0898 -9.782561,0.91496 -15.186606,-0.3479 4.84429,-3.89323 10.395133,-10.31147 11.708541,-9.48882 -1.224545,-1.54115 -12.149892,3.85221 -17.992386,11.50463 1.360295,-0.36432 2.373083,-0.65526 3.158969,-0.88784 l -3.482258,1.31904 -0.186728,0.0704 c 0.166007,0.0442 0.329689,0.0833 0.494346,0.12473 0.254909,0.12958 0.53743,0.19433 0.844509,0.20156 9.067296,2.05136 16.005563,-0.0536 20.641613,-2.49583 z m -5.407748,6.11437 c -4.573581,-0.27683 -12.782687,0.25871 -18.593282,-3.17934 l -6.260624,2.37106 c 10.776001,4.80729 19.309176,3.15423 24.853906,0.80828 z m -6.119778,-17.30682 c -5.683292,1.63128 -13.187227,5.59544 -18.530125,15.69471 l 6.281766,-2.073 c 2.526991,-6.0573 8.962244,-10.61982 12.248359,-13.62171 z m -0.100022,23.79183 c -5.006318,-0.91077 -14.587523,-1.35723 -19.748263,-6.87174 l -5.480163,2.07568 c 3.599985,5.87782 19.778147,6.28825 25.228426,4.79606 z m -8.81316,-24.92473 c -5.684127,2.39662 -13.035511,7.54583 -17.045158,19.20539 0.0204,0.0186 0.04133,0.0351 0.06154,0.0538 l 5.988205,-1.9764 c 0.804821,-7.32524 7.744552,-13.50878 10.99541,-17.28277 z m 0.0565,31.212 c -4.744402,-1.83765 -14.068956,-4.08083 -18.098836,-10.46719 l -5.422659,2.05381 c 8.834632,7.93208 17.505167,8.96346 23.521495,8.41338 z m -10.819749,-30.5973 c -4.957415,3.30923 -10.958233,9.43717 -12.928033,20.85824 l 5.389019,-1.77852 c -0.610453,-7.35685 5.053755,-14.75402 7.539014,-19.07972 z m 3.560288,33.32153 c -5.008406,-1.61627 -14.93323,-3.38509 -19.102813,-10.06204 l -5.279105,1.99926 c 1.816395,6.49629 18.701073,8.83984 24.381918,8.06278 z m -10.918203,-30.87713 c -5.318614,3.125 -11.927536,9.19908 -14.36499,21.2856 0.01053,0.007 0.0212,0.0136 0.03167,0.0208 l 5.75805,-1.9004 c -0.669199,-7.66293 5.749033,-15.08108 8.575474,-19.40588 z m 2.887051,34.53384 c -5.103791,-1.68064 -15.332329,-3.55003 -19.295826,-10.60388 l -5.275327,1.98156 c 1.858353,6.12178 18.848575,9.3681 24.571153,8.62232 z m -11.431804,-32.329 c -3.875129,3.50567 -15.958834,17.28963 -13.970846,21.76934 l 5.567756,-1.80525 c -1.056332,-7.83581 5.540519,-15.52657 8.40309,-19.96409 z m 3.453434,36.77707 c -5.31169,-1.82122 -16.21503,-3.91845 -19.647166,-11.83054 0.0056,-10e-4 0.01193,-0.002 0.01752,-0.003 -0.0091,-0.0201 -0.01706,-0.0403 -0.02616,-0.0605 l -0.01692,0.006 -0.0019,0.001 -0.332223,0.12567 c 0.01665,-0.003 0.03202,-0.007 0.04864,-0.01 l -4.64986,1.90524 c 3.249548,6.91541 18.752658,10.5541 24.608206,9.86582 z m -12.454496,-35.22118 c -4.478781,4.46709 -15.347863,16.34542 -13.106133,22.83784 l 5.175745,-1.61488 c -2.029837,-8.20513 4.98367,-16.53029 7.930388,-21.22296 z m 3.835963,39.01766 c -5.293739,-1.98181 -16.245566,-4.40022 -19.374236,-12.53343 l -4.6042,1.8088 c 0.97922,5.94021 18.565329,11.02469 23.978436,10.72463 z m -12.925148,-36.5523 c -4.350458,4.58706 -14.037278,12.42202 -12.138768,23.11917 l 4.83554,-1.56842 c -2.35433,-8.17996 4.47537,-16.75523 7.303228,-21.55075 z m 5.760422,39.99728 c -5.377204,-2.08276 -16.63653,-4.68724 -19.40424,-13.25338 l -4.732789,1.72988 c 2.888519,6.64214 19.144982,11.72252 24.137029,11.5235 z m -13.49792,-38.17237 c -4.5219,4.99876 -14.276249,16.77942 -11.450109,23.66025 l 4.558289,-1.51674 c -2.896439,-8.30024 4.06033,-17.21518 6.89182,-22.14351 z m 6.679434,40.55076 c -5.339114,-2.06802 -16.476713,-4.65072 -19.343523,-13.07259 l -6.07398,2.39787 c 3.38295,6.30471 21.021449,10.65323 25.417475,10.67476 z m -13.477534,-38.11435 c -4.439309,4.87141 -15.343449,17.70794 -12.927349,23.89852 l 5.97584,-1.92792 c -2.74111,-8.25097 4.13969,-17.07649 6.951509,-21.9706 z m 5.22474,40.37442 c -5.1758,-2.00475 -15.801319,-4.4927 -19.058259,-12.31546 l -5.09983,1.99964 c 2.17996,5.88038 18.742029,10.60724 24.158089,10.31582 z m -13.064029,-36.94391 c -4.0458,4.20662 -14.96642,14.84523 -12.76673,23.02213 l 5.5876,-1.81913 c -2.0919,-8.02583 4.45432,-16.46035 7.17913,-21.203 z m 6.3242,39.57777 c -5.19119,-2.01072 -15.86508,-4.50778 -19.08773,-12.38567 l -5.31758,1.97145 c 2.5893,6.4307 18.63536,10.85662 24.40531,10.41422 z m -13.22131,-37.3893 c -4.09086,4.28151 -15.69321,16.68139 -13.21755,23.19546 l 6.06094,-1.91225 c -2.15724,-8.04996 4.42266,-16.52465 7.15661,-21.28321 z m 5.0662,39.05996 c -4.91757,-1.90473 -14.75484,-4.24547 -18.5176,-11.18361 l -5.35503,2.02796 c 3.44954,5.68627 16.87962,9.51133 23.87263,9.15565 z m -12.45818,-35.23358 c -5.13065,3.42487 -11.46653,9.61475 -13.20712,21.82102 0.9957,-0.43178 3.8471,-1.19723 5.77639,-1.83402 -1.18955,-7.65049 4.84326,-15.48341 7.43073,-19.987 z"
         style="fill:#a4d45a;fill-opacity:1;stroke:none;stroke-width:0.05048701px;stroke-linecap:butt;stroke-linejoin:miter;stroke-opacity:1"
         inkscape:connector-curvature="0"
         inkscape:transform-center-x="35.272399"
         inkscape:transform-center-y="-12.824786" />
      <path
         inkscape:transform-center-y="-37.78885"
         inkscape:transform-center-x="-3.7338694"
         inkscape:connector-curvature="0"
         style="fill:#a4d45a;fill-opacity:1;stroke:none;stroke-width:0.05048701px;stroke-linecap:butt;stroke-linejoin:miter;stroke-opacity:1"
         d="m -81.599421,417.67693 c -1.116757,-3.54901 -3.589373,-9.14614 -3.873126,-14.68853 5.082933,3.57606 12.787784,7.13146 12.361213,8.62138 1.141567,-1.60359 -7.067516,-10.60706 -16.03904,-14.10078 0.72692,1.20611 1.28707,2.09865 1.72827,2.78934 l -2.23216,-2.98051 -0.11935,-0.15992 c 0.004,0.17175 0.0113,0.33986 0.0171,0.50956 -0.0539,0.28083 -0.0378,0.57023 0.0403,0.86729 0.541,9.28069 4.485794,15.36419 8.116835,19.14216 z m -7.373233,-3.5021 c -1.0011,-4.47125 -3.78999,-12.21065 -2.09633,-18.7463 l -4.01274,-5.35866 c -1.63365,11.68603 2.3188,19.42721 6.10907,24.10496 z m 14.9339,-10.67503 c -3.141967,-5.00889 -9.0299,-11.12083 -20.21409,-13.45662 l 3.73221,5.46156 c 6.520289,0.74992 12.687085,5.66924 16.48188,7.99506 z m -22.88824,6.49535 c -0.51186,-5.06268 -2.73734,-14.39253 1.13155,-20.87904 l -3.51269,-4.69059 c -4.650376,5.08751 -0.56262,20.74611 2.38114,25.56963 z m 21.507421,-15.37351 c -3.877581,-4.79765 -10.861913,-10.4347 -23.175931,-11.05714 -0.0123,0.0248 -0.0223,0.0494 -0.0346,0.074 l 3.55805,5.20624 c 7.26148,-1.25612 15.125606,3.69883 19.65251,5.77687 z m -29.974597,8.70149 c 0.4513,-5.0678 0.0233,-14.64882 5.04324,-20.29029 l -3.47575,-4.64139 c -5.17398,10.68637 -3.76284,19.30326 -1.56749,24.93168 z m 26.402029,-18.87312 c -4.553135,-3.84656 -12.103713,-7.91475 -23.623449,-6.64327 l 3.201916,4.68534 c 6.89976,-2.62475 15.576623,0.76838 20.421533,1.95793 z m -31.030829,12.65256 c 0.16543,-5.26014 -0.88462,-15.28651 4.3758,-21.14272 l -3.38357,-4.51857 c -5.73878,3.54508 -3.31273,20.4181 -0.99223,25.66129 z m 26.643621,-19.04524 c -4.476185,-4.24465 -12.143485,-8.91208 -24.432181,-7.90558 -0.004,0.0121 -0.007,0.0242 -0.0112,0.0362 l 3.42126,5.00616 c 7.177576,-2.766 16.083506,1.34582 21.022072,2.86345 z m -32.382201,12.34154 c 0.20086,-5.36963 -0.83672,-15.71569 4.84295,-21.4783 l -3.36551,-4.51984 c -5.3673,3.48164 -3.77946,20.70618 -1.47744,25.99814 z m 27.896366,-19.94098 c -4.44204,-2.75221 -21.034196,-10.5441 -24.787786,-7.39284 l 3.27711,4.84967 c 7.23644,-3.18587 16.453786,1.02205 21.510676,2.54317 z m -34.380706,13.50724 c 0.27834,-5.60833 -0.72726,-16.66591 5.92425,-22.15572 0.003,0.005 0.005,0.011 0.008,0.0159 0.0168,-0.0143 0.034,-0.0275 0.0509,-0.0419 l -0.0108,-0.0145 -0.001,-0.002 -0.2128,-0.2844 c 0.008,0.0151 0.0156,0.0288 0.0231,0.044 l -3.11889,-3.94001 c -5.74444,5.03825 -4.9456,20.94259 -2.66199,26.37825 z m 30.391996,-21.72492 c -5.53306,-3.06586 -19.957676,-10.21863 -25.574896,-6.26594 l 2.98559,4.52575 c 7.3216,-4.22359 17.263946,0.20892 22.589306,1.74019 z m -36.427616,14.49555 c 0.43762,-5.63558 -0.27281,-16.82871 6.67525,-22.08821 l -3.01358,-3.92285 c -5.4364,2.58661 -5.44967,20.89298 -3.66167,26.01106 z m 31.540636,-22.54592 c -5.612796,-2.90934 -15.824766,-10.04632 -25.577216,-5.25851 l 2.8467,4.21173 c 7.20751,-4.5284 17.33926,-0.3418 22.730516,1.04678 z m -36.835726,16.61607 c 0.51149,-5.74374 -0.10535,-17.28389 7.3587,-22.31649 l -2.97338,-4.06828 c -5.58188,4.61564 -5.95959,21.64327 -4.38532,26.38477 z m 32.93859,-23.54511 c -6.05587,-2.95999 -20.07781,-9.06874 -25.90632,-4.44691 l 2.72023,3.95966 c 7.17289,-5.08263 17.66622,-0.86802 23.18609,0.48725 z m -37.11293,17.65245 c 0.50788,-5.70306 -0.0962,-17.12022 7.20181,-22.20807 l -3.98679,-5.17189 c -5.12068,4.99723 -4.41228,23.15004 -3.21506,27.37995 z m 32.8885,-23.50944 c -5.91062,-2.91594 -21.26565,-9.83691 -26.54453,-5.80031 l 3.50804,5.2078 c 7.16858,-4.91973 17.55495,-0.75336 23.03649,0.59251 z m -37.34651,16.20585 c 0.49233,-5.52862 -0.0609,-16.4275 6.55334,-21.72421 l -3.33426,-4.34621 c -5.04625,3.72376 -4.99961,20.9471 -3.21908,26.07042 z m 31.87843,-22.78787 c -5.16284,-2.72199 -18.41054,-10.26775 -25.65795,-5.88877 l 3.29595,4.86488 c 7.13212,-4.23354 17.05009,-0.28033 22.362,1.02389 z m -36.27645,17.04156 c 0.49381,-5.54504 -0.0641,-16.49293 6.61265,-21.77199 l -3.3675,-4.56323 c -5.46163,4.26955 -5.26879,20.91369 -3.24515,26.33522 z m 32.26282,-23.06239 c -5.24728,-2.74455 -20.37618,-10.45738 -25.94939,-6.27392 l 3.51656,5.2939 c 7.1372,-4.30301 17.1031,-0.32857 22.43283,0.98002 z m -36.12744,15.68935 c 0.46777,-5.25278 -0.008,-15.35347 5.61559,-20.89115 l -3.43217,-4.58356 c -4.50801,4.88987 -4.46257,18.85397 -2.18342,25.47471 z m 30.4029,-21.73189 c -4.71224,-3.98096 -12.41516,-8.35395 -24.62586,-6.64469 0.69074,0.8371 2.21619,3.36482 3.36256,5.04217 7.02146,-3.26253 16.21915,0.36404 21.2633,1.60252 z"
         id="path3007" />
      <path
         id="path3009"
         d="m -236.65337,414.88456 c 2.99442,-2.20819 7.48602,-6.36356 12.63628,-8.43081 -1.73274,5.96841 -2.59494,14.41011 -4.14266,14.4902 1.8873,0.55931 7.73898,-10.12757 8.13173,-19.74734 -0.90488,1.07902 -1.5673,1.89854 -2.0774,2.54003 l 2.09468,-3.07869 0.11252,-0.1648 c -0.16115,0.0595 -0.31779,0.121 -0.47642,0.18157 -0.28312,0.0402 -0.55163,0.14931 -0.80726,0.3196 -8.60268,3.52389 -13.07651,9.22961 -15.47145,13.89027 z m 0.91943,-8.11073 c 3.90427,-2.39811 10.31951,-7.54795 17.05105,-8.06721 l 3.76617,-5.53473 c -11.58361,2.24764 -17.62289,8.49863 -20.81722,13.60194 z m 14.94412,10.66071 c 3.71796,-4.59758 7.58802,-12.15048 6.16738,-23.4873 l -3.95456,5.30278 c 1.40693,6.4107 -1.24456,13.84028 -2.21282,18.18452 z m -13.5724,-19.54101 c 4.62247,-2.1273 12.72493,-7.26044 20.11598,-5.70628 l 3.29657,-4.84493 c -6.32144,-2.7474 -19.8056,6.20128 -23.41255,10.55121 z m 21.52177,15.35342 c 3.2794,-5.22481 6.34443,-13.66062 2.93649,-25.51003 -0.0275,-0.003 -0.0539,-0.005 -0.0812,-0.009 l -3.76958,5.05519 c 3.54493,6.46068 1.41063,15.50727 0.91435,20.46356 z m -17.9591,-25.52772 c 4.93993,-1.21795 13.86336,-4.73243 20.82871,-1.81526 l 3.26202,-4.79402 c -11.78713,-1.42547 -19.47953,2.70601 -24.09073,6.60928 z m 26.42055,18.8472 c 2.16055,-5.55509 3.55785,-14.0173 -1.38368,-24.50073 l -3.39247,4.54927 c 4.72207,5.67434 4.32882,14.98276 4.77615,19.95146 z m -22.03908,-25.24438 c 5.02907,-1.55077 14.17185,-5.79817 21.41836,-2.72325 l 3.17577,-4.66695 c -5.21576,-4.2775 -20.38794,3.49358 -24.59413,7.3902 z m 26.66176,19.01985 c 2.56205,-5.61152 4.48827,-14.37862 -0.4522,-25.67538 -0.0127,1.4e-4 -0.0252,8.6e-4 -0.0379,0.001 l -3.62473,4.86085 c 4.94585,5.89128 3.94716,15.64963 4.11457,20.8134 z m -22.1835,-26.62353 c 5.14412,-1.55281 14.59333,-5.89218 21.88739,-2.39031 l 3.18283,-4.65029 c -5.03519,-3.94672 -20.8119,3.14562 -25.07022,7.0406 z m 27.9156,19.91404 c 1.16149,-5.09482 3.14634,-23.31772 -1.0526,-25.84532 l -3.5235,4.67373 c 5.36209,5.81067 4.37358,15.89477 4.5761,21.17159 z m -23.93474,-28.13551 c 5.39505,-1.55698 15.52763,-6.09704 22.87908,-1.58741 -0.004,0.005 -0.008,0.009 -0.0125,0.0127 0.019,0.0113 0.0371,0.0232 0.0562,0.0346 l 0.0107,-0.0149 10e-4,-0.002 0.19993,-0.29359 c -0.0117,0.0125 -0.0222,0.0241 -0.0341,0.0362 l 2.71443,-4.22884 c -6.62993,-3.79822 -21.414,2.11935 -25.81422,6.04355 z m 30.41295,21.69558 c 1.10406,-6.2286 3.18789,-22.19385 -2.37396,-26.22407 l -3.31172,4.29286 c 6.37126,5.55441 5.40563,16.39715 5.68568,21.93121 z m -25.5339,-29.75084 c 5.47253,-1.41518 15.82913,-5.72003 23.05898,-0.85515 l 2.73239,-4.12365 c -4.21104,-4.30258 -21.53068,1.62645 -25.79137,4.9788 z m 31.56232,22.51556 c 0.93013,-6.25321 4.36631,-18.22874 -3.3276,-25.89929 l -3.05979,4.05957 c 6.62255,5.34757 5.95099,16.28964 6.38739,21.83972 z m -27.67208,-29.44861 c 5.59881,-1.38041 16.31402,-5.70937 23.49672,-0.2828 l 2.883,-4.13282 c -6.17745,-3.78164 -22.40586,1.38765 -26.37972,4.41562 z m 32.96113,23.51353 c 0.83424,-6.68873 2.06128,-21.93426 -4.20207,-25.94716 l -2.86241,3.85814 c 7.13553,5.13494 6.55484,16.42811 7.06448,22.08902 z m -28.74231,-29.37443 c 5.55915,-1.37062 16.16217,-5.64759 23.34325,-0.396 l 3.59793,-5.44957 c -6.38868,-3.22155 -23.32885,3.34025 -26.94119,5.84553 z m 32.91114,23.47773 c 0.83971,-6.53705 2.40232,-23.30711 -3.12909,-26.99008 l -3.78729,5.00839 c 6.98006,5.18374 6.41028,16.36008 6.91638,21.98169 z m -27.44985,-30.06488 c 5.38911,-1.32871 15.51841,-5.38938 22.67512,-0.85232 l 3.02875,-4.56438 c -5.16001,-3.56447 -21.4358,2.06972 -25.70387,5.4167 z m 31.9008,22.75654 c 0.89897,-5.7668 3.7365,-20.74641 -2.75767,-26.18021 l -3.53177,4.69648 c 6.31919,5.37196 5.799,16.03608 6.28944,21.48373 z m -27.89301,-28.78151 c 5.40512,-1.33265 15.57926,-5.41364 22.73956,-0.81173 l 3.22323,-4.66626 c -5.81106,-3.78022 -21.49156,1.80426 -25.96279,5.47799 z m 32.28522,23.03102 c 0.89289,-5.85399 3.27789,-22.66718 -2.48796,-26.58088 l -3.86596,5.0444 c 6.38654,5.35422 5.86183,16.07055 6.35392,21.53648 z m -26.56565,-29.07945 c 5.12024,-1.26241 14.5197,-4.99075 21.58281,-1.46893 l 3.22146,-4.73401 c -6.08829,-2.67689 -19.28168,1.89832 -24.80427,6.20294 z m 30.42308,21.70362 c 2.23603,-5.74921 3.8722,-14.45443 -1.70768,-25.44933 -0.5676,0.92503 -2.46336,3.1883 -3.67784,4.81703 5.36482,5.58244 4.91981,15.45926 5.38552,20.6323 z"
         style="fill:#a4d45a;fill-opacity:1;stroke:none;stroke-width:0.05048701px;stroke-linecap:butt;stroke-linejoin:miter;stroke-opacity:1"
         inkscape:connector-curvature="0"
         inkscape:transform-center-x="-38.456483"
         inkscape:transform-center-y="-7.8729259" />
      <path
         inkscape:transform-center-y="38.200344"
         inkscape:transform-center-x="-11.036176"
         inkscape:connector-curvature="0"
         style="fill:#a4d45a;fill-opacity:1;stroke:none;stroke-width:0.05048701px;stroke-linecap:butt;stroke-linejoin:miter;stroke-opacity:1"
         d="m -258.0514,238.82378 c 2.45828,2.79276 6.98564,6.90914 9.48949,11.86186 -6.09564,-1.2114 -14.58025,-1.34213 -14.79356,-2.87717 -0.39441,1.92851 10.75744,6.83644 20.37523,6.39784 -1.15306,-0.80842 -2.02667,-1.39767 -2.70977,-1.85053 l 3.24792,1.82128 0.17389,0.0979 c -0.0732,-0.15541 -0.14797,-0.30616 -0.222,-0.45898 -0.0645,-0.27859 -0.19634,-0.53669 -0.38804,-0.77668 -4.2529,-8.2666 -10.32329,-12.23153 -15.17319,-14.21548 z m 8.15981,0.2163 c 2.72599,3.68284 8.41006,9.62989 9.5081,16.29154 l 5.839,3.27466 c -3.23856,-11.34653 -9.98724,-16.82403 -15.3471,-19.5662 z m -9.33176,15.80809 c 4.90118,3.30748 12.75979,6.51153 23.93179,4.11818 l -5.62417,-3.48235 c -6.26542,1.95472 -13.89605,-0.046 -18.30762,-0.63583 z m 18.29729,-15.20757 c 2.51814,4.42172 8.33113,12.05115 7.42038,19.54872 l 5.11126,2.86631 c 2.19181,-6.53488 -7.88676,-19.19679 -12.53164,-22.41503 z m -13.43953,22.76605 c 5.48824,2.81644 14.15701,5.1423 25.66825,0.72484 6.2e-4,-0.0277 3.3e-4,-0.0541 0.002,-0.0817 l -5.36154,-3.31942 c -6.13078,4.08906 -15.32776,2.74315 -20.30839,2.6763 z m 23.88325,-20.09438 c 1.63957,4.81644 5.91075,13.40342 3.60535,20.59446 l 5.05755,2.83629 c 0.4033,-11.86616 -4.37638,-19.17347 -8.6629,-23.43075 z m -16.49768,27.94797 c 5.72076,1.67327 14.27197,2.33534 24.29002,-3.49216 l -4.82498,-2.98736 c -5.24582,5.19398 -14.55346,5.60521 -19.46504,6.47952 z m 23.24899,-24.13471 c 1.97884,4.87654 6.99913,13.61882 4.56082,21.10358 l 4.92352,2.76132 c 3.8116,-5.56532 -5.23939,-20.01054 -9.48434,-23.8649 z m -16.64888,28.20318 c 5.81162,2.0684 14.71221,3.23111 25.54065,-2.66549 -0.001,-0.0126 -0.003,-0.025 -0.004,-0.0377 l -5.15542,-3.19188 c -5.44265,5.43564 -15.25078,5.28251 -20.38085,5.89476 z m 24.61054,-24.39757 c 1.9908,4.99099 7.12916,14.03062 4.26959,21.59959 l 4.90753,2.76979 c 3.49763,-5.3569 -4.9293,-20.46295 -9.17712,-24.36938 z m -17.43156,29.52948 c 5.17602,0.71764 23.50221,1.12303 25.65816,-3.27831 l -4.96028,-3.10717 c -5.32642,5.84338 -15.45821,5.72849 -20.69788,6.38548 z m 25.96581,-26.27271 c 2.01659,5.24062 7.41385,14.94376 3.55523,22.65684 -0.005,-0.004 -0.01,-0.007 -0.0137,-0.0114 -0.01,0.0199 -0.0199,0.039 -0.0296,0.059 l 0.0158,0.009 0.002,8.3e-4 0.30974,0.17385 c -0.0135,-0.0106 -0.0259,-0.02 -0.039,-0.0309 l 4.44724,2.3395 c 3.21211,-6.93288 -3.9588,-21.15134 -8.24797,-25.19662 z m -18.99103,32.17121 c 6.30063,0.56261 22.38612,1.26138 25.92151,-4.62742 l -4.56255,-2.92903 c -4.98407,6.82667 -15.86969,6.80003 -21.35896,7.55645 z m 27.43716,-28.00526 c 1.88201,5.33004 7.06426,15.27666 2.84122,22.89924 l 4.344,2.36646 c 3.92326,-4.56652 -3.4778,-21.3101 -7.18522,-25.2657 z m -19.70879,33.38703 c 6.31014,0.38721 18.53745,2.77747 25.51567,-5.54948 l -4.3084,-2.69817 c -4.75632,7.05918 -15.71553,7.33408 -21.20727,8.24765 z m 26.9516,-30.1094 c 1.85826,5.45885 7.09547,15.76066 2.30877,23.38473 l 4.36612,2.51572 c 3.23463,-6.48066 -3.31539,-22.20262 -6.67489,-25.90045 z m -20.58237,34.86672 c 6.73576,0.25411 22.03031,0.16137 25.48792,-6.42482 l -4.09069,-2.5189 c -4.50023,7.55191 -15.80139,7.94762 -21.39723,8.94372 z m 26.78537,-31.16924 c 1.84509,5.42019 7.02082,15.61471 2.40831,23.22207 l 5.73964,3.11439 c 2.6584,-6.64278 -5.34034,-22.95372 -8.14791,-26.33647 z m -20.55102,34.81383 c 6.58512,0.27264 23.42747,0.3827 26.61952,-5.44581 l -5.31644,-3.34111 c -4.56226,7.40123 -15.74608,7.79774 -21.30308,8.78692 z m 27.58475,-29.94116 c 1.78867,5.25439 6.70803,14.99562 2.80529,22.51706 l 4.80864,2.6237 c 3.10604,-5.44828 -3.91123,-21.17734 -7.61393,-25.14076 z m -19.91968,33.74504 c 5.82286,0.39813 20.99141,1.93281 25.84471,-5.00591 l -4.98365,-3.11345 c -4.80679,6.75906 -15.47602,7.16079 -20.86106,8.11936 z m 26.26793,-30.27195 c 1.79398,5.27 6.73746,15.05415 2.77041,22.58475 l 4.92693,2.80867 c 3.26481,-6.11551 -3.65158,-21.25579 -7.69734,-25.39342 z m -20.15997,34.1517 c 5.9092,0.38455 22.86546,1.31021 26.26716,-4.77177 l -5.35911,-3.41638 c -4.7833,6.82463 -15.50494,7.22636 -20.90805,8.18815 z m 26.67927,-28.97524 c 1.69942,4.99224 6.22474,14.03502 3.32537,21.37562 l 4.99427,2.80106 c 2.14168,-6.29653 -3.55464,-19.04604 -8.31964,-24.17668 z m -18.99816,32.18199 c 5.92068,1.73172 14.73459,2.61081 25.20714,-3.89678 -0.97055,-0.48569 -3.38893,-2.17913 -5.11636,-3.24858 -5.09881,5.82641 -14.9772,6.23512 -20.09078,7.14536 z"
         id="path3011" />
      <path
         id="path3013"
         d="m -220.16307,189.99492 c 1.04883,3.56968 3.41415,9.21298 3.59207,14.75979 -5.01374,-3.67244 -12.64934,-7.37424 -12.1944,-8.85575 -1.17198,1.58151 6.86377,10.74002 15.76698,14.40434 -0.70377,-1.21976 -1.24679,-2.12283 -1.67472,-2.82182 l 2.17487,3.02258 0.11628,0.16218 c -7.2e-4,-0.17179 -0.005,-0.34001 -0.007,-0.5098 0.0592,-0.27976 0.0487,-0.5694 -0.0237,-0.86789 -0.36378,-9.28933 -4.19174,-15.44701 -7.75001,-19.2936 z m 7.30505,3.64219 c 0.91558,4.48955 3.55625,12.28076 1.73815,18.7829 l 3.90973,5.43427 c 1.85641,-11.65271 -1.94757,-19.46792 -5.64788,-24.21717 z m -15.13492,10.38805 c 3.04579,5.06795 8.816,11.29116 19.95356,13.83999 l -3.62729,-5.5318 c -6.50478,-0.87423 -12.57654,-5.91041 -16.32627,-8.30819 z m 23.00804,-6.0573 c 0.41513,5.07152 2.46213,14.44215 -1.52985,20.85363 l 3.42253,4.75678 c 4.74662,-4.99782 0.95848,-20.73159 -1.89268,-25.61041 z m -21.79693,14.9602 c 3.7853,4.87079 10.66077,10.64012 22.96067,11.49749 0.0123,-0.0248 0.0231,-0.0489 0.0363,-0.0732 l -3.45804,-5.27319 c -7.28413,1.11728 -15.05224,-3.98686 -19.53866,-6.15092 z m 30.13524,-8.1278 c -0.54795,5.05827 -0.30291,14.64572 -5.42961,20.19034 l 3.38653,4.70689 c 5.377,-10.58567 4.13058,-19.22792 2.04308,-24.89723 z m -26.75745,18.36577 c 4.47887,3.93277 11.95043,8.14433 23.49234,7.09295 l -3.11191,-4.7456 c -6.94861,2.49258 -15.55912,-1.06555 -20.38043,-2.34735 z m 31.26667,-12.05799 c -0.2658,5.25603 0.59268,15.30062 -4.77855,21.05535 l 3.2967,4.58233 c 5.8054,-3.43489 3.70184,-20.35115 1.48185,-25.63768 z m -27.00229,18.53325 c 4.39435,4.3293 11.97118,9.14221 24.27685,8.37045 0.004,-0.0118 0.008,-0.0239 0.0123,-0.0359 l -3.32506,-5.07054 c -7.22908,2.6285 -16.05492,-1.65256 -20.9636,-3.26417 z m 32.61185,-11.72124 c -0.30329,5.36482 0.53663,15.72881 -5.252,21.38196 l 3.27863,4.58325 c 5.43277,-3.37857 4.17398,-20.63027 1.97337,-25.96521 z m -28.27187,19.40491 c 4.38868,2.83649 20.82911,10.94364 24.64217,7.8646 l -3.18396,-4.91134 c -7.29593,3.04718 -16.43129,-1.33591 -21.45821,-2.95326 z m 34.63225,-12.84857 c -0.38535,5.60199 0.40904,16.67675 -6.34604,22.0386 -0.003,-0.006 -0.006,-0.0106 -0.008,-0.0161 -0.0175,0.0138 -0.0345,0.0269 -0.0517,0.041 l 0.0105,0.0148 0.001,0.002 0.20734,0.2884 c -0.008,-0.0153 -0.015,-0.0291 -0.0223,-0.0445 l 3.04312,3.99882 c 5.83956,-4.92769 5.34441,-20.84439 3.16497,-26.32265 z m -30.80113,21.14088 c 5.47355,3.17091 19.75901,10.59769 25.45065,6.75293 l -2.89867,-4.5819 c -7.40087,4.08306 -17.25681,-0.5384 -22.55198,-2.17103 z m 36.69765,-13.79763 c -0.54509,5.6262 -0.0484,16.83085 -7.09562,21.95677 l 2.93816,3.97966 c 5.48479,-2.48238 5.84746,-20.78516 4.15746,-25.93643 z m -31.9652,21.93981 c 5.55624,3.01594 15.63012,10.34653 25.47219,5.74574 l -2.7658,-4.2653 c -7.29263,4.39 -17.34262,0.0108 -22.70639,-1.48044 z m 37.14616,-15.90998 c -0.62103,5.73293 -0.22456,17.28276 -7.7833,22.17197 l 2.89517,4.1243 c 5.66898,-4.50827 6.37162,-21.52558 4.88813,-26.29627 z m -33.38198,22.91213 c 5.99826,3.07505 19.90105,9.45032 25.81672,4.94057 l -2.64417,-4.01085 c -7.26859,4.94479 -17.67956,0.53066 -23.17255,-0.92972 z m 37.44308,-16.94087 c -0.61664,5.69233 -0.23058,17.11894 -7.62437,22.06657 l 3.88736,5.24704 c 5.21512,-4.89858 4.85332,-23.06161 3.73705,-27.3136 z m -33.33122,22.87743 c 5.85389,3.02823 21.07403,10.24101 26.42899,6.3059 l -3.408,-5.27382 c -7.26118,4.78202 -17.56613,0.41817 -23.02099,-1.03208 z m 37.64902,-15.49008 c -0.59776,5.51821 -0.25265,16.42566 -6.96678,21.59517 l 3.25069,4.40907 c 5.11641,-3.62678 5.39851,-20.84787 3.71609,-26.00424 z m -32.30757,22.17527 c 5.10995,2.82004 18.21122,10.61727 25.54089,6.37741 l -3.20249,-4.92691 c -7.21163,4.09665 -17.05234,-0.0451 -22.3384,-1.4505 z m 36.59511,-16.34606 c -0.59954,5.5346 -0.2507,16.49115 -7.02699,21.6418 l 3.27979,4.62668 c 5.54212,-4.16453 5.667,-20.80931 3.7472,-26.26848 z m -32.69713,22.4424 c 5.19395,2.8442 20.17289,10.84439 25.82493,6.76806 l -3.41489,-5.36006 c -7.21802,4.166 -17.10624,0.002 -22.41004,-1.408 z m 36.42032,-14.99695 c -0.56794,5.2429 -0.28503,15.35083 -6.01329,20.78017 l 3.34404,4.64823 c 4.60052,-4.80295 4.82163,-18.76537 2.66925,-25.4284 z m -30.81214,21.14764 c 4.6354,4.07018 12.25344,8.5894 24.49455,7.11351 -0.67463,-0.85014 -2.15156,-3.4065 -3.26572,-5.10544 -7.08244,3.12793 -16.20924,-0.67353 -21.22883,-2.00807 z"
         style="fill:#a4d45a;fill-opacity:1;stroke:none;stroke-width:0.05048701px;stroke-linecap:butt;stroke-linejoin:miter;stroke-opacity:1"
         inkscape:connector-curvature="0"
         inkscape:transform-center-x="4.3423224"
         inkscape:transform-center-y="37.675787" />
      <path
         inkscape:transform-center-y="4.3882112"
         inkscape:transform-center-x="38.527741"
         inkscape:connector-curvature="0"
         style="fill:#a4d45a;fill-opacity:1;stroke:none;stroke-width:0.05048701px;stroke-linecap:butt;stroke-linejoin:miter;stroke-opacity:1"
         d="m -59.309615,215.28615 c -3.1913,1.91266 -8.0586,5.62088 -13.38249,7.18771 2.29386,-5.77603 3.95694,-14.09708 5.50524,-14.02925 -1.82538,-0.7367 -8.66926,9.34363 -9.97734,18.88214 1.00363,-0.98784 1.74116,-1.74047 2.3101,-2.3304 l -2.37866,2.86496 -0.12773,0.15333 c 0.16609,-0.0439 0.32783,-0.0903 0.49166,-0.13496 0.28566,-0.013 0.56336,-0.096 0.83405,-0.24115 8.89946,-2.6877 13.89687,-7.94091 16.72523,-12.35202 z m -1.68849,7.98613 c -4.11512,2.01497 -10.9921,6.52975 -17.74249,6.40488 l -4.27668,5.15047 c 11.74514,-1.13306 18.35286,-6.77981 22.01917,-11.55535 z m -13.85969,-12.03686 c -4.13935,4.22217 -8.71185,11.37171 -8.37849,22.79234 l 4.44209,-4.90162 c -0.78935,-6.51563 2.55843,-13.65858 3.9364,-17.89072 z m 11.6476,20.74594 c -4.80423,1.67692 -13.35916,6.01421 -20.56837,3.7625 l -3.74345,4.50858 c 6.03071,3.33754 20.30659,-4.28484 24.31182,-8.27108 z m -19.96,-17.33529 c -3.76258,4.88836 -7.61788,12.99353 -5.35516,25.11388 0.0271,0.006 0.0531,0.0101 0.08,0.0167 l 4.23434,-4.67278 c -2.91283,-6.76922 0.0742,-15.57111 1.04074,-20.45752 z m 15.44358,27.1236 c -5.03355,0.74145 -14.2514,3.38918 -20.9069,-0.17875 l -3.70422,4.46119 c 11.59755,2.54272 19.64879,-0.83657 24.61112,-4.28244 z m -24.50339,-21.2802 c -2.68031,5.3238 -4.87801,13.61425 -0.95843,24.52104 l 3.81072,-4.20512 c -4.15959,-6.09869 -2.88069,-15.32721 -2.85229,-20.31592 z m 19.53199,27.23052 c -5.15402,1.06426 -14.66008,4.42066 -21.58043,0.66889 l -3.60624,4.34292 c 4.78419,4.75528 20.62813,-1.53394 25.18667,-5.01181 z m -24.72704,-21.47506 c -3.085355,5.3417 -5.838625,13.88523 -1.99765,25.60155 0.0124,9e-4 0.0251,0.002 0.0378,0.003 l 4.07164,-4.49313 c -4.36166,-6.33597 -2.4372,-15.95467 -2.11155,-21.11087 z m 19.54427,28.61716 c -5.26874,1.05532 -15.08861,4.47407 -22.01559,0.29276 l -3.611665,4.32567 c 4.635985,4.40877 21.016985,-1.14716 25.627255,-4.61843 z m -25.889905,-22.4847 c -1.64193,4.96087 -5.35505,22.91154 -1.4162,25.82795 l 3.95302,-4.31654 c -4.7837,-6.2954 -2.83831,-16.23933 -2.53682,-21.51141 z m 21.143365,30.28921 c -5.51892,1.03553 -16.03818,4.58892 -22.926205,-0.60103 0.005,-0.004 0.009,-0.008 0.0136,-0.0118 -0.0177,-0.0135 -0.0347,-0.0266 -0.0527,-0.0397 l -0.0117,0.0139 -0.002,0.001 -0.227,0.27319 c 0.0128,-0.0116 0.0244,-0.0218 0.0375,-0.0328 l -3.10523,3.95078 c 6.23763,4.413 21.518515,-0.0682 26.272815,-3.55498 z m -28.206045,-24.49624 c -1.69283,6.09498 -5.28925,21.78884 -0.13696,26.33095 l 3.7059,-3.95757 c -5.81269,-6.13652 -3.81776,-16.83782 -3.56894,-22.37338 z M -88.252125,270.22 c -5.58251,0.88701 -16.302335,4.18492 -23.035465,-1.3471 l -3.11308,3.84437 c 3.78167,4.68445 21.587675,0.43362 26.148545,-2.49727 z m -29.271985,-25.42203 c -1.52205,6.13604 -6.08429,17.72943 0.84329,26.09856 l 3.43287,-3.74937 c -6.08255,-5.95459 -4.37089,-16.78279 -4.27616,-22.34919 z m 24.738505,31.95263 c -5.70491,0.84035 -16.784025,4.12805 -23.416655,-1.95859 l -3.26388,3.83914 c 5.78879,4.35336 22.436095,0.75478 26.680535,-1.88055 z M -123.3549,250.20177 c -1.46813,6.57873 -4.14303,21.63783 1.70922,26.22958 l 3.21718,-3.56767 c -6.61347,-5.79183 -4.95877,-16.9782 -4.9264,-22.66191 z m 25.810935,31.98082 c -5.664505,0.83439 -16.626975,4.08103 -23.274685,-1.83126 l -4.10108,5.08174 c 6.05244,3.81594 23.54103,-1.10095 27.375765,-3.25044 z m -30.522945,-26.50843 c -1.45911,6.42723 -4.6134,22.97193 0.54169,27.16547 l 4.24753,-4.62451 c -6.45407,-5.82559 -4.82137,-16.8967 -4.78922,-22.54096 z m 24.45853,32.54492 c -5.49123,0.80888 -15.96152,3.88535 -22.65309,-1.31332 l -3.45011,4.25483 c 4.79668,4.04017 21.53549,-0.0167 26.1032,-2.94151 z m -29.58596,-25.69421 c -1.44466,5.65484 -5.69737,20.29569 0.24918,26.32388 l 3.96343,-4.33838 c -5.77826,-5.94995 -4.2438,-16.51589 -4.21261,-21.9855 z m 25.02202,31.30965 c -5.50754,0.81128 -16.02441,3.90371 -22.71336,-1.35988 l -3.65342,4.33771 c 5.4242,4.317 21.56568,0.25289 26.36678,-2.97783 z m -29.94246,-26.00409 c -1.44692,5.74221 -5.42397,22.25145 -0.0575,26.69701 l 4.32927,-4.65286 c -5.84699,-5.9387 -4.30294,-16.55621 -4.27177,-22.04415 z m 23.67231,31.47968 c -5.21727,0.76852 -14.92936,3.58377 -21.62454,-0.59538 l -3.65812,4.40531 c 5.80537,3.24513 19.37485,-0.0514 25.28266,-3.80993 z m -28.21535,-24.5052 c -2.77396,5.50986 -5.2326,14.01944 -0.72636,25.49623 0.65321,-0.86671 2.75611,-2.93894 4.12034,-4.44447 -4.80818,-6.06847 -3.42358,-15.85787 -3.39398,-21.05176 z"
         id="path3015" />
      <path
         id="path3017"
         d="m -44.568001,382.79267 c -2.233598,-2.97552 -6.427032,-7.4316 -8.538041,-12.56408 5.98294,1.68189 14.431673,2.47223 14.524929,4.01921 0.543238,-1.89199 -10.193061,-7.65252 -19.815825,-7.9634 1.086684,0.89567 1.911807,1.55108 2.557609,2.05572 l -3.096398,-2.06841 -0.165761,-0.11113 c 0.0609,0.16064 0.123844,0.31668 0.185267,0.47499 0.04263,0.28277 0.153964,0.55036 0.326426,0.80451 3.596983,8.5724 9.340566,12.9975 14.021443,15.35269 z m -8.118259,-0.85037 c -2.431252,-3.88373 -7.635503,-10.25491 -8.212028,-16.98179 l -5.566583,-3.71894 c 2.346136,11.56408 8.648291,17.54995 13.778611,20.70073 z m 10.533138,-15.03429 c -4.629044,-3.67872 -12.214605,-7.48436 -23.538933,-5.96729 l 5.336247,3.90928 c 6.398493,-1.46144 13.850369,1.12679 18.202686,2.05801 z m -19.424793,13.73819 c -2.166563,-4.60421 -7.368459,-12.66269 -5.877261,-20.06669 l -4.87281,-3.25522 c -2.693496,6.34458 6.369604,19.7521 10.750071,23.32191 z m 15.169704,-21.65165 c -5.252523,-3.23482 -13.714104,-6.22794 -25.534097,-2.71931 -0.0031,0.0276 -0.0045,0.0538 -0.0083,0.0813 l 5.087079,3.72641 c 6.430287,-3.59977 15.494693,-1.54255 20.455037,-1.08847 z m -25.373959,18.1757 c -1.25995,-4.92939 -4.850229,-13.8226 -1.992444,-20.81251 l -4.821604,-3.22112 c -1.325108,11.79884 2.871682,19.4558 6.814048,24.03363 z m 18.621679,-26.58 c -5.573267,-2.11319 -14.047062,-3.43844 -24.48806,1.59214 l 4.577971,3.35362 c 5.633961,-4.77018 14.945381,-4.45616 19.910089,-4.94576 z m -25.055908,22.25312 c -1.593521,-5.0157 -5.918558,-14.12199 -2.905419,-21.39441 l -4.693801,-3.13594 c -4.232976,5.25196 3.666943,20.35746 7.59922,24.53035 z m 18.792272,-26.82266 c -5.633116,-2.5142 -14.416294,-4.36574 -25.670608,0.67069 3.82e-4,0.0125 6.01e-4,0.0252 9.2e-4,0.038 l 4.891511,3.58324 c 5.848982,-4.9958 15.615488,-4.08019 20.777637,-4.29154 z m -26.433783,22.40927 c -1.596535,-5.13073 -6.016165,-14.54267 -2.576485,-21.86627 l -4.67721,-3.14312 c -3.90372,5.06859 3.32261,20.78436 7.253698,25.00939 z m 19.675748,-28.08405 c -5.104509,-1.1181 -23.343643,-2.9478 -25.835433,1.2725 l 4.703565,3.48359 c 5.764823,-5.41134 15.856973,-4.50869 21.131868,-4.75609 z m -27.930803,24.1733 c -1.60283,-5.38161 -6.228965,-15.47519 -1.78206,-22.86474 0.005,0.004 0.009,0.008 0.0132,0.0123 0.0116,-0.019 0.0228,-0.0373 0.034,-0.0565 l -0.015,-0.0102 -0.001,-0.002 -0.29527,-0.19742 c 0.0129,0.0115 0.0242,0.022 0.0365,0.0339 l -4.251765,-2.67835 c -3.74167,6.66202 2.301535,21.39518 6.262995,25.76186 z m 21.435991,-30.59648 c -6.237778,-1.05101 -22.220181,-2.99891 -26.202921,2.59704 l 4.32088,3.27506 c 5.49998,-6.41828 16.350557,-5.54497 21.882041,-5.8721 z m -29.532466,25.78614 c -1.46171,-5.46027 -5.85457,-15.77985 -1.05136,-23.05086 l -4.14675,-2.6972 c -4.26659,4.24751 1.80962,21.51606 5.19811,25.74806 z m 22.246132,-31.75277 c -6.260887,-0.87688 -18.265227,-4.21103 -25.870022,3.54788 l 4.08546,3.02512 c 5.291025,-6.6678 16.238399,-6.0894 21.784562,-6.573 z m -29.212042,27.92169 c -1.428,-5.58686 -5.848,-16.26485 -0.48275,-23.49347 l -4.1572,-2.84773 c -3.72894,6.20942 1.57827,22.39325 4.63995,26.3412 z m 23.232173,-33.16004 c -6.695588,-0.7773 -21.950993,-1.87454 -25.910443,4.42273 l 3.88235,2.82946 c 5.07403,-7.17896 16.371725,-6.69439 22.028093,-7.25219 z m -29.128763,28.99125 c -1.41788,-5.54729 -5.78493,-16.11353 -0.59464,-23.33904 l -5.48,-3.55143 c -3.16705,6.41585 3.53866,23.29958 6.07461,26.89047 z m 23.196805,-33.10975 c -6.54397,-0.78405 -23.326705,-2.20389 -26.962475,3.35866 l 5.04044,3.74454 c 5.12416,-7.02392 16.304935,-6.54927 21.922035,-7.1032 z m -29.830195,27.70471 c -1.37451,-5.3776 -5.52123,-15.47198 -1.04526,-22.66705 l -4.58998,-2.9898 c -3.52043,5.19015 2.25208,21.41742 5.63524,25.65685 z m 22.484255,-32.0933 c -5.774245,-0.84986 -20.777465,-3.55982 -26.155805,2.98036 l 4.72637,3.49168 c 5.31799,-6.36467 15.98613,-5.9353 21.429435,-6.47204 z m -28.543105,28.13691 c -1.37861,-5.39357 -5.54603,-15.53262 -1.00522,-22.73181 l -4.69351,-3.18341 c -3.73063,5.84302 1.98708,21.47543 5.69873,25.91522 z m 22.75544,-32.48003 c -5.86138,-0.84304 -22.69426,-3.08487 -26.55875,2.71408 l 5.07713,3.82289 c 5.29967,-6.43187 16.02009,-5.9983 21.48162,-6.53697 z m -28.85232,26.81215 c -1.30594,-5.10931 -5.11415,-14.4767 -1.65256,-21.56952 l -4.76124,-3.18107 c -2.62498,6.11087 2.06232,19.26484 6.4138,24.75059 z m 21.44394,-30.60667 c -5.76805,-2.18703 -14.48687,-3.74905 -25.43389,1.92419 0.92983,0.5597 3.20916,2.43614 4.84817,3.63672 5.53657,-5.41214 15.41681,-5.0512 20.58572,-5.56091 z"
         style="fill:#a4d45a;fill-opacity:1;stroke:none;stroke-width:0.05048701px;stroke-linecap:butt;stroke-linejoin:miter;stroke-opacity:1"
         inkscape:connector-curvature="0"
         inkscape:transform-center-x="8.184869"
         inkscape:transform-center-y="-38.439285" />
      <path
         inkscape:transform-center-y="-26.944334"
         inkscape:transform-center-x="-28.450588"
         inkscape:connector-curvature="0"
         style="fill:#a4d45a;fill-opacity:1;stroke:none;stroke-width:0.05048701px;stroke-linecap:butt;stroke-linejoin:miter;stroke-opacity:1"
         d="m -163.63311,441.81949 c 1.36848,-3.45976 2.97424,-9.36426 6.24542,-13.84735 1.69467,5.97933 5.4386,13.59437 4.16871,14.48274 1.89679,-0.52621 1.19338,-12.68998 -3.57311,-21.05506 -0.19528,1.39462 -0.32252,2.44066 -0.41501,3.25501 l 0.1441,-3.72092 0.008,-0.1994 c -0.10509,0.13591 -0.20519,0.27115 -0.30801,0.40629 -0.21876,0.18416 -0.38863,0.419 -0.5151,0.6989 -5.42643,7.54839 -6.19525,14.75805 -5.75532,19.97954 z m -3.51996,-7.36472 c 2.03928,-4.10313 4.74897,-11.87061 10.18158,-15.87936 l 0.25944,-6.68954 c -8.6306,8.04643 -10.43778,16.54831 -10.44102,22.5689 z m 18.32288,1.1175 c 0.71537,-5.86935 -0.007,-14.32523 -7.22133,-23.18496 l -0.54212,6.59274 c 4.59135,4.68998 6.28152,12.39535 7.76345,16.59222 z m -21.86729,-9.37453 c 2.79183,-4.25422 6.94102,-12.90195 14.03197,-15.50219 l 0.22691,-5.85571 c -6.81654,1.02146 -13.50638,15.75738 -14.25888,21.3579 z m 26.38793,1.60971 c 0.011,-6.16871 -1.862,-14.94647 -11.03317,-23.18737 -0.0251,0.0119 -0.048,0.0247 -0.0735,0.0357 l -0.51652,6.28472 c 6.4307,3.59901 9.41666,12.40126 11.62324,16.86694 z m -28.76054,-12.1254 c 3.54306,-3.65144 9.24645,-11.36187 16.69898,-12.58071 l 0.22462,-5.79422 c -10.75031,5.03977 -15.08278,12.62079 -16.9236,18.37493 z m 32.39385,1.9753 c -1.11282,-5.85564 -4.41389,-13.77173 -14.16134,-20.04137 l -0.46495,5.65583 c 7.012,2.30823 11.61303,10.40957 14.62629,14.38554 z m -32.06987,-9.72231 c 3.44222,-3.98092 8.94305,-12.42907 16.71763,-13.6632 l 0.21884,-5.64075 c -6.69014,-0.86211 -15.43555,13.77013 -16.93647,19.30395 z m 32.68989,1.99383 c -0.80228,-6.11634 -3.81651,-14.57132 -13.99421,-21.53119 -0.0105,0.007 -0.0212,0.0137 -0.0319,0.0206 l -0.49674,6.04315 c 7.31675,2.37355 11.64293,11.17737 14.52225,15.46713 z m -32.92343,-10.81518 c 3.5387,-4.04363 9.25061,-12.73223 17.29184,-13.62954 l 0.23363,-5.63036 c -6.36167,-0.67733 -15.97948,13.69984 -17.52547,19.2599 z m 34.22706,2.08736 c -1.71593,-4.93575 -9.69306,-21.43968 -14.59338,-21.35701 l -0.51007,5.83084 c 7.62696,2.08454 12.13446,11.15916 15.10345,15.52617 z m -35.20986,-11.16888 c 3.74926,-4.18018 9.93424,-13.40122 18.55834,-13.47444 -8e-4,0.006 -0.002,0.0119 -0.004,0.0177 0.0223,-4e-5 0.0437,-6e-5 0.0659,-5.6e-4 l 8.5e-4,-0.0181 0.001,-0.002 0.0139,-0.35492 c -0.003,0.017 -0.006,0.0321 -0.01,0.0488 l 0.0599,-5.02469 c -7.6352,0.29396 -17.03405,13.14885 -18.6849,18.80886 z m 37.28907,2.27412 c -2.36568,-5.86669 -9.06206,-20.50875 -15.91458,-20.97769 l -0.53241,5.3956 c 8.3468,1.33228 13.27588,11.03805 16.44699,15.58209 z m -37.42213,-11.69085 c 3.8901,-4.10101 10.38969,-13.24137 19.09905,-12.94889 l 0.13089,-4.94503 c -5.85151,-1.41597 -17.3943,12.79274 -19.22994,17.89392 z m 38.69831,2.36012 c -2.5262,-5.79535 -5.9609,-17.7713 -16.55103,-20.19677 l -0.44245,5.06424 c 8.45024,1.0237 13.68131,10.65779 16.99348,15.13253 z m -39.07496,-10.3011 c 4.01563,-4.13847 10.80655,-13.48937 19.77365,-12.69564 l 0.25374,-5.03264 c -7.24274,0.0682 -18.26299,13.05419 -20.02739,17.72828 z m 40.41346,2.4648 c -2.83837,-6.11382 -9.87974,-19.6914 -17.31789,-19.77379 l -0.38188,4.78881 c 8.7725,0.57145 14.26673,10.45509 17.69977,14.98498 z m -39.94311,-9.67086 c 3.98719,-4.10916 10.71053,-13.35649 19.5835,-12.71027 l 0.16192,-6.52816 c -7.1249,0.65506 -18.01051,15.19915 -19.74544,19.2384 z m 40.35209,2.46094 c -2.75334,-5.9881 -10.31832,-21.03627 -16.96095,-21.22692 l -0.55636,6.25444 c 8.66655,0.69526 14.1081,10.47404 17.51731,14.97248 z m -39.21322,-10.94147 c 3.86523,-3.98345 10.30156,-12.79625 18.77508,-12.74301 l 0.14855,-5.47583 c -6.26488,-0.28705 -17.07886,13.11831 -18.92363,18.21884 z m 39.11309,2.38504 c -2.29478,-5.3664 -7.82958,-19.57226 -16.21669,-20.73712 l -0.50505,5.85452 c 8.20595,1.20518 13.41805,10.52331 16.72174,14.8826 z m -38.90864,-9.61836 c 3.87669,-3.9953 10.34028,-12.8491 18.85121,-12.74274 l 0.25946,-5.66531 c -6.9313,-0.12486 -17.26688,12.92276 -19.11067,18.40805 z m 39.58453,2.41398 c -2.34615,-5.4371 -9.23667,-20.9578 -16.2004,-21.21981 l -0.60396,6.32669 c 8.25365,1.15443 13.4895,10.51932 16.80436,14.89312 z m -37.94108,-10.5746 c 3.67239,-3.78473 9.66603,-11.92885 17.52199,-12.68681 l 0.22204,-5.72183 c -6.58149,0.95766 -15.3432,11.83103 -17.74403,18.40864 z m 37.30192,2.27557 c -1.15172,-6.06028 -4.37909,-14.30903 -14.93893,-20.67398 0.009,1.08525 -0.39861,4.00931 -0.565,6.03417 7.5083,1.88956 12.36675,10.5003 15.50393,14.63981 z"
         id="path3019" />
      <path
         id="path3021"
         d="m -269.46054,354.77286 c 3.69565,-0.42986 9.65774,-1.80646 15.15471,-1.04351 -4.46764,4.32025 -9.40776,11.21959 -10.79095,10.5206 1.36046,1.42263 11.74633,-4.94806 16.86392,-13.10308 -1.32123,0.48728 -2.30314,0.86972 -3.06446,1.17323 l 3.34693,-1.63222 0.17948,-0.0872 c -0.16944,-0.0284 -0.33593,-0.0526 -0.50363,-0.0793 -0.2657,-0.1057 -0.55296,-0.14436 -0.85939,-0.12346 -9.21701,-1.21287 -15.93349,1.51828 -20.32655,4.37458 z m 4.82543,-6.58364 c 4.57972,-0.14294 12.70536,-1.42758 18.80623,1.46423 l 6.01734,-2.93411 c -11.17076,-3.80085 -19.51683,-1.37372 -24.82357,1.46988 z m 7.67808,16.67404 c 5.51016,-2.14458 12.61976,-6.77894 17.01591,-17.3248 l -6.06567,2.63925 c -1.96198,6.26316 -7.95268,11.39548 -10.95024,14.68555 z m -2.07792,-23.70111 c 5.06865,0.44876 14.65052,0.0164 20.2943,5.03544 l 5.26719,-2.56855 c -4.12285,-5.52366 -20.27067,-4.45165 -25.56149,-2.46689 z m 11.0574,24.01349 c 5.44093,-2.90678 12.29016,-8.70723 15.21585,-20.68484 -0.0224,-0.0163 -0.0445,-0.0303 -0.0662,-0.0479 l -5.78215,2.51618 c -0.13102,7.36815 -6.47565,14.16089 -9.36747,18.21659 z m -2.91295,-31.07585 c 4.89267,1.39571 14.38341,2.77603 18.98088,8.76677 l 5.21193,-2.5415 c -9.52353,-7.09018 -18.25209,-7.32366 -24.19281,-6.22527 z m 13.57477,29.47861 c 4.63372,-3.74905 10.04851,-10.40049 10.96471,-21.95392 l -5.20361,2.26429 c 1.28122,7.27011 -3.6822,15.15463 -5.7611,19.68963 z m -6.59511,-32.85581 c 5.13532,1.15108 15.18036,2.00412 19.94356,8.27142 l 5.07397,-2.47402 c -2.40334,-6.30279 -19.43164,-7.09113 -25.01753,-5.7974 z m 13.6984,29.74824 c 5.01028,-3.59867 11.03553,-10.25213 12.35653,-22.51102 -0.0111,-0.006 -0.0223,-0.0118 -0.0333,-0.0183 l -5.55994,2.4194 c 1.36774,7.56954 -4.34463,15.54399 -6.76336,20.10932 z m -6.03564,-34.12464 c 5.2362,1.20645 15.5929,2.13181 20.18538,8.79332 l 5.0718,-2.45609 c -2.41086,-5.92599 -19.62686,-7.60365 -25.25718,-6.33723 z m 14.34274,31.14698 c 3.538,-3.84559 14.30941,-18.67768 11.91977,-22.95664 l -5.37917,2.30727 c 1.76908,7.70624 -4.09618,15.9685 -6.5406,20.64937 z m -6.80497,-36.30661 c 5.45608,1.32742 16.50562,2.41791 20.64751,9.98263 -0.005,0.002 -0.0116,0.003 -0.0175,0.005 0.0106,0.0197 0.0207,0.0385 0.0317,0.0578 l 0.0163,-0.008 0.002,-3e-5 0.31932,-0.15554 c -0.0164,0.005 -0.0311,0.01 -0.0477,0.0143 l 4.45596,-2.32281 c -3.86885,-6.58899 -19.63994,-8.79343 -25.40791,-7.57216 z m 15.62585,33.93345 c 4.05114,-4.85828 13.78743,-17.68154 10.96087,-23.94153 l -5.0062,2.08182 c 2.77228,7.98489 -3.44982,16.91704 -5.95467,21.85971 z m -7.39095,-38.50281 c 5.4529,1.48898 16.58009,2.89483 20.44003,10.7076 l 4.41933,-2.22261 c -1.51879,-5.82566 -19.49645,-9.27923 -24.85936,-8.48499 z m 16.21634,35.21591 c 3.91238,-4.966 12.84144,-13.65463 9.97184,-24.13315 l -4.67169,2.00443 c 3.0931,7.93015 -2.92306,17.09452 -5.30015,22.12872 z m -9.397,-39.30218 c 5.54526,1.58187 16.9957,3.1449 20.53581,11.42177 l 4.55461,-2.15578 c -3.48436,-6.34989 -20.13754,-9.92109 -25.09042,-9.26599 z m 16.93499,36.77674 c 4.04542,-5.39164 12.68062,-18.01562 9.23656,-24.6089 l -4.40034,1.92758 c 3.64396,8.0003 -2.46767,17.51453 -4.83622,22.68132 z m -10.36281,-39.76921 c 5.50599,1.57067 16.83323,3.12311 20.45882,11.2473 l 5.82901,-2.94375 c -3.94578,-5.96859 -21.90826,-8.6845 -26.2878,-8.30358 z m 16.90939,36.72084 c 3.97484,-5.25726 13.65832,-19.03792 10.68578,-24.98139 l -5.77431,2.46676 c 3.48477,7.96547 -2.55938,17.38372 -4.91147,22.51463 z m -8.89809,-39.72676 c 5.33756,1.52262 16.1462,3.0276 20.10544,10.51944 l 4.89541,-2.45799 c -2.709,-5.65618 -19.6342,-8.84735 -25.00085,-8.06145 z m 16.39048,35.59317 c 3.64381,-4.55926 13.54491,-16.15274 10.60606,-24.094 l -5.39765,2.3229 c 2.81767,7.80069 -2.92904,16.79895 -5.20841,21.7711 z m -9.91998,-38.83283 c 5.35341,1.52712 16.21107,3.03674 20.14119,10.58667 l 5.11482,-2.44985 c -3.167,-6.16674 -19.55079,-9.10549 -25.25601,-8.13682 z m 16.58787,36.02228 c 3.68182,-4.63796 14.10056,-18.0477 11.03909,-24.30786 l -5.86048,2.45898 c 2.88495,7.81872 -2.89175,16.86003 -5.17861,21.84888 z m -8.61992,-38.43234 c 5.07127,1.44666 15.0814,2.87769 19.4635,9.4418 l 5.14692,-2.50955 c -3.9555,-5.34669 -17.67929,-7.92653 -24.6104,-6.93229 z m 15.63065,33.94546 c 4.79566,-3.88008 10.53841,-10.62387 11.15456,-22.93819 -0.95205,0.52101 -3.72137,1.54429 -5.58431,2.355 1.88479,7.5095 -3.40579,15.86169 -5.57022,20.58321 z"
         style="fill:#a4d45a;fill-opacity:1;stroke:none;stroke-width:0.05048701px;stroke-linecap:butt;stroke-linejoin:miter;stroke-opacity:1"
         inkscape:connector-curvature="0"
         inkscape:transform-center-x="-36.348963"
         inkscape:transform-center-y="9.6882871" />
      <path
         style="fill:#502d16;fill-opacity:1;stroke:none;stroke-width:0.26458332px;stroke-linecap:butt;stroke-linejoin:miter;stroke-opacity:1"
         d="m -168.95536,298.70091 c 0,0 13.65301,6.1164 12.89705,9.32919 -0.75595,3.2128 -20.83455,9.7586 -20.83455,9.7586 0,0 19.56704,-3.59522 21.05597,-4.24158 1.92158,-0.83416 -0.37969,21.14831 -0.26727,21.25051 -0.0783,-0.0392 3.61748,-17.12637 6.60901,-17.32925 3.3449,-0.22684 15.8711,20.35306 16.44753,20.35306 0.375,-0.48214 -10.2757,-21.12739 -8.87179,-23.0269 4.7701,-1.73284 5.2301,-0.75185 15.76986,3.9391 -8.08816,-9.00102 -13.21147,-7.35013 -12.7567,-10.01637 -1.5119,-3.02381 26.45833,-10.39434 26.45833,-10.39434 0,0 -26.8363,7.37053 -26.64732,5.29167 0.18899,-2.07887 13.41816,-18.33185 13.41816,-18.33185 0,0 -15.30804,17.00893 -16.63095,17.38691 -1.32292,0.37797 -4.91369,-10.96131 -5.10268,-21.92262 -0.18899,-10.96131 -1.50634,20.75626 -3.96319,21.51221 -2.45684,0.75596 -17.58146,-3.55834 -17.58146,-3.55834 z"
         id="path3023"
         inkscape:connector-curvature="0"
         sodipodi:nodetypes="cccscsccccccccscc" />
      <path
         id="path3025"
         d="m -248.91031,296.42011 c 1.94985,0.76905 5.35428,1.73727 7.72339,3.4404 -3.79665,0.58607 -8.79861,2.08046 -9.20271,1.4497 0.11905,0.91355 7.5541,1.01584 13.11746,-0.93417 -0.82347,-0.14185 -1.44311,-0.23926 -1.9262,-0.31194 l 2.23663,0.20077 0.11981,0.0109 c -0.0709,-0.0545 -0.14242,-0.10655 -0.21366,-0.15966 -0.0885,-0.10977 -0.21254,-0.1984 -0.3688,-0.26795 -3.99757,-2.82925 -8.27982,-3.44922 -11.48592,-3.42806 z m 4.82693,-1.39767 c 2.26868,1.10845 6.68445,2.66393 8.53929,5.36977 l 4.02104,0.36113 c -3.96215,-4.35856 -8.9172,-5.51451 -12.56033,-5.7309 z m -2.6025,8.60377 c 3.47672,0.54692 8.66988,0.50795 14.78992,-2.57917 l -3.93271,-0.49102 c -3.3209,1.99857 -8.16161,2.5209 -10.85722,3.07021 z m 7.97199,-9.98112 c 2.28103,1.46883 7.07816,3.73479 7.90629,7.17269 l 3.51982,0.31602 c 0.0984,-3.25209 -8.11596,-6.93386 -11.42611,-7.48871 z m -3.74823,12.39079 c 3.73195,0.22532 9.24087,-0.34496 15.19212,-4.37727 -0.005,-0.0122 -0.009,-0.0237 -0.0141,-0.0358 l -3.74901,-0.46796 c -2.85404,2.90519 -8.4948,3.99965 -11.42925,4.8812 z m 10.3614,-13.13475 c 1.83727,1.80171 5.90378,4.76741 5.85795,8.32656 l 3.48284,0.31275 c -1.91977,-5.25122 -6.05211,-7.56555 -9.34079,-8.63931 z m -4.60083,15.21098 c 3.66063,-0.316 8.79821,-1.59073 13.61711,-5.96524 l -3.37385,-0.42119 c -2.13399,3.22546 -7.52036,5.10683 -10.24326,6.38642 z m 9.25502,-14.78167 c 2.04725,1.7659 6.58152,4.66237 6.51105,8.37399 l 3.3906,0.30454 c 1.22502,-3.12524 -6.71056,-7.77299 -9.90165,-8.67853 z m -4.64317,15.34996 c 3.78574,-0.16019 9.21929,-1.28036 14.5012,-5.83308 -0.003,-0.005 -0.006,-0.0109 -0.01,-0.0156 l -3.60492,-0.45 c -2.20557,3.3669 -7.98813,5.09353 -10.88687,6.29872 z m 10.00613,-15.14531 c 2.07504,1.81365 6.73262,4.81828 6.4303,8.64366 l 3.38275,0.31116 c 1.07868,-2.97688 -6.61084,-8.02709 -9.81305,-8.95482 z m -4.86141,16.07179 c 3.16736,-0.63333 13.9936,-3.80747 14.45872,-6.12209 l -3.47501,-0.44868 c -2.06328,3.52353 -8.0288,5.32604 -10.98371,6.57078 z m 10.46056,-16.21131 c 2.13556,1.91785 7.06561,5.16465 6.20331,9.23559 -0.004,-3.1e-4 -0.007,-0.002 -0.01,-0.003 -0.002,0.0104 -0.005,0.0206 -0.007,0.0311 l 0.0108,6.7e-4 9e-4,5.3e-4 0.21332,0.0192 c -0.01,-0.002 -0.0188,-0.004 -0.0281,-0.007 l 3.03448,0.20757 c 0.62477,-3.61231 -6.1665,-8.50491 -9.41822,-9.48566 z m -5.29631,17.50958 c 3.79902,-0.90661 13.36389,-3.54301 14.36807,-6.75888 l -3.20928,-0.44371 c -1.68372,3.88997 -8.07551,5.86882 -11.15879,7.20259 z m 11.00897,-17.23629 c 2.07286,1.98148 6.92101,5.37382 5.82844,9.47191 l 2.97882,0.23823 c 1.47204,-2.70986 -5.91314,-8.66214 -8.80726,-9.71014 z m -5.49648,18.17133 c 3.77273,-0.9849 11.38127,-2.17778 13.96238,-7.08701 l -3.01821,-0.38945 c -1.50783,3.94979 -7.888,6.07366 -10.94416,7.47646 z m 10.34171,-18.0656 c 2.08233,2.04202 7.02727,5.5793 5.60424,9.78111 l 3.01892,0.29928 c 0.72014,-3.41909 -5.98004,-9.08124 -8.62316,-10.08039 z m -5.74014,18.97669 c 3.99827,-1.1208 12.95521,-3.95793 13.78701,-7.46386 l -2.85788,-0.35105 c -1.26804,4.11795 -7.82689,6.35706 -10.92913,7.81491 z m 10.05158,-18.49764 c 2.06756,2.02756 6.95692,5.52928 5.63304,9.69196 l 3.9336,0.30936 c 0.35258,-3.38449 -7.30466,-9.0387 -9.56666,-10.00131 z m -5.73136,18.94786 c 3.91324,-1.08515 13.81519,-4.11681 14.62887,-7.24358 l -3.72649,-0.48567 c -1.33185,4.06353 -7.82167,6.28154 -10.90238,7.72925 z m 10.74377,-18.10794 c 2.00432,1.96553 6.66089,5.31634 5.73788,9.31173 l 3.29818,0.2655 c 0.83228,-2.94516 -6.14333,-8.52495 -9.03606,-9.57723 z m -5.55516,18.36608 c 3.4888,-0.89103 12.66755,-2.99503 14.25421,-6.90998 l -3.48988,-0.44717 c -1.59199,3.82804 -7.77897,5.95424 -10.76435,7.35717 z m 9.91103,-18.01149 c 2.01028,1.97139 6.68879,5.3365 5.72973,9.34763 l 3.40119,0.32458 c 0.80425,-3.26531 -6.00525,-8.60666 -9.13092,-9.67221 z m -5.62224,18.58744 c 3.53699,-0.91272 13.65399,-3.60935 14.54462,-6.88506 l -3.7652,-0.51072 c -1.5663,3.85238 -7.78403,5.98816 -10.77942,7.39578 z m 10.38801,-17.52091 c 1.90432,1.86748 6.20302,4.98539 5.8356,8.71858 l 3.43934,0.30896 c 0.11235,-3.13894 -5.54679,-7.66023 -9.27494,-9.02754 z m -5.29852,17.51559 c 3.78855,-0.32704 9.11972,-1.55513 14.08169,-6.30948 -0.65771,-0.0344 -2.3844,-0.33113 -3.59228,-0.48188 -1.93283,3.47453 -7.65451,5.45916 -10.48941,6.79136 z"
         style="fill:#8ab24c;fill-opacity:1;stroke:none;stroke-width:0.02715213px;stroke-linecap:butt;stroke-linejoin:miter;stroke-opacity:1"
         inkscape:connector-curvature="0" />
      <path
         inkscape:connector-curvature="0"
         style="fill:#8ab24c;fill-opacity:1;stroke:none;stroke-width:0.02715213px;stroke-linecap:butt;stroke-linejoin:miter;stroke-opacity:1"
         d="m -180.76107,227.49978 c 0.29016,2.07585 1.12283,5.51595 0.80621,8.41648 -2.37872,-3.01657 -6.14134,-6.63534 -5.79113,-7.29755 -0.73667,0.55325 2.83349,7.07585 7.26903,10.95909 -0.2818,-0.78665 -0.50196,-1.37399 -0.67645,-1.83029 l 0.926,2.04581 0.0495,0.10966 c 0.0125,-0.0885 0.0227,-0.17642 0.0338,-0.26457 0.052,-0.13106 0.0681,-0.28266 0.0517,-0.45292 0.49545,-4.87234 -1.07239,-8.90519 -2.66871,-11.68571 z m 3.59228,3.51401 c 0.15163,2.52043 0.97082,7.12993 -0.47176,10.07628 l 1.66461,3.67807 c 1.84416,-5.59417 0.41177,-10.47648 -1.19285,-13.75435 z m -8.77048,1.9689 c 1.23499,3.29568 3.82476,7.79718 9.52413,11.60538 l -1.50807,-3.66511 c -3.37417,-1.90726 -6.21124,-5.86407 -8.01608,-7.94027 z m 12.6121,2.02741 c -0.15601,2.70854 0.23239,7.99969 -2.35276,10.41256 l 1.45721,3.21956 c 2.87939,-1.51488 2.04166,-10.47754 0.89555,-13.63212 z m -12.63099,2.83533 c 1.64056,3.35959 4.84824,7.87447 11.28734,11.07056 0.008,-0.0104 0.0162,-0.0195 0.0242,-0.0299 l -1.43773,-3.49385 c -3.93362,-1.05465 -7.66249,-5.42633 -9.87409,-7.54693 z m 16.53332,2.55534 c -0.66418,2.48608 -1.24449,7.48559 -4.36531,9.19735 l 1.44185,3.18576 c 3.6264,-4.25559 3.60729,-8.99184 2.92346,-12.38311 z m -15.50559,3.48111 c 2.07668,3.03108 5.71483,6.87602 11.89452,8.91797 l -1.29381,-3.14425 c -3.85804,-0.27023 -8.14672,-4.03318 -10.6007,-5.77372 z m 17.42246,0.78168 c -0.52967,2.65124 -0.8195,8.02387 -4.08517,9.78922 l 1.4036,3.10143 c 3.32344,-0.47172 3.4638,-9.66712 2.68157,-12.89065 z m -15.64742,3.51266 c 2.00262,3.21667 5.65189,7.39532 12.21459,9.75261 0.003,-0.005 0.007,-0.0106 0.009,-0.0164 l -1.38246,-3.35958 c -4.01639,-0.26292 -8.36535,-4.44691 -10.84111,-6.37715 z m 18.10868,1.25656 c -0.55755,2.69893 -0.88085,8.23213 -4.35966,9.85164 l 1.39397,3.09785 c 3.12227,-0.52609 3.73408,-9.70536 2.96569,-12.94949 z m -16.38318,3.67792 c 2.11015,2.44552 10.20146,10.30767 12.44526,9.5734 l -1.31966,-3.24584 c -4.08272,-0.062 -8.58778,-4.36789 -11.12561,-6.32755 z m 19.26028,1.12751 c -0.61847,2.8029 -1.01848,8.69248 -4.98665,9.94537 -0.002,-0.004 -0.002,-0.007 -0.002,-0.0102 -0.01,0.003 -0.0204,0.006 -0.0305,0.009 l 0.005,0.01 -1e-5,10e-4 0.0883,0.19515 c -0.003,-0.01 -0.006,-0.0183 -0.008,-0.0279 l 1.31275,2.74369 c 3.45202,-1.23395 4.36871,-9.55372 3.6221,-12.86704 z m -17.84882,4.00696 c 2.65892,2.86088 9.66133,9.88965 12.95498,9.18109 l -1.19321,-3.01207 c -4.2149,0.44878 -9.08326,-4.14142 -11.76177,-6.16902 z m 20.42244,1.10045 c -0.70472,2.77964 -1.27173,8.66955 -5.37687,9.73536 l 1.25867,2.71033 c 3.08342,-0.0523 4.63027,-9.41055 4.1182,-12.44569 z m -18.5234,4.1584 c 2.71414,2.79946 7.49713,8.83567 13.04096,8.66644 l -1.14641,-2.81904 c -4.18041,0.63133 -9.16929,-3.87738 -11.89454,-5.84739 z m 20.81597,0.11145 c -0.75276,2.81767 -1.39831,8.86317 -5.75637,9.69236 l 1.22525,2.77528 c 3.33077,-1.05584 4.96218,-9.67505 4.53112,-12.46764 z m -19.34439,4.34265 c 2.94344,2.92891 9.82139,9.32969 13.2827,8.32831 l -1.10093,-2.66058 c -4.20878,0.92284 -9.38591,-3.6847 -12.18177,-5.66773 z m 21.04927,-0.35375 c -0.74744,2.79771 -1.38939,8.77732 -5.66459,9.67356 l 1.66665,3.57648 c 3.11974,-1.35877 4.27322,-10.80721 3.99792,-13.25005 z m -19.31497,4.33611 c 2.87056,2.87244 10.38294,10.00011 13.50527,9.16957 l -1.41123,-3.48296 c -4.19281,0.8405 -9.31761,-3.71733 -12.09404,-5.68661 z m 21.0507,0.44061 c -0.72457,2.71212 -1.34972,8.41481 -5.282,9.57768 l 1.3921,3.00176 c 2.97339,-0.72497 4.39756,-9.54342 3.8899,-12.57944 z m -18.72181,4.20316 c 2.49268,2.5985 8.8416,9.55317 13.03048,9.00761 l -1.3283,-3.25805 c -4.11584,0.49815 -9.01167,-3.84124 -11.7022,-5.74957 z m 20.5569,-0.23683 c -0.72673,2.72019 -1.35353,8.44902 -5.31726,9.58826 l 1.39137,3.1205 c 3.23829,-0.90694 4.53664,-9.46343 3.92589,-12.70876 z m -18.94751,4.25371 c 2.53527,2.62977 9.86185,10.10953 13.15171,9.27267 l -1.40848,-3.52898 c -4.12439,0.53249 -9.04369,-3.82895 -11.74323,-5.74369 z m 20.36459,0.41982 c -0.68843,2.57682 -1.28697,7.85336 -4.71756,9.37083 l 1.42374,3.14603 c 2.78776,-1.44705 3.9384,-8.59855 3.29382,-12.51686 z m -17.85514,4.008 c 2.14924,3.137 5.84207,7.17341 12.42283,9.15296 -0.29375,-0.58947 -0.88525,-2.2386 -1.34848,-3.36426 -3.97586,0.0275 -8.51945,-3.97655 -11.07435,-5.7887 z"
         id="path3027" />
      <path
         id="path3029"
         d="m -110.47802,219.36712 c -1.22723,1.6992 -3.00702,4.7586 -5.24298,6.63312 0.37072,-3.82368 0.15929,-9.03981 0.87038,-9.27544 -0.91463,-0.11048 -2.85182,7.06848 -2.3377,12.94124 0.34102,-0.76284 0.58859,-1.33916 0.77844,-1.7893 l -0.74747,2.11758 -0.0402,0.11341 c 0.0703,-0.0553 0.13848,-0.11166 0.20751,-0.16757 0.12822,-0.0587 0.24477,-0.1569 0.35077,-0.29115 3.72969,-3.17405 5.38907,-7.1701 6.16117,-10.28192 z m 0.16097,5.02263 c -1.63489,1.92424 -4.23375,5.8184 -7.31415,6.94674 l -1.34399,3.80694 c 5.20278,-2.76165 7.54782,-7.27712 8.65814,-10.75368 z m -7.69332,-4.64872 c -1.38945,3.2336 -2.63553,8.27519 -1.15722,14.96846 l 1.44801,-3.68924 c -1.11555,-3.71191 -0.42495,-8.53149 -0.2908,-11.27923 z m 7.70049,10.19205 c -1.98715,1.8471 -5.36871,5.93516 -8.90462,5.88767 l -1.17637,3.33244 c 3.12682,0.89931 8.72504,-6.14988 10.08099,-9.22011 z m -11.07955,-6.69512 c -1.14093,3.56043 -1.95025,9.03933 0.48564,15.80272 0.013,-0.002 0.0253,-0.002 0.0382,-0.005 l 1.38025,-3.51696 c -2.10944,-3.48366 -1.77544,-9.2199 -1.90417,-12.2812 z m 10.16553,13.28694 c -2.2,1.33483 -6.07895,4.54193 -9.5163,3.61764 l -1.16406,3.29742 c 5.56282,-0.56198 8.82691,-3.99392 10.68036,-6.91506 z m -13.60143,-8.21844 c -0.59877,3.62512 -0.63372,8.91837 2.41369,14.66915 l 1.24219,-3.165 c -2.59778,-2.86514 -3.08914,-8.54944 -3.65587,-11.50414 z m 12.03484,12.62203 c -2.2172,1.54713 -6.14472,5.22461 -9.72371,4.23875 l -1.1333,3.21007 c 2.72539,1.95961 9.19069,-4.58065 10.85701,-7.44882 z m -13.72563,-8.29382 c -0.78068,3.70782 -1.03855,9.24964 2.06708,15.49312 0.006,-0.002 0.0124,-0.003 0.0179,-0.005 l 1.32722,-3.38179 c -2.71713,-2.96945 -2.96061,-8.99937 -3.41177,-12.10608 z m 12.20152,13.43973 c -2.27034,1.56226 -6.33315,5.33247 -9.96504,4.09383 l -1.13779,3.20082 c 2.61781,1.78113 9.41225,-4.4212 11.10283,-7.29465 z m -14.3711,-8.68375 c -0.16935,3.22561 0.22983,14.50051 2.35761,15.5234 l 1.29384,-3.25621 c -2.90407,-2.87035 -3.17585,-9.09629 -3.65146,-12.2672 z m 13.12208,14.14358 c -2.38627,1.59515 -6.75108,5.56951 -10.48249,3.72756 0.001,-0.004 0.003,-0.007 0.005,-0.009 -0.009,-0.005 -0.0189,-0.01 -0.0282,-0.0146 l -0.003,0.0107 -6.9e-4,7.2e-4 -0.0713,0.20197 c 0.005,-0.009 0.008,-0.0173 0.0135,-0.0257 l -0.95129,2.88898 c 3.34571,1.4984 9.76537,-3.87252 11.51955,-6.78085 z m -15.65674,-9.46059 c -0.0607,3.90523 0.12924,13.82497 2.99704,15.593 L -127,254.66668 c -3.35297,-2.59313 -3.69024,-9.27573 -4.22036,-12.59304 z m 13.97966,14.92836 c -2.43242,1.51868 -6.91801,5.3777 -10.6188,3.30591 l -0.96725,2.82747 c 2.26187,2.09623 9.8551,-3.58816 11.58605,-6.13338 z m -16.24847,-9.81814 c 0.0216,3.89912 -0.70346,11.56639 3.41528,15.28102 l 1.12352,-2.82824 c -3.45443,-2.43748 -3.93507,-9.14467 -4.53879,-12.45276 z m 14.94819,14.48685 c -2.49341,1.51287 -7.14338,5.42983 -10.86297,3.01222 l -1.03632,2.85122 c 3.13494,1.54305 10.27773,-3.54937 11.89929,-5.86344 z m -16.96859,-10.25334 c 0.0976,4.15125 0.63232,13.53156 3.82379,15.20426 l 1.04668,-2.6824 c -3.67665,-2.24669 -4.22479,-9.15551 -4.87047,-12.52186 z m 15.43855,14.31251 c -2.47576,1.50215 -7.07753,5.37405 -10.78371,3.06218 l -1.27221,3.73502 c 3.19227,1.17834 10.56398,-4.84341 12.05591,-6.79722 z m -16.94283,-10.2377 c 0.0841,4.06005 0.57367,14.40412 3.40222,15.96553 l 1.39185,-3.49074 c -3.60813,-2.29509 -4.1529,-9.1318 -4.79407,-12.47479 z m 14.88982,14.88689 c -2.40002,1.45619 -6.798,5.13983 -10.4412,3.25775 l -1.07263,3.13017 c 2.64799,1.53455 9.77909,-3.84512 11.51383,-6.38792 z m -16.42266,-9.92315 c 8.8e-4,3.60079 -0.22958,13.01477 3.1716,15.52004 l 1.29605,-3.27102 c -3.31564,-2.48892 -3.84631,-9.00949 -4.46766,-12.24904 z m 15.00223,14.05616 c -2.40717,1.46052 -6.82443,5.16188 -10.47397,3.24097 l -1.15533,3.21538 c 2.96512,1.58652 9.8241,-3.69113 11.6293,-6.45635 z m -16.62056,-10.04287 c 0.01,3.65284 0.1218,14.12246 3.07566,15.79526 l 1.42569,-3.52206 c -3.34559,-2.47007 -3.87794,-9.0228 -4.50135,-12.2732 z m 14.40895,14.39703 c -2.28029,1.38355 -6.36414,4.77801 -9.89061,3.49908 l -1.14963,3.25621 c 3.01372,0.88486 8.79372,-3.48087 11.04024,-6.75529 z m -15.66202,-9.46421 c -0.6197,3.7518 -0.74769,9.22109 2.63242,15.20441 0.19593,-0.6288 0.91031,-2.22853 1.35499,-3.36165 -2.88887,-2.73177 -3.39737,-8.76651 -3.98739,-11.84276 z"
         style="fill:#8ab24c;fill-opacity:1;stroke:none;stroke-width:0.02715213px;stroke-linecap:butt;stroke-linejoin:miter;stroke-opacity:1"
         inkscape:connector-curvature="0" />
      <path
         inkscape:connector-curvature="0"
         style="fill:#8ab24c;fill-opacity:1;stroke:none;stroke-width:0.02715213px;stroke-linecap:butt;stroke-linejoin:miter;stroke-opacity:1"
         d="m -58.93835,335.0796 c -1.73402,-1.17752 -4.843668,-2.86798 -6.782138,-5.04873 3.832807,0.25986 9.040629,-0.10251 9.296749,0.60146 0.08395,-0.91745 -7.148089,-2.64597 -13.003499,-1.96203 0.77239,0.31879 1.35564,0.54957 1.81109,0.72631 l -2.13834,-0.68585 -0.11452,-0.0369 c 0.0573,0.0687 0.11562,0.13519 0.17351,0.20257 0.0624,0.12647 0.16392,0.24013 0.30118,0.3422 3.28071,3.63622 7.323125,5.17921 10.455995,5.86089 z m -5.015868,0.30632 c -1.97076,-1.57849 -5.93854,-4.06351 -7.15559,-7.10995 l -3.84426,-1.2332 c 2.91113,5.12064 7.4926,7.33396 10.99985,8.34315 z m 4.424028,-7.82469 c -3.272473,-1.29524 -8.348028,-2.39483 -14.995688,-0.72335 l 3.72962,1.34059 c 3.67805,-1.22255 8.515606,-0.67178 11.266078,-0.61725 z m -9.964818,7.99236 c -1.90386,-1.93284 -6.08812,-5.19462 -6.14302,-8.73042 l -3.36511,-1.07939 c -0.8084,3.15154 6.39992,8.54332 9.50813,9.80981 z m 6.371519,-11.26875 c -3.591969,-1.03737 -9.092009,-1.68772 -15.782029,0.94297 0.002,0.0129 0.003,0.0252 0.006,0.038 l 3.55545,1.27785 c 3.42112,-2.20942 9.16463,-2.04164 12.220917,-2.25895 z m -12.987049,10.54597 c -1.39796,-2.16043 -4.71603,-5.9449 -3.89165,-9.40757 l -3.32974,-1.0681 c 0.72281,5.54421 4.24782,8.70757 7.22139,10.47567 z m 7.82119,-13.83368 c -3.64093,-0.49356 -8.93298,-0.37524 -14.59311,2.8374 l 3.19964,1.15003 c 2.78872,-2.67965 8.45641,-3.33538 11.39346,-3.98742 z m -12.26829,12.39524 c -1.61067,-2.17147 -5.40033,-5.99087 -4.5185,-9.59691 l -3.24154,-1.03988 c -1.87988,2.78099 4.84483,9.05421 7.76004,10.63679 z m 7.89294,-13.96001 c -3.72886,-0.673 -9.27583,-0.7703 -15.42677,2.51479 0.002,0.006 0.003,0.0123 0.006,0.0178 l 3.4188,1.22875 c 2.88954,-2.80197 8.90988,-3.21993 12.00223,-3.76085 z m -13.08082,12.58553 c -1.62734,-2.22415 -5.5136,-6.1761 -4.38063,-9.84233 l -3.23242,-1.04464 c -1.704592,2.66828 4.69186,9.2803 7.61305,10.88697 z m 8.26402,-14.6165 c -3.22916,-0.0759 -14.48777,0.64957 -15.44863,2.80608 l 3.29231,1.19902 c 2.78506,-2.98596 9.00052,-3.43789 12.15633,-4.00511 z m -13.75772,13.52609 c -1.66357,-2.33909 -5.762642,-6.587 -4.029502,-10.37018 0.004,8.9e-4 0.007,0.003 0.009,0.005 0.005,-0.009 0.009,-0.0192 0.0138,-0.0286 l -0.0108,-0.003 -7.4e-4,-6.7e-4 -0.20394,-0.0654 c 0.009,0.005 0.0175,0.007 0.0261,0.0127 l -2.91532,-0.86724 c -1.4009,3.38769 4.153642,9.64915 7.111542,11.31839 z m 9.00331,-15.9241 c -3.90535,0.0524 -13.815432,0.52947 -15.499692,3.44726 l 3.03412,1.13594 c 2.494962,-3.42664 9.165002,-3.95725 12.465572,-4.5832 z m -14.517352,14.40603 c -1.58847,-2.38743 -5.57574,-6.75941 -3.61197,-10.51863 l -2.85429,-0.88498 c -2.02986,2.32161 3.87199,9.74708 6.46626,11.40361 z m 9.343582,-16.52593 c -3.89686,0.13449 -11.581912,-0.36828 -15.175732,3.85629 l 2.85958,1.04116 c 2.33645,-3.52356 9.026912,-4.19819 12.316132,-4.89744 z m -14.047982,15.36137 c -1.58442,-2.44856 -5.63437,-6.98318 -3.32547,-10.7712 l -2.88003,-0.95334 c -1.45164,3.1783 3.84545,10.17066 6.2055,11.72454 z m 9.757752,-17.25835 c -4.146692,0.21776 -13.507582,1.02384 -15.087182,4.2624 l 2.71158,0.96858 c 2.1393,-3.74016 9.02935,-4.4881 12.375602,-5.23098 z m -13.859512,15.84648 c -1.57321,-2.43123 -5.57672,-6.91897 -3.37312,-10.69053 l -3.77029,-1.16354 c -1.08542,3.22505 5.14724,10.41932 7.14343,11.85405 z m 9.74285,-17.23215 c -4.05591,0.20162 -14.38147,0.99048 -15.86033,3.86305 l 3.52958,1.2902 c 2.18966,-3.67307 9.00773,-4.41555 12.33075,-5.15325 z m -14.44954,15.31461 c -1.52506,-2.35686 -5.3345,-6.64634 -3.55869,-10.3425 l -3.15991,-0.98156 c -1.45724,2.69131 4.12664,9.66366 6.7186,11.32406 z m 9.4435,-16.70309 c -3.59925,0.10514 -13.01596,0.14734 -15.4217,3.61963 l 3.30717,1.2008 c 2.39188,-3.38631 8.89435,-4.10555 12.11455,-4.82044 z m -13.6159,15.40292 c -1.5296,-2.36388 -5.35731,-6.67212 -3.54287,-10.37575 l -3.24748,-1.06175 c -1.5,3.00981 3.97402,9.71311 6.79035,11.4375 z m 9.55744,-16.90437 c -3.65102,0.11576 -14.11301,0.53064 -15.69959,3.53169 l 3.56186,1.32312 c 2.37217,-3.4157 8.90674,-4.13755 12.13773,-4.85481 z m -13.97381,14.81975 c -1.44899,-2.23928 -4.96027,-6.22313 -3.78398,-9.78515 l -3.28813,-1.05487 c -0.79723,3.03807 3.73402,8.68925 7.07211,10.84002 z m 9.00678,-15.92947 c -3.76817,-0.51082 -9.23887,-0.4804 -15.12182,3.07153 0.63421,0.17764 2.25395,0.8454 3.39947,1.25709 2.64698,-2.96675 8.66447,-3.64976 11.72235,-4.3286 z"
         id="path3031" />
      <path
         id="path3033"
         d="m -125.55886,392.84634 c -0.24173,-2.08206 -0.99407,-5.5406 -0.60998,-8.43297 2.30781,3.07114 5.98514,6.77655 5.61961,7.43043 0.74934,-0.53595 -2.66794,-7.13992 -7.01184,-11.12541 0.2634,0.793 0.46982,1.38531 0.63364,1.84555 l -0.8781,-2.06682 -0.0469,-0.11081 c -0.0145,0.0883 -0.0268,0.17585 -0.04,0.26372 -0.0552,0.12977 -0.0747,0.28098 -0.0622,0.45159 -0.60878,4.85948 0.8647,8.92774 2.39585,11.74469 z m -3.50946,-3.59672 c -0.0929,-2.52327 -0.80452,-7.15061 0.70628,-10.06256 l -1.5785,-3.71583 c -1.97394,5.54969 -0.65563,10.46404 0.87222,13.77839 z m 8.81395,-1.76412 c -1.15791,-3.32354 -3.64213,-7.88413 -9.25128,-11.82403 l 1.4223,3.69923 c 3.32885,1.98532 6.07299,6.00713 7.82899,8.12481 z m -12.56147,-2.32056 c 0.21905,-2.70418 -0.046,-8.00295 2.59461,-10.35495 l -1.38184,-3.25263 c -2.91388,1.44741 -2.2851,10.42715 -1.21277,13.60758 z m 12.6936,-2.54041 c -1.56188,-3.3969 -4.66355,-7.98526 -11.02647,-11.33044 -0.009,0.01 -0.0169,0.0188 -0.0248,0.0293 l 1.35598,3.52638 c 3.90798,1.14598 7.53404,5.60331 9.69564,7.77485 z m -16.46934,-2.93969 c 0.7219,-2.46994 1.41849,-7.45457 4.57833,-9.09319 l -1.36728,-3.21848 c -3.72451,4.16998 -3.81569,8.90541 -3.21105,12.31167 z m 15.58246,-3.11907 c -2.00553,-3.0786 -5.55315,-7.00724 -11.68361,-9.19255 l 1.22024,3.17354 c 3.85069,0.35999 8.05058,4.2218 10.46335,6.01901 z m -17.39952,-1.18721 c 0.59126,-2.63817 1.00613,-8.00262 4.31199,-9.69146 l -1.331,-3.13326 c -3.33353,0.3942 -3.68799,9.58383 -2.98104,12.8247 z m 15.72497,-3.14731 c -1.92715,-3.26243 -5.47813,-7.52493 -11.98416,-10.03442 -0.003,0.005 -0.008,0.0102 -0.009,0.0163 l 1.30386,3.39086 c 4.00917,0.35638 8.25951,4.64052 10.68965,6.6279 z m -18.07451,-1.67793 c 0.62025,-2.68522 1.07233,-8.2094 4.58791,-9.74743 l -1.32144,-3.12948 c -3.13368,0.45324 -3.9591,9.61577 -3.26647,12.87691 z m 16.4644,-3.29539 c -2.05262,-2.494 -9.95864,-10.54243 -12.21894,-9.86063 l 1.24371,3.27569 c 4.08018,0.15707 8.48372,4.56671 10.97524,6.58494 z m -19.22881,-1.57573 c 0.68359,-2.78774 1.22064,-8.66641 5.21693,-9.82656 0.002,0.004 0.002,0.007 0.002,0.01 0.01,-0.002 0.0204,-0.006 0.0307,-0.008 l -0.005,-0.01 3e-5,-0.001 -0.0838,-0.19711 c 0.002,0.01 0.006,0.0178 0.007,0.0281 l -1.24852,-2.77352 c -3.47981,1.15322 -4.59,9.44938 -3.92075,12.77919 z m 17.93731,-3.59021 c -2.59159,-2.92202 -9.4284,-10.11197 -12.73766,-9.4803 l 1.12274,3.03903 c 4.22421,-0.35049 8.98436,4.35184 11.61492,6.44127 z m -20.39127,-1.57576 c 0.76924,-2.76248 1.47327,-8.63758 5.60212,-9.6075 l -1.19521,-2.73891 c -3.0838,-0.0195 -4.84818,9.30017 -4.40691,12.34641 z m 18.61521,-3.72589 c -2.64817,-2.86195 -7.28933,-9.00787 -12.83559,-8.9678 l 1.08044,2.84498 c 4.19399,-0.53381 9.0765,4.08987 11.75513,6.12281 z m -20.80773,-0.5962 c 0.81817,-2.79936 1.60436,-8.82819 5.98052,-9.55566 l -1.16028,-2.80307 c -3.35446,0.97798 -5.18615,9.55687 -4.82024,12.35873 z m 19.44028,-3.89097 c -2.87447,-2.99665 -9.60146,-9.55588 -13.08515,-8.63539 l 1.03867,2.68551 c 4.22912,-0.82458 9.29755,3.90228 12.04648,5.94988 z m -21.0518,-0.13654 c 0.81237,-2.77955 1.59342,-8.74259 5.88832,-9.53902 l -1.58289,-3.61432 c -3.15055,1.28574 -4.52375,10.70476 -4.3054,13.15334 z m 19.41071,-3.88513 c -2.80293,-2.93848 -10.14724,-10.2392 -13.28805,-9.48159 l 1.32973,3.51488 c 4.21124,-0.74263 9.22851,3.93328 11.95832,5.96671 z m -21.03474,-0.93072 c 0.78755,-2.6945 1.54533,-8.38109 5.50362,-9.45207 l -1.3218,-3.03338 c -2.98948,0.65553 -4.61863,9.43842 -4.18182,12.48545 z m 18.81463,-3.76602 c -2.4315,-2.65585 -8.61673,-9.75648 -12.81718,-9.30863 l 1.25207,3.28811 c 4.12632,-0.40217 8.91976,4.05006 11.56512,6.02053 z m -20.55685,-0.24197 c 0.78989,-2.70253 1.54994,-8.41521 5.53912,-9.46183 l -1.31833,-3.15206 c -3.25851,0.83128 -4.75578,9.35521 -4.22079,12.61389 z m 19.04143,-3.8113 c -2.47336,-2.68809 -9.62372,-10.33646 -12.93219,-9.57645 l 1.32591,3.56083 c 4.13568,-0.43629 8.95207,4.03853 11.60628,6.01562 z m -20.34927,-0.89397 c 0.74825,-2.56009 1.4695,-7.82126 4.9345,-9.25842 l -1.35009,-3.17833 c -2.8207,1.38172 -4.13759,8.50449 -3.58441,12.43675 z m 17.94364,-3.59109 c -2.07562,-3.1862 -5.67344,-7.30751 -12.20633,-9.43977 0.27995,0.59616 0.83289,2.25861 1.26978,3.39475 3.9754,0.0651 8.42451,4.17388 10.93653,6.04504 z"
         style="fill:#8ab24c;fill-opacity:1;stroke:none;stroke-width:0.02715213px;stroke-linecap:butt;stroke-linejoin:miter;stroke-opacity:1"
         inkscape:connector-curvature="0" />
      <path
         inkscape:connector-curvature="0"
         style="fill:#8ab24c;fill-opacity:1;stroke:none;stroke-width:0.02715213px;stroke-linecap:butt;stroke-linejoin:miter;stroke-opacity:1"
         d="m -209.30427,373.96141 c 1.76762,-1.12648 4.55068,-3.31328 7.32052,-4.23049 -1.75543,3.41706 -3.48358,8.34315 -4.23144,8.29977 0.80933,0.44016 5.25874,-5.51743 6.94785,-11.16549 -0.59843,0.58319 -1.04119,1.02749 -1.38373,1.37581 l 1.47607,-1.69234 0.0792,-0.0906 c -0.0858,0.0255 -0.16991,0.0527 -0.25473,0.0791 -0.14084,0.007 -0.2854,0.0555 -0.43343,0.1412 -4.63768,1.57388 -7.65444,4.67566 -9.52027,7.28301 z m 1.70366,-4.72761 c 2.22953,-1.1852 6.08189,-3.84565 9.36126,-3.75776 l 2.65384,-3.04239 c -5.85464,0.64703 -9.70034,3.9786 -12.0151,6.80015 z m 5.43515,7.15939 c 2.48454,-2.49274 5.50296,-6.71878 6.59867,-13.48523 l -2.70711,2.89462 c -0.33279,3.8616 -2.75301,8.08627 -3.89156,10.59063 z m -3.39643,-12.31421 c 2.52848,-0.98353 7.17987,-3.53535 10.44873,-2.18655 l 2.32298,-2.66324 c -2.57434,-1.98959 -10.37856,2.49653 -12.77171,4.84979 z m 7.82735,10.31085 c 2.37417,-2.8882 5.14801,-7.68187 5.37958,-14.86681 -0.0129,-0.004 -0.0243,-0.007 -0.0372,-0.01 l -2.58055,2.7595 c 0.67517,4.01618 -1.75183,9.22442 -2.76176,12.11719 z m -4.54554,-16.10027 c 2.53728,-0.42888 7.32589,-1.9784 10.17963,0.14899 l 2.29862,-2.63523 c -5.37765,-1.53025 -9.67775,0.45514 -12.47825,2.48624 z m 9.60919,12.65721 c 1.89411,-3.14837 3.87972,-8.05522 3.16929,-14.52464 l -2.32237,2.48333 c 1.35728,3.62149 -0.28343,9.08598 -0.84693,12.0413 z m -6.5283,-16.17201 c 2.6316,-0.61986 7.63892,-2.58865 10.6016,-0.35182 l 2.23778,-2.56539 c -1.81001,-2.82695 -10.23233,0.86622 -12.83938,2.91715 z m 9.69682,12.7731 c 2.09372,-3.15812 4.37822,-8.21375 3.79548,-15.16259 -0.006,-5.2e-4 -0.0127,-0.003 -0.0186,-9.8e-4 l -2.48138,2.65343 c 1.42973,3.7625 -0.56892,9.45676 -1.29593,12.51073 z m -6.3815,-16.99353 c 2.68658,-0.61431 7.85385,-2.61937 10.77241,-0.12801 l 2.23856,-2.55514 c -1.77589,-2.62138 -10.37944,0.63625 -13.01097,2.68315 z m 10.15286,13.37369 c 1.34761,-2.93551 5.13683,-13.56209 3.53662,-15.29793 l -2.40403,2.54903 c 1.64004,3.73936 -0.40462,9.62625 -1.13259,12.74891 z m -6.9774,-17.98739 c 2.80647,-0.60208 8.32976,-2.68546 11.11823,0.40335 -0.003,0.004 -0.005,0.005 -0.008,0.006 0.006,0.008 0.0143,0.0157 0.0206,0.0241 l 0.007,-0.009 9.1e-4,-4.1e-4 0.14075,-0.16145 c -0.008,0.006 -0.0134,0.0132 -0.0222,0.0186 l 1.95015,-2.33412 c -2.55674,-2.62718 -10.50518,-0.004 -13.2087,2.05186 z m 11.06115,14.5701 c 1.49738,-3.60727 4.98106,-12.89712 2.96799,-15.59856 l -2.24393,2.33688 c 2.15956,3.64735 0.007,9.98285 -0.72406,13.26168 z m -7.48488,-19.03322 c 2.82114,-0.514 8.41411,-2.4456 11.08931,0.84552 l 1.94229,-2.27105 c -1.3288,-2.7829 -10.48367,-0.30141 -13.0316,1.42553 z m 11.47917,15.12074 c 1.41864,-3.63195 4.92163,-10.49064 2.46417,-15.46291 l -2.08782,2.21411 c 2.31128,3.54012 0.28316,9.95136 -0.37635,13.24878 z m -8.54797,-18.98023 c 2.87568,-0.48608 8.64283,-2.41088 11.20788,1.20859 l 2.01525,-2.26764 c -2.34436,-2.59091 -10.86215,-0.4934 -13.22313,1.05905 z m 11.98791,15.79095 c 1.44102,-3.89434 4.4052,-12.81003 2.05615,-15.54231 l -1.96259,2.10691 c 2.58822,3.44478 0.54844,10.06834 -0.0936,13.4354 z m -9.06808,-18.99913 c 2.85533,-0.48265 8.56105,-2.38335 11.15266,1.13291 l 2.5606,-3.00203 c -2.53222,-2.2731 -11.60568,0.60369 -13.71324,1.86915 z m 11.96975,15.7669 c 1.41992,-3.80459 4.78168,-13.59938 2.72886,-16.09429 l -2.58167,2.73086 c 2.50668,3.46447 0.49041,10.01976 -0.14719,13.36343 z m -8.34614,-19.33051 c 2.76798,-0.46785 8.21483,-2.26879 10.90648,0.82477 l 2.15194,-2.51351 c -1.89492,-2.40333 -10.50782,-0.0345 -13.05842,1.68874 z m 11.60235,15.28263 c 1.32781,-3.34703 5.0156,-12.01169 2.77883,-15.59515 l -2.41155,2.56198 c 2.16331,3.53672 0.25055,9.79298 -0.36729,13.03319 z m -8.75713,-18.59987 c 2.77622,-0.46925 8.24753,-2.27954 10.93075,0.85244 l 2.26023,-2.56219 c -2.17049,-2.56864 -10.49284,-0.19425 -13.19098,1.70975 z m 11.74209,15.46691 c 1.33855,-3.39877 5.09775,-13.17085 2.96957,-15.81555 l -2.62467,2.74748 c 2.19809,3.53024 0.27503,9.817 -0.3449,13.06807 z m -8.07992,-18.69778 c 2.62989,-0.44452 7.67806,-2.09259 10.48378,0.3973 l 2.27,-2.60224 c -2.47456,-1.93444 -9.45759,-0.009 -12.75378,2.20494 z m 11.0647,14.57541 c 1.96032,-3.25841 4.09735,-8.29454 3.1635,-15.10285 -0.41412,0.51214 -1.66836,1.7354 -2.49976,2.62447 1.67704,3.60494 -0.0771,9.40148 -0.66376,12.47837 z"
         id="path3035" />
      <path
         inkscape:connector-curvature="0"
         style="fill:#c5fe6c;fill-opacity:1;stroke:none;stroke-width:0.01786207px;stroke-linecap:butt;stroke-linejoin:miter;stroke-opacity:1"
         d="m -196.36259,273.51893 c 0.76472,1.04136 2.25238,2.65388 2.86861,4.3413 -2.33711,-0.8835 -5.71019,-1.65082 -5.6768,-2.12551 -0.30605,0.53947 3.76197,2.95607 7.63081,3.65145 -0.39742,-0.33935 -0.70029,-0.58955 -0.93772,-0.78283 l 1.15453,0.82035 0.0618,0.0439 c -0.0166,-0.0526 -0.0353,-0.10373 -0.0532,-0.15549 -0.005,-0.0884 -0.0363,-0.17655 -0.0949,-0.26421 -1.05796,-2.82281 -3.17257,-4.52279 -4.95334,-5.52901 z m 3.23696,0.76489 c 0.80279,1.32895 2.61043,3.58505 2.53424,5.65983 l 2.07562,1.47491 c -0.4159,-3.65142 -2.68425,-5.85932 -4.60986,-7.13474 z m -4.94066,3.8986 c 1.69911,1.40411 4.58544,3.03139 9.22484,3.27901 l -1.9739,-1.51815 c -2.64912,0.0432 -5.53737,-1.20674 -7.25095,-1.76085 z m 8.46923,-2.9503 c 0.66294,1.53078 2.39214,4.29809 1.45046,6.44896 l 1.81694,1.291 c 1.37812,-1.75467 -1.66363,-6.3844 -3.26742,-7.73996 z m -7.11544,5.61451 c 1.9711,1.30851 5.24822,2.74429 10.17905,2.4193 0.002,-0.008 0.005,-0.0158 0.007,-0.0241 l -1.88174,-1.44718 c -2.76011,0.6893 -6.3235,-0.50045 -8.30428,-0.94795 z m 11.07362,-3.92357 c 0.28215,1.57271 1.32271,4.49236 -0.15136,6.43236 l 1.79779,1.27744 c 1.07638,-3.49325 -0.26569,-6.07607 -1.64637,-7.70981 z m -8.73465,6.89258 c 2.15201,0.9886 5.51063,1.91964 9.95487,1.04721 l -1.69341,-1.3024 c -2.49246,1.09379 -6.23553,0.4169 -8.26144,0.25518 z m 11.13248,-5.17925 c 0.41279,1.6197 1.74006,4.64985 0.19031,6.66573 l 1.75015,1.24367 c 1.94924,-1.32734 -0.54522,-6.39902 -1.94046,-7.9094 z m -8.81464,6.95547 c 2.15774,1.1139 5.61703,2.22376 10.38974,1.40048 -3.3e-4,-0.004 7.2e-4,-0.009 9.1e-4,-0.0122 l -1.80943,-1.39161 c -2.58959,1.14875 -6.48864,0.26114 -8.58148,0.003 z m 11.69567,-5.14048 c 0.40868,1.65475 1.76012,4.78342 0.0359,6.78818 l 1.74312,1.24481 c 1.80795,-1.29234 -0.38671,-6.50689 -1.77902,-8.03299 z m -9.2291,7.28258 c 2.00853,0.65775 9.28467,2.35169 10.48391,1.22826 l -1.73814,-1.34962 c -2.57472,1.27992 -6.60581,0.37588 -8.74578,0.12137 z m 12.38076,-5.58162 c 0.3997,1.73119 1.80318,5.07937 -0.33051,7.04118 -0.001,-0.002 -0.003,-0.003 -0.004,-0.005 -0.005,0.005 -0.011,0.01 -0.0163,0.0155 l 0.006,0.004 2.7e-4,5.6e-4 0.11001,0.0785 c -0.005,-0.004 -0.009,-0.009 -0.0133,-0.0126 l 1.59277,1.07738 c 1.8157,-1.78536 0.0534,-6.62824 -1.34471,-8.19914 z m -10.05473,7.93408 c 2.4689,0.70823 8.82895,2.29701 10.693,0.84979 l -1.59329,-1.26252 c -2.51406,1.60166 -6.85253,0.65914 -9.09971,0.41273 z m 13.1011,-5.97039 c 0.33888,1.7463 1.63812,5.14832 -0.6339,7.05196 l 1.54954,1.07652 c 1.91671,-1.0208 0.25748,-6.63413 -0.91564,-8.12848 z m -10.43473,8.23395 c 2.48625,0.65687 7.17735,2.4173 10.60232,0.5408 l -1.50976,-1.17208 c -2.44118,1.69038 -6.83229,0.83117 -9.09255,0.63125 z m 13.06985,-6.63763 c 0.31979,1.78247 1.61322,5.29489 -0.88368,7.15057 l 1.54685,1.12278 c 1.78978,-1.649 0.3911,-6.88554 -0.66317,-8.27335 z m -10.89723,8.59884 c 2.66623,0.65385 8.77193,1.93941 10.6588,0.27818 l -1.43678,-1.10009 c -2.3771,1.85883 -6.91388,1.00619 -9.22202,0.82191 z m 13.08534,-6.96701 c 0.31758,1.76984 1.5947,5.2451 -0.83149,7.11076 l 2.04836,1.4187 c 1.57252,-1.74666 -0.35842,-7.28272 -1.21688,-8.52946 z M -180.2194,295.93 c 2.60472,0.64642 9.31196,2.12517 11.03446,0.6664 l -1.8621,-1.44977 c -2.39022,1.8087 -6.88025,0.9664 -9.17236,0.78337 z m 13.30933,-6.53324 c 0.30778,1.71571 1.51772,5.03414 -0.61877,6.9352 l 1.71496,1.19292 c 1.65885,-1.35314 0.0744,-6.6319 -1.09619,-8.12812 z m -10.54645,8.32223 c 2.29108,0.61831 8.22098,2.37688 10.69157,0.73067 l -1.74696,-1.3535 c -2.43816,1.59677 -6.72343,0.8002 -8.94462,0.62282 z m 12.80977,-6.74464 c 0.30869,1.7208 1.52495,5.05408 -0.63788,6.95237 l 1.74786,1.25802 c 1.77366,-1.53786 0.18398,-6.63293 -1.10998,-8.21039 z m -10.67361,8.42251 c 2.32655,0.62167 9.01628,2.35267 10.84195,0.83656 l -1.8733,-1.47582 c -2.43386,1.61831 -6.74004,0.81722 -8.96865,0.63928 z m 12.87371,-6.32382 c 0.29241,1.63013 1.39936,4.70705 -0.3233,6.64053 l 1.7753,1.26157 c 1.33981,-1.68811 0.0522,-5.96764 -1.452,-7.9021 z m -10.0584,7.93667 c 2.22721,1.02319 5.67386,2.04126 10.3518,1.00566 -0.34953,-0.2277 -1.18317,-0.93881 -1.78945,-1.40508 -2.48265,1.29447 -6.4531,0.56786 -8.56235,0.39942 z"
         id="path3037" />
      <path
         id="path3039"
         d="m -95.74662,270.97277 c -1.18136,0.52308 -3.07588,1.62949 -4.85631,1.86873 1.36506,-2.09267 2.83928,-5.22206 3.29571,-5.08745 -0.46111,-0.41483 -3.6954,3.03887 -5.20588,6.66791 0.41682,-0.31521 0.72625,-0.55724 0.96604,-0.74759 l -1.04928,0.95128 -0.0562,0.0509 c 0.0549,-0.005 0.10892,-0.0122 0.16328,-0.0185 0.0872,0.0148 0.18021,0.002 0.27842,-0.0358 2.98422,-0.42667 5.09887,-2.12659 6.46425,-3.64953 z m -1.4426,2.99698 c -1.47042,0.49847 -4.06223,1.77908 -6.07219,1.25885 l -1.88646,1.71018 c 3.65549,0.37845 6.29924,-1.36245 7.95865,-2.96903 z m -2.74585,-5.66299 c -1.73643,1.3577 -3.94592,3.82693 -5.1847,8.30474 l 1.90686,-1.60156 c 0.52703,-2.59652 2.36844,-5.14871 3.27783,-6.70319 z m 1.06148,8.90537 c -1.63747,0.31851 -4.71173,1.41267 -6.61,0.0308 l -1.65127,1.49707 c 1.41754,1.72298 6.59274,-0.25285 8.26127,-1.5279 z m -3.95437,-8.1557 c -1.7015,1.64388 -3.80794,4.53592 -4.55009,9.42141 0.007,0.004 0.0143,0.008 0.0222,0.0117 l 1.81774,-1.52681 c -0.0801,-2.84374 1.84756,-6.06822 2.71026,-7.90659 z m 1.45237,11.65807 c -1.5966,-0.0624 -4.67164,0.32646 -6.24956,-1.53005 l -1.63393,1.48129 c 3.18034,1.80187 5.99123,1.04617 7.88349,0.0488 z m -4.85462,-10.01172 c -1.42796,1.8893 -3.05895,4.9694 -3.1619,9.49729 l 1.63587,-1.37399 c -0.53266,-2.66927 0.93271,-6.17946 1.52603,-8.12328 z m 2.66605,11.98535 c -1.67056,0.0551 -4.91512,0.70024 -6.5509,-1.24649 l -1.5907,1.44202 c 0.87748,2.18893 6.3667,0.84257 8.1416,-0.19553 z m -4.89885,-10.10334 c -1.55155,1.86797 -3.37882,5.00796 -3.60035,9.84609 0.004,6.5e-4 0.008,0.003 0.0116,0.003 l 1.74791,-1.46812 c -0.56546,-2.77594 1.13927,-6.39319 1.8414,-8.3816 z m 2.50718,12.52705 c -1.70392,0.0436 -5.04989,0.69113 -6.63732,-1.4236 l -1.5903,1.4349 c 0.87364,2.04342 6.43799,1.0206 8.22762,-0.0113 z m -5.12927,-10.5784 c -1.07398,1.82026 -4.29188,8.56242 -3.45239,9.97506 l 1.69159,-1.40753 c -0.69676,-2.7896 1.05236,-6.53226 1.7608,-8.56755 z m 2.7908,13.29093 c -1.77664,0.0184 -5.34818,0.66959 -6.80567,-1.83582 0.002,-10e-4 0.004,-0.002 0.006,-0.003 -0.004,-0.006 -0.008,-0.0129 -0.0113,-0.0193 l -0.005,0.005 -6e-4,1.4e-4 -0.10022,0.0906 c 0.005,-0.004 0.01,-0.007 0.0152,-0.01 l -1.39447,1.32405 c 1.35349,2.15694 6.46192,1.47648 8.29657,0.44857 z m -5.58813,-11.52474 c -1.22221,2.25904 -4.14055,8.1291 -3.1277,10.26059 l 1.5754,-1.28477 c -1.02402,-2.7995 0.82876,-6.8341 1.5523,-8.97582 z m 3.0157,14.07799 c -1.77833,-0.044 -5.38006,0.49356 -6.75101,-2.13445 l -1.38434,1.28202 c 0.58508,2.09128 6.42383,1.67703 8.13535,0.85243 z m -5.79934,-11.96032 c -1.17579,2.28702 -3.90313,6.49024 -2.80644,10.23844 l 1.46912,-1.22263 c -1.12631,-2.74739 0.6564,-6.85129 1.33731,-9.0158 z m 3.67407,14.19086 c -1.80955,-0.0707 -5.51786,0.43774 -6.79364,-2.39959 l -1.42895,1.26945 c 1.22588,2.10232 6.64065,1.86156 8.22259,1.13014 z m -6.05633,-12.49042 c -1.21151,2.46344 -3.77906,8.15027 -2.56209,10.35002 l 1.38313,-1.16682 c -1.30462,-2.721 0.50299,-6.96858 1.17896,-9.1832 z m 3.99242,14.27676 c -1.79673,-0.0702 -5.46524,0.43035 -6.76597,-2.34005 l -1.82572,1.69564 c 1.36796,1.91112 7.18961,1.2149 8.59169,0.6444 z m -6.04717,-12.47143 c -1.19104,2.40497 -4.07652,8.63777 -3.02196,10.63349 l 1.81604,-1.50706 c -1.25283,-2.72304 0.53463,-6.92718 1.20592,-9.12643 z m 3.52067,14.40231 c -1.74177,-0.0681 -5.24269,0.40051 -6.64025,-2.09458 l -1.53355,1.41856 c 0.96506,1.91087 6.46099,1.49776 8.1738,0.67602 z m -5.86157,-12.08839 c -1.09617,2.1047 -4.08791,7.51818 -3.01105,10.2848 l 1.69728,-1.41531 c -1.03555,-2.72432 0.66326,-6.73831 1.31377,-8.86951 z m 3.83447,13.95984 c -1.74694,-0.0683 -5.2637,0.40329 -6.65288,-2.11693 l -1.60422,1.4367 c 1.12079,2.0627 6.43844,1.60499 8.2571,0.68023 z m -5.93217,-12.23413 c -1.10709,2.13861 -4.23517,8.3001 -3.14677,10.40891 l 1.84388,-1.5124 c -1.0575,-2.72476 0.6502,-6.75819 1.30289,-8.89651 z m 3.40974,13.93187 c -1.65488,-0.0647 -4.89779,0.35519 -6.41593,-1.7427 l -1.61358,1.46274 c 1.36077,1.67125 5.81702,1.33328 8.02951,0.27996 z m -5.58988,-11.52889 c -1.47787,1.95531 -3.21281,5.10267 -3.20661,9.89386 0.2975,-0.29243 1.17113,-0.9538 1.75678,-1.44572 -0.73074,-2.70281 0.83209,-6.42437 1.44983,-8.44814 z"
         style="fill:#c5fe6c;fill-opacity:1;stroke:none;stroke-width:0.01786207px;stroke-linecap:butt;stroke-linejoin:miter;stroke-opacity:1"
         inkscape:connector-curvature="0" />
      <path
         inkscape:connector-curvature="0"
         style="fill:#c5fe6c;fill-opacity:1;stroke:none;stroke-width:0.01786207px;stroke-linecap:butt;stroke-linejoin:miter;stroke-opacity:1"
         d="m -104.9391,347.11911 c -0.69694,-1.08789 -2.07904,-2.79175 -2.58671,-4.51495 2.27619,1.03034 5.59364,2.01063 5.53013,2.48224 0.33974,-0.51892 -3.56635,-3.18934 -7.38313,-4.12936 0.37503,0.36394 0.66137,0.63289 0.88603,0.84088 l -1.10002,-0.89211 -0.0589,-0.0478 c 0.0133,0.0535 0.0286,0.10579 0.0432,0.15855 -10e-4,0.0884 0.0255,0.17841 0.0778,0.26972 0.8763,2.88439 2.87851,4.7154 4.59168,5.83284 z m -3.18176,-0.96921 c -0.71665,-1.37732 -2.37714,-3.7438 -2.16917,-5.80955 l -1.9776,-1.60392 c 0.18283,3.67048 2.30616,6.01817 4.14677,7.41347 z m 5.1786,-3.57648 c -1.60637,-1.50934 -4.38337,-3.31689 -8.99763,-3.85907 l 1.87335,1.64062 c 2.64651,0.12534 5.44942,1.55646 7.12429,2.21843 z m -8.63972,2.4057 c -0.56424,-1.56984 -2.11396,-4.44153 -1.03739,-6.52816 l -1.73115,-1.40394 c -1.48692,1.66347 1.25422,6.47728 2.76856,7.9321 z m 7.45811,-5.15063 c -1.8839,-1.43122 -5.06307,-3.07251 -10.00459,-3.06176 -0.003,0.008 -0.006,0.0154 -0.008,0.0237 l 1.7859,1.56393 c 2.79835,-0.51237 6.27885,0.90159 8.22718,1.47417 z m -11.30075,3.21137 c -0.18155,-1.58747 -1.03432,-4.56738 0.56015,-6.4097 l -1.71291,-1.3892 c -1.29636,3.41771 -0.12127,6.08067 1.15272,7.79891 z m 9.15533,-6.32311 c -2.08478,-1.12348 -5.37739,-2.26623 -9.86812,-1.67821 l 1.60716,1.40747 c 2.55697,-0.93307 6.24942,-0.0195 8.26094,0.27074 z m -11.43933,4.46074 c -0.30894,-1.64267 -1.44082,-4.75108 0.234,-6.66433 l -1.66751,-1.35246 c -2.02971,1.2007 0.13715,6.42075 1.43351,8.01679 z m 9.23915,-6.38078 c -2.08253,-1.24888 -5.46423,-2.57649 -10.27964,-2.05841 -3e-5,0.004 -0.002,0.008 -0.001,0.0119 l 1.71726,1.50386 c 2.6574,-0.98173 6.49212,0.15206 8.56429,0.54309 z m -11.99891,4.38625 c -0.30266,-1.67739 -1.45235,-4.88567 0.39588,-6.77672 l -1.66042,-1.35315 c -1.88648,1.17473 -0.0279,6.51832 1.26454,8.12987 z m 9.67356,-6.68089 c -1.96262,-0.78415 -9.1163,-2.93741 -10.38456,-1.89252 l 1.64879,1.45742 c 2.6509,-1.11358 6.61633,0.045 8.73579,0.4351 z m -12.71067,4.78293 c -0.28883,-1.7531 -1.47649,-5.18376 0.77764,-7.0059 0.001,0.002 0.003,0.004 0.004,0.005 0.005,-0.005 0.0115,-0.01 0.0174,-0.0141 l -0.006,-0.004 -2.3e-4,-5.7e-4 -0.10481,-0.0853 c 0.005,0.004 0.008,0.009 0.0122,0.0135 l -1.52102,-1.17649 c -1.92558,1.66627 -0.47486,6.61142 0.82053,8.26807 z m 10.53896,-7.27855 c -2.41886,-0.86381 -8.66498,-2.85387 -10.6173,-1.52813 l 1.50977,1.36129 c 2.61083,-1.43853 6.88058,-0.22199 9.10753,0.16684 z m -13.45428,5.1251 c -0.22742,-1.76428 -1.30738,-5.24209 1.08111,-6.99738 l -1.47794,-1.17288 c -1.97775,0.89683 -0.67887,6.60433 0.39683,8.17026 z m 10.93727,-7.55365 c -2.43944,-0.81367 -7.00908,-2.86888 -10.54646,-1.214 l 1.43216,1.26572 c 2.54374,-1.53169 6.87132,-0.39496 9.11429,-0.0517 z m -13.46553,5.79297 c -0.20579,-1.7992 -1.27321,-5.38677 1.33666,-7.07989 l -1.47232,-1.21889 c -1.89103,1.53183 -0.82822,6.84673 0.13566,8.29878 z m 11.42203,-7.88839 c -2.61924,-0.8221 -8.63083,-2.49337 -10.61952,-0.9555 l 1.36391,1.18924 c 2.4905,-1.7039 6.96387,-0.56445 9.25561,-0.23374 z m -13.50193,6.1207 c -0.20433,-1.78646 -1.25789,-5.3359 1.28203,-7.04348 l -1.95398,-1.5461 c -1.68042,1.64312 -0.10547,7.29077 0.67196,8.58958 z m 11.40466,-7.87645 c -2.55834,-0.81077 -9.15796,-2.71309 -10.96974,-1.36682 l 1.76612,1.56526 c 2.50041,-1.65302 6.92778,-0.52687 9.20362,-0.19844 z m -13.69789,5.67358 c -0.19803,-1.73182 -1.19449,-5.12049 1.05858,-6.88183 l -1.63562,-1.29956 c -1.74155,1.2449 -0.49603,6.61375 0.57704,8.18139 z m 11.05437,-7.63466 c -2.24712,-0.76276 -8.05317,-2.89491 -10.62345,-1.40916 l 1.65735,1.46187 c 2.53477,-1.43848 6.7607,-0.37098 8.96612,-0.0527 z m -13.21278,5.91631 c -0.19862,-1.73696 -1.20043,-5.14083 1.07875,-6.89772 l -1.66432,-1.36663 c -1.86788,1.42193 -0.60544,6.60779 0.58557,8.26435 z m 11.18766,-7.72664 c -2.2823,-0.76838 -8.8484,-2.92133 -10.7668,-1.52439 l 1.77564,1.59197 c 2.53187,-1.46024 6.77837,-0.38691 8.99116,-0.0676 z m -13.24984,5.49228 c -0.18815,-1.64543 -1.09716,-4.78652 0.74498,-6.60653 l -1.69148,-1.37192 c -1.44445,1.59948 -0.43157,5.95224 0.9465,7.97845 z M -127,318.16668 c -2.15762,-1.16275 -5.53255,-2.39798 -10.26687,-1.66198 0.33434,0.24948 1.12107,1.01216 1.69647,1.51604 2.55994,-1.13395 6.47614,-0.15629 8.5704,0.14594 z"
         id="path3041" />
      <path
         id="path3043"
         d="m -208.55342,328.57758 c 1.28587,-0.12556 3.43203,-0.58092 5.19749,-0.24884 -1.95327,1.55801 -4.33579,4.066 -4.72684,3.79484 0.30748,0.53866 4.46287,-1.7244 7.03676,-4.69535 -0.49474,0.16834 -0.86453,0.30093 -1.15197,0.40633 l 1.29496,-0.57357 0.0693,-0.0307 c -0.0537,-0.0126 -0.10723,-0.0226 -0.16084,-0.0337 -0.0783,-0.0412 -0.17031,-0.059 -0.2756,-0.0534 -2.9672,-0.53223 -5.50877,0.41747 -7.28339,1.4345 z m 2.31091,-2.39221 c 1.55256,-0.0114 4.41545,-0.41314 6.16028,0.71208 l 2.32815,-1.03113 c -3.35163,-1.50745 -6.40839,-0.68501 -8.48843,0.31905 z m 0.82821,6.23885 c 2.07499,-0.7436 4.94823,-2.39389 7.53074,-6.25601 l -2.31338,0.92159 c -1.31591,2.29959 -3.86574,4.14425 -5.21735,5.33443 z m 1.78932,-8.78809 c 1.65465,0.21192 4.91698,0.13872 6.28516,2.04689 l 2.03792,-0.90267 c -0.80464,-2.08102 -6.33853,-1.83065 -8.32309,-1.1442 z m 1.19263,8.98498 c 2.13172,-1.02626 5.03992,-3.11033 7.27899,-7.51547 -0.006,-0.006 -0.011,-0.0124 -0.0174,-0.0179 l -2.2053,0.87861 c -0.81715,2.72499 -3.66004,5.18084 -5.05648,6.6552 z m 2.2828,-11.52425 c 1.49621,0.56071 4.53777,1.15736 5.45273,3.41553 l 2.01649,-0.89313 c -2.45345,-2.7096 -5.35944,-2.875 -7.4692,-2.52245 z m 1.46438,11.02984 c 1.94909,-1.34519 4.46497,-3.75713 5.98488,-8.02355 l -1.98464,0.79065 c -0.33269,2.70149 -2.82645,5.57376 -4.00024,7.23288 z m 1.23333,-12.2162 c 1.60333,0.47239 4.88633,0.87899 5.82788,3.24098 l 1.96312,-0.86942 c -0.14555,-2.35376 -5.77986,-2.79964 -7.791,-2.37156 z m 1.47759,11.13073 c 2.05974,-1.28612 4.78078,-3.69328 6.5107,-8.21698 -0.004,-0.002 -0.007,-0.005 -0.01,-0.007 l -2.12058,0.84483 c -0.33505,2.81306 -3.08964,5.71181 -4.38078,7.37906 z m 1.55431,-12.68059 c 1.63137,0.49383 5.01142,0.92997 5.85429,3.43628 l 1.96051,-0.8628 c -0.18762,-2.21441 -5.79164,-2.99101 -7.8148,-2.57348 z m 1.54713,11.65412 c 1.59136,-1.39082 6.76405,-6.78108 6.41074,-8.3859 l -2.04807,0.80499 c -0.21469,2.86727 -3.05084,5.87114 -4.36267,7.58093 z m 1.52498,-13.49489 c 1.69249,0.5406 5.28784,1.04411 5.88464,3.88051 -0.002,1e-5 -0.004,5.5e-4 -0.006,0.001 0.002,0.007 0.003,0.0146 0.005,0.0219 l 0.006,-0.003 6.2e-4,5e-5 0.12364,-0.0545 c -0.006,0.002 -0.0118,0.003 -0.0176,0.005 l 1.73977,-0.81906 c -0.60752,-2.47289 -5.67116,-3.43137 -7.73581,-3.03173 z m 1.68553,12.6967 c 1.8699,-1.76083 6.48428,-6.41722 6.19216,-8.75897 l -1.89921,0.72494 c 0.0929,2.97946 -2.93333,6.22794 -4.29295,8.03403 z m 1.55866,-14.31276 c 1.67442,0.6006 5.26282,1.22124 5.73896,4.14685 l 1.71695,-0.78233 c 0.10138,-2.16922 -5.572,-3.60982 -7.45591,-3.36452 z m 1.74925,13.17656 c 1.83461,-1.80198 5.74412,-4.93586 5.8802,-8.83883 l -1.77879,0.69932 c 0.20639,2.96212 -2.7751,6.2984 -4.10143,8.13949 z m 0.96906,-14.62669 c 1.69577,0.63549 5.37611,1.31751 5.69615,4.41196 l 1.75536,-0.75639 c -0.50353,-2.38096 -5.7199,-3.85311 -7.45151,-3.65557 z m 1.82673,13.76055 c 1.92394,-1.95825 6.14772,-6.55085 5.68326,-9.02152 l -1.67962,0.67335 c 0.38395,2.99306 -2.6663,6.45794 -4.00364,8.34817 z m 0.6938,-14.80824 c 1.68377,0.63094 5.32383,1.308 5.68858,4.34675 l 2.26591,-1.0364 c -0.69846,-2.24406 -6.44418,-3.41159 -7.9545,-3.31034 z m 1.824,13.73964 c 1.88614,-1.90917 6.58325,-6.92025 6.2089,-9.1462 l -2.19749,0.8604 c 0.33415,2.97874 -2.68333,6.4087 -4.01141,8.2858 z m 1.18112,-14.77926 c 1.63224,0.61172 5.10316,1.26643 5.64631,4.07421 l 1.90151,-0.8651 c -0.31604,-2.11728 -5.66359,-3.45128 -7.54782,-3.20911 z m 1.76809,13.31769 c 1.70177,-1.65388 6.24242,-5.85374 6.08902,-8.81858 l -2.05592,0.81059 c 0.12746,2.91171 -2.74612,6.18899 -4.03311,8.008 z m 0.74422,-14.45774 c 1.63708,0.61353 5.12399,1.27039 5.6513,4.0994 l 1.97429,-0.86013 c -0.41621,-2.31033 -5.60851,-3.54601 -7.62559,-3.23927 z m 1.78935,13.47823 c 1.72278,-1.68266 6.62781,-6.54984 6.25686,-8.89378 l -2.2256,0.85672 c 0.14817,2.91902 -2.73997,6.21197 -4.03124,8.03707 z m 1.13867,-14.29778 c 1.55081,0.58122 4.76149,1.20112 5.54388,3.66968 l 1.99136,-0.88191 c -0.76699,-2.01408 -5.10388,-3.09287 -7.53524,-2.78777 z m 1.68589,12.70118 c 2.01723,-1.39218 4.65291,-3.83535 6.15189,-8.38602 -0.37429,0.1842 -1.41144,0.53769 -2.12196,0.82077 -0.15516,2.79555 -2.8078,5.83791 -4.02993,7.56525 z"
         style="fill:#c5fe6c;fill-opacity:1;stroke:none;stroke-width:0.01786207px;stroke-linecap:butt;stroke-linejoin:miter;stroke-opacity:1"
         inkscape:connector-curvature="0" />
    </g>
  </g>
</svg>
