<svg height="480pt" viewBox="0 0 480 480.00232" width="480pt" xmlns="http://www.w3.org/2000/svg"><path d="m208 336 184-184 88-152-144 80-192 192" fill="#b8cbd9"/><path d="m368 448 79.996094-79.996094 32 32-79.996094 80zm0 0" fill="#976947"/><path d="m312 360 72 72 48-48-72-72" fill="#c18e59"/><path d="m264 408 144-144h-64l-80 80zm0 0" fill="#e4725f"/><path d="m272 336-184-184-88-152 144 80 192 192" fill="#e8eff4"/><path d="m0 399.996094 32-32 80 79.996094-32 32.003906zm0 0" fill="#976947"/><path d="m168 360-72 72-48-48 72-72" fill="#c18e59"/><path d="m216 408-144-144h64l80 80zm0 0" fill="#af4a47"/><g fill="#976947"><path d="m354.335938 402.34375 48-47.996094 11.3125 11.3125-47.996094 48zm0 0"/><path d="m330.335938 378.34375 48-47.996094 11.3125 11.3125-47.996094 48zm0 0"/><path d="m66.339844 365.652344 11.3125-11.3125 48 47.996094-11.316406 11.316406zm0 0"/><path d="m90.339844 341.652344 11.3125-11.3125 48 47.996094-11.316406 11.316406zm0 0"/></g><path d="m114.34375 125.660156 11.316406-11.3125 183.996094 183.996094-11.3125 11.316406zm0 0" fill="#b8cbd9"/><path d="m170.34375 298.339844 32-32 11.3125 11.3125-32 32zm0 0" fill="#e8eff4"/><path d="m266.34375 202.34375 87.996094-88 11.3125 11.316406-87.996094 87.996094zm0 0" fill="#e8eff4"/></svg>