<?xml version="1.0" encoding="UTF-8" standalone="no"?>
<svg
   xmlns:dc="http://purl.org/dc/elements/1.1/"
   xmlns:cc="http://creativecommons.org/ns#"
   xmlns:rdf="http://www.w3.org/1999/02/22-rdf-syntax-ns#"
   xmlns:svg="http://www.w3.org/2000/svg"
   xmlns="http://www.w3.org/2000/svg"
   xmlns:sodipodi="http://sodipodi.sourceforge.net/DTD/sodipodi-0.dtd"
   xmlns:inkscape="http://www.inkscape.org/namespaces/inkscape"
   height="512"
   viewBox="0 0 383.99999 384.00184"
   width="512"
   version="1.1"
   id="svg34"
   sodipodi:docname="class_barbarian.svg"
   inkscape:version="0.92.4 (5da689c313, 2019-01-14)">
  <metadata
     id="metadata40">
    <rdf:RDF>
      <cc:Work
         rdf:about="">
        <dc:format>image/svg+xml</dc:format>
        <dc:type
           rdf:resource="http://purl.org/dc/dcmitype/StillImage" />
        <dc:title></dc:title>
      </cc:Work>
    </rdf:RDF>
  </metadata>
  <defs
     id="defs38" />
  <sodipodi:namedview
     pagecolor="#ffffff"
     bordercolor="#666666"
     borderopacity="1"
     objecttolerance="10"
     gridtolerance="10"
     guidetolerance="10"
     inkscape:pageopacity="0"
     inkscape:pageshadow="2"
     inkscape:window-width="1920"
     inkscape:window-height="1017"
     id="namedview36"
     showgrid="false"
     inkscape:pagecheckerboard="true"
     inkscape:showpageshadow="false"
     inkscape:zoom="0.35355339"
     inkscape:cx="130.00235"
     inkscape:cy="-22.110915"
     inkscape:window-x="-8"
     inkscape:window-y="-8"
     inkscape:window-maximized="1"
     inkscape:current-layer="svg34"
     units="px" />
  <g
     id="g1113"
     transform="translate(2831.2,-1218.1753)">
    <path
       sodipodi:nodetypes="ccccc"
       style="fill:#9d9d9d;fill-opacity:1;stroke-width:2.61596346"
       inkscape:connector-curvature="0"
       d="m 1399.9626,1026.1254 11.5055,-1206.99157 80.936,-233.29842 80.9359,230.63168 11.5055,1209.65821"
       id="path1103" />
    <path
       style="fill:#976947;stroke-width:1.71520281"
       inkscape:connector-curvature="0"
       d="m 1404.2806,1398.8555 176.2511,1e-4 -10e-5,85.457 -176.2553,0.01 z m 0,0"
       id="path1105" />
    <path
       style="fill:#c18e59;stroke-width:2.44776106"
       inkscape:connector-curvature="0"
       d="m 1431.702,1057.7342 v 341.1213 l 121.404,1e-4 v -341.1214"
       id="path1107" />
    <path
       sodipodi:nodetypes="ccccc"
       style="fill:#5e5e5e;fill-opacity:1;stroke-width:2.65446281"
       inkscape:connector-curvature="0"
       d="m 1485.0827,-49.293267 14.6427,0.0135 V 1072.6996 l -14.6427,0.014 z"
       id="path1109" />
    <path
       style="fill:#976947;fill-opacity:1;stroke-width:1.61978805"
       inkscape:connector-curvature="0"
       d="m 1300.6313,1084.2525 h 383.5455 v -58.1272 h -383.5455 z"
       id="path1111"
       sodipodi:nodetypes="ccccc" />
  </g>
  <g
     id="g1447"
     transform="matrix(0.7048645,0,0,0.7048645,3.6056494,-46.716112)">
    <g
       transform="matrix(1.4332965,0.59894041,-0.59894041,1.4332965,169.94102,-88.634138)"
       id="g1426">
      <path
         inkscape:connector-curvature="0"
         style="opacity:1;fill:#9d9d9d;fill-opacity:1;fill-rule:nonzero;stroke:none;stroke-width:5;stroke-linecap:round;stroke-linejoin:round;stroke-miterlimit:4;stroke-dasharray:none;stroke-dashoffset:0;stroke-opacity:1;paint-order:normal"
         d="M 126.82617,91.128906 A 91.216777,111.01576 0 0 0 63.638672,196.63086 91.216777,111.01576 0 0 0 122.5918,300.41992 a 111.01576,91.216777 48.826725 0 1 27.06054,-62.19531 111.01576,91.216777 48.826725 0 1 76.49024,-16.45313 91.216776,111.01576 0 0 0 0.96289,5.08204 91.216776,111.01576 41.173275 0 1 7.75,-2.67969 111.01576,91.216777 48.826725 0 1 7.75,2.67969 91.216777,111.01576 0 0 0 0.96289,-5.08204 91.216776,111.01576 41.173275 0 1 76.49023,16.45313 91.216776,111.01576 41.173275 0 1 27.06055,62.19531 91.216776,111.01576 0 0 0 58.95313,-103.78906 91.216776,111.01576 0 0 0 -63.1875,-105.501954 111.01576,91.216776 48.826725 0 1 -27.06836,63.908204 111.01576,91.216776 48.826725 0 1 -71.98829,17.5 91.216777,111.01576 0 0 0 -0.88281,-4.54688 91.216777,111.01576 41.173275 0 1 -8.08984,2.4961 111.01576,91.216776 48.826725 0 1 -8.08985,-2.4961 91.216776,111.01576 0 0 0 -0.88281,4.54688 91.216777,111.01576 41.173275 0 1 -71.98828,-17.5 91.216777,111.01576 41.173275 0 1 -27.06836,-63.908204 z"
         transform="matrix(0.75000359,0,0,0.75000359,-9.25e-4,0)"
         id="path1407" />
      <rect
         style="opacity:1;fill:#5e5e5e;fill-opacity:1;fill-rule:nonzero;stroke:none;stroke-width:3.75001788;stroke-linecap:round;stroke-linejoin:round;stroke-miterlimit:4;stroke-dasharray:none;stroke-dashoffset:0;stroke-opacity:1;paint-order:normal"
         id="rect1420"
         width="177.13109"
         height="5.3033261"
         x="87.575974"
         y="144.17986" />
      <path
         style="opacity:1;fill:#976947;fill-opacity:1;fill-rule:nonzero;stroke:none;stroke-width:3.19112611;stroke-linecap:round;stroke-linejoin:round;stroke-miterlimit:4;stroke-dasharray:none;stroke-dashoffset:0;stroke-opacity:1;paint-order:normal"
         d="m 165.00454,108.22887 c 6.07607,-9.311702 12.62406,-15.364807 22.27397,0 v 301.68657 h -22.27397 z"
         id="rect1418"
         inkscape:connector-curvature="0"
         sodipodi:nodetypes="ccccc" />
    </g>
    <g
       transform="matrix(1.1453142,0,0,1.1453142,-35.685667,216.25046)"
       id="g1405">
      <g
         id="g1388"
         transform="translate(0.1866814,-43.029648)">
        <path
           style="fill:#61442e;fill-opacity:1;stroke:#000000;stroke-width:3.75001788;stroke-linecap:butt;stroke-linejoin:miter;stroke-miterlimit:4;stroke-dasharray:none;stroke-opacity:1"
           d="m 278.90866,229.28242 c 1.02833,1.32215 47.5559,-11.8671 49.46471,-41.44879 1.40388,-21.75652 -40.85634,-87.59832 -47.60637,-135.598543 -6.75005,-48.0002302 -7.14389,-55.2350997 -7.14389,-55.2350997 0,0 8.46202,27.8883927 23.87357,57.1028887 15.50401,29.389733 37.98374,60.153434 46.63458,75.950604 17.25008,31.50015 33.85621,74.99823 18.74228,96.4476 -12.68895,18.0079 -27.71152,25.89846 -56.73511,36.39402 -14.92797,5.39829 -29.15915,7.84193 -29.15915,7.84193 z"
           id="path1384"
           inkscape:connector-curvature="0"
           sodipodi:nodetypes="csscsssscc" />
        <path
           sodipodi:nodetypes="csscsssscc"
           inkscape:connector-curvature="0"
           id="path1382"
           d="m 126.71416,229.28242 c -1.02833,1.32215 -47.555904,-11.8671 -49.464715,-41.44879 -1.403878,-21.75652 40.856345,-87.59832 47.606375,-135.598543 6.75004,-48.0002302 7.14389,-55.2350997 7.14389,-55.2350997 0,0 -8.46202,27.8883927 -23.87357,57.1028887 -15.504008,29.389733 -37.983744,60.153434 -46.634576,75.950604 -17.250081,31.50015 -33.856214,74.99823 -18.742284,96.4476 12.688953,18.0079 27.711521,25.89846 56.735106,36.39402 14.927974,5.39829 29.159154,7.84193 29.159154,7.84193 z"
           style="fill:#61442e;fill-opacity:1;stroke:#000000;stroke-width:3.75001788;stroke-linecap:butt;stroke-linejoin:miter;stroke-miterlimit:4;stroke-dasharray:none;stroke-opacity:1" />
      </g>
      <path
         inkscape:connector-curvature="0"
         id="path1373"
         d="m 274.54311,128.85394 0.63459,29.48289 -9.51885,-13.6628 z"
         style="fill:#5d5d5d;fill-opacity:1;stroke:#000000;stroke-width:0.70455837px;stroke-linecap:butt;stroke-linejoin:miter;stroke-opacity:1" />
      <path
         style="fill:#5d5d5d;fill-opacity:1;stroke:#000000;stroke-width:0.70455837px;stroke-linecap:butt;stroke-linejoin:miter;stroke-opacity:1"
         d="m 237.93276,103.17586 0.63459,29.48289 -9.51885,-13.6628 z"
         id="path1371"
         inkscape:connector-curvature="0" />
      <path
         inkscape:connector-curvature="0"
         id="path1369"
         d="m 165.83117,102.66738 -0.63459,29.48289 9.51885,-13.6628 z"
         style="fill:#5d5d5d;fill-opacity:1;stroke:#000000;stroke-width:0.70455837px;stroke-linecap:butt;stroke-linejoin:miter;stroke-opacity:1" />
      <path
         style="fill:#5d5d5d;fill-opacity:1;stroke:#000000;stroke-width:0.75000358px;stroke-linecap:butt;stroke-linejoin:miter;stroke-opacity:1"
         d="m 131.59347,126.5658 -0.71909,29.48289 10.78642,-13.6628 z"
         id="path1367"
         inkscape:connector-curvature="0" />
      <path
         style="opacity:1;fill:#9d9d9d;fill-opacity:1;fill-rule:nonzero;stroke:#000000;stroke-width:10;stroke-linecap:round;stroke-linejoin:round;stroke-miterlimit:4;stroke-dasharray:none;stroke-dashoffset:0;stroke-opacity:1;paint-order:normal"
         d="m 270.66406,154.37688 c -55.22855,0 -100.0001,36.41711 -100,81.33985 l 0.004,0.082 h -0.004 v 143.99812 l -2.71094,17.14843 h 9.89454 l 91.98437,-70.30273 91.98438,70.30273 H 373.375 l -2.71094,-17.14843 V 235.79876 h -0.006 l 0.006,-0.082 c 10e-5,-44.92274 -44.77145,-81.33985 -100,-81.33985 z m -85.71484,133.26374 c 0,0 70.22782,31.07956 71.6582,33.53126 1.43034,2.45168 1.30664,11.64648 1.30664,11.64648 l -73.67968,-9.62695 0.71484,-22.06641 z m 171.42969,0 V 301.125 l 0.71484,22.06641 -73.67969,9.62695 c 0,0 -0.1237,-9.19479 1.30664,-11.64648 1.43038,-2.4517 71.65821,-33.53126 71.65821,-33.53126 z"
         transform="matrix(0.75000359,0,0,0.75000359,-9.25e-4,0)"
         id="path1319"
         inkscape:connector-curvature="0"
         sodipodi:nodetypes="scccccccccccccscccccccccccc" />
      <path
         inkscape:connector-curvature="0"
         style="opacity:1;fill:#5e5e5e;fill-opacity:1;fill-rule:nonzero;stroke:#000000;stroke-width:10;stroke-linecap:round;stroke-linejoin:round;stroke-miterlimit:4;stroke-dasharray:none;stroke-dashoffset:0;stroke-opacity:1;paint-order:normal"
         d="m 267.50195,154.42188 c -53.76432,1.3593 -96.83799,37.23328 -96.83789,81.29492 l 0.004,0.082 h -0.004 v 143.99805 l -2.71094,17.14843 h 9.89454 l 89.65429,-68.52148 z m -82.55273,133.21874 c 0,0 70.22782,31.07956 71.6582,33.53126 1.43034,2.45167 1.30664,11.64648 1.30664,11.64648 l -73.67968,-9.62695 0.71484,-22.06641 z"
         transform="matrix(0.75000359,0,0,0.75000359,-9.25e-4,0)"
         id="path1354" />
      <path
         style="fill:#2f2f2f;fill-opacity:1;stroke:none;stroke-width:1px;stroke-linecap:butt;stroke-linejoin:miter;stroke-opacity:1"
         d="m 187.69531,198.55079 c -0.64298,0.38272 -2.28834,2.23749 -5.78906,9.96093 -6.77955,14.95737 -6.66029,22.34988 -7.00586,29.49023 l 0.52344,23.65821 46.14575,-0.2937 c 0,0 -39.53021,-7.31517 -38.13208,-46.03052 0.15003,-4.15452 4.17778,-16.53586 4.25781,-16.78515 z"
         transform="matrix(0.75000359,0,0,0.75000359,-9.25e-4,0)"
         id="path1375"
         inkscape:connector-curvature="0"
         sodipodi:nodetypes="cscccsc" />
      <path
         style="opacity:1;fill:#1b1b1b;fill-opacity:1;fill-rule:nonzero;stroke:#000000;stroke-width:3.75001788;stroke-linecap:round;stroke-linejoin:round;stroke-miterlimit:4;stroke-dasharray:none;stroke-dashoffset:0;stroke-opacity:1;paint-order:normal"
         d="m 123.92992,192.64922 c 0,0 35.11964,4.3761 52.71212,5.25003 17.59248,0.87393 35.11641,0.93618 52.71211,0 17.5957,-0.93618 52.71212,-5.62503 52.71212,-5.62503 v 9.66106 c 0,0 -35.11642,4.68885 -52.71212,5.62503 -17.5957,0.93618 -35.11963,0.87393 -52.71211,0 -17.59248,-0.87393 -52.71212,-5.25003 -52.71212,-5.25003 z"
         id="rect1349"
         inkscape:connector-curvature="0"
         sodipodi:nodetypes="czzcczzcc" />
      <path
         inkscape:connector-curvature="0"
         style="opacity:1;fill:#333333;fill-opacity:1;fill-rule:nonzero;stroke:#000000;stroke-width:2;stroke-linecap:round;stroke-linejoin:round;stroke-miterlimit:4;stroke-dasharray:none;stroke-dashoffset:0;stroke-opacity:1;paint-order:normal"
         d="m 270.66406,84.880859 -9.5664,42.716801 9.5664,26.77929 -10.63672,-22 -3.93945,17.58985 v 193.21875 h 29.15234 V 149.9668 Z"
         transform="matrix(0.75000359,0,0,0.75000359,-9.25e-4,0)"
         id="rect1333" />
      <path
         style="opacity:1;fill:#5d5d5d;fill-opacity:1;fill-rule:nonzero;stroke:none;stroke-width:3.78725505;stroke-linecap:round;stroke-linejoin:round;stroke-miterlimit:4;stroke-dasharray:none;stroke-dashoffset:0;stroke-opacity:1;paint-order:normal"
         d="m 202.96429,69.69411 v 186.54038 h 9.99264 V 112.64431 Z"
         id="path1359"
         inkscape:connector-curvature="0" />
      <path
         style="fill:#5e5e5e;fill-opacity:1;stroke:none;stroke-width:0.75000358px;stroke-linecap:butt;stroke-linejoin:miter;stroke-opacity:1"
         d="m 214.46793,120.00057 c 0,0 16.50008,8.16847 37.31268,27.85607 8.13859,8.38683 7.2471,5.85851 -3.34285,12.08163 -24.86224,19.04028 -33.85057,36.18767 -33.85057,36.18767 z"
         id="path1380"
         inkscape:connector-curvature="0"
         sodipodi:nodetypes="ccccc" />
    </g>
  </g>
</svg>
