<?xml version="1.0" encoding="UTF-8" standalone="no"?>
<!-- Created with Inkscape (http://www.inkscape.org/) -->

<svg
   xmlns:dc="http://purl.org/dc/elements/1.1/"
   xmlns:cc="http://creativecommons.org/ns#"
   xmlns:rdf="http://www.w3.org/1999/02/22-rdf-syntax-ns#"
   xmlns:svg="http://www.w3.org/2000/svg"
   xmlns="http://www.w3.org/2000/svg"
   xmlns:sodipodi="http://sodipodi.sourceforge.net/DTD/sodipodi-0.dtd"
   xmlns:inkscape="http://www.inkscape.org/namespaces/inkscape"
   width="480"
   height="480"
   viewBox="0 0 127 127"
   version="1.1"
   id="svg8"
   inkscape:version="0.92.3 (2405546, 2018-03-11)"
   sodipodi:docname="disegno.svg">
  <defs
     id="defs2" />
  <sodipodi:namedview
     id="base"
     pagecolor="#ffffff"
     bordercolor="#666666"
     borderopacity="1.0"
     inkscape:pageopacity="0.0"
     inkscape:pageshadow="2"
     inkscape:zoom="0.98994949"
     inkscape:cx="239.25728"
     inkscape:cy="297.23815"
     inkscape:document-units="mm"
     inkscape:current-layer="layer1"
     showgrid="true"
     units="px"
     inkscape:snap-global="false"
     inkscape:window-width="1920"
     inkscape:window-height="1017"
     inkscape:window-x="-8"
     inkscape:window-y="-8"
     inkscape:window-maximized="1">
    <inkscape:grid
       type="xygrid"
       id="grid3713"
       spacingx="21.166667"
       spacingy="21.166667" />
  </sodipodi:namedview>
  <metadata
     id="metadata5">
    <rdf:RDF>
      <cc:Work
         rdf:about="">
        <dc:format>image/svg+xml</dc:format>
        <dc:type
           rdf:resource="http://purl.org/dc/dcmitype/StillImage" />
        <dc:title></dc:title>
      </cc:Work>
    </rdf:RDF>
  </metadata>
  <g
     inkscape:label="Livello 1"
     inkscape:groupmode="layer"
     id="layer1"
     transform="translate(0,-169.99998)">
    <g
       id="g6929">
      <g
         id="g6325">
        <g
           id="g5961"
           transform="translate(127)">
          <rect
             style="fill:#483e37;fill-opacity:1;stroke-width:0.26192921"
             id="rect5933"
             width="21.166666"
             height="21.166666"
             x="-84.666664"
             y="169.99998" />
          <g
             id="g5959"
             style="fill:#c8beb7">
            <g
               id="g5939"
               style="fill:#c8beb7">
              <rect
                 style="fill:#c8beb7;fill-opacity:1;stroke-width:0.21749422"
                 id="rect5935"
                 width="10.054167"
                 height="4.7624998"
                 x="-84.402084"
                 y="170.26456"
                 ry="1.190625" />
              <rect
                 ry="1.190625"
                 y="170.26456"
                 x="-73.818748"
                 height="4.7624998"
                 width="10.054167"
                 id="rect5937"
                 style="fill:#c8beb7;fill-opacity:1;stroke-width:0.21749422" />
            </g>
            <path
               id="path5941"
               transform="matrix(0.26458333,0,0,0.26458333,0,169.99998)"
               d="m -320,61 v 18 h 14.5 c 2.493,0 4.5,-2.007 4.5,-4.5 v -9 c 0,-2.493 -2.007,-4.5 -4.5,-4.5 z"
               style="fill:#c8beb7;fill-opacity:1;stroke-width:0.82202542"
               inkscape:connector-curvature="0" />
            <rect
               ry="1.190625"
               y="186.13956"
               x="-79.110413"
               height="4.7624998"
               width="10.054167"
               id="rect5943"
               style="fill:#c8beb7;fill-opacity:1;stroke-width:0.21749422" />
            <path
               id="path5945"
               transform="matrix(0.26458333,0,0,0.26458333,0,169.99998)"
               d="m -254.5,61 c -2.493,0 -4.5,2.007 -4.5,4.5 v 9 c 0,2.493 2.007,4.5 4.5,4.5 H -240 V 61 Z"
               style="fill:#c8beb7;fill-opacity:1;stroke-width:0.82202542"
               inkscape:connector-curvature="0" />
            <g
               id="g5951"
               style="fill:#c8beb7">
              <rect
                 style="fill:#c8beb7;fill-opacity:1;stroke-width:0.21749422"
                 id="rect5947"
                 width="10.054167"
                 height="4.7624998"
                 x="-84.354836"
                 y="180.8479"
                 ry="1.190625" />
              <rect
                 ry="1.190625"
                 y="180.8479"
                 x="-73.7715"
                 height="4.7624998"
                 width="10.054167"
                 id="rect5949"
                 style="fill:#c8beb7;fill-opacity:1;stroke-width:0.21749422" />
            </g>
            <path
               id="path5953"
               transform="matrix(0.26458333,0,0,0.26458333,0,169.99998)"
               d="m -320,21 v 18 h 14.5 c 2.493,0 4.5,-2.007 4.5,-4.5 v -9 c 0,-2.493 -2.007,-4.5 -4.5,-4.5 z"
               style="fill:#c8beb7;fill-opacity:1;stroke-width:0.82202542"
               inkscape:connector-curvature="0" />
            <rect
               ry="1.190625"
               y="175.55623"
               x="-79.110413"
               height="4.7624998"
               width="10.054167"
               id="rect5955"
               style="fill:#c8beb7;fill-opacity:1;stroke-width:0.21749422" />
            <path
               id="path5957"
               transform="matrix(0.26458333,0,0,0.26458333,0,169.99998)"
               d="m -254.5,21 c -2.493,0 -4.5,2.007 -4.5,4.5 v 9 c 0,2.493 2.007,4.5 4.5,4.5 H -240 V 21 Z"
               style="fill:#c8beb7;fill-opacity:1;stroke-width:0.82202542"
               inkscape:connector-curvature="0" />
          </g>
        </g>
        <g
           id="g5991"
           transform="translate(105.83333)">
          <rect
             y="169.99998"
             x="-84.666664"
             height="21.166666"
             width="21.166666"
             id="rect5963"
             style="fill:#483e37;fill-opacity:1;stroke-width:0.26192921" />
          <g
             style="fill:#c8beb7"
             id="g5989">
            <g
               style="fill:#c8beb7"
               id="g5969">
              <rect
                 ry="1.190625"
                 y="170.26456"
                 x="-84.402084"
                 height="4.7624998"
                 width="10.054167"
                 id="rect5965"
                 style="fill:#c8beb7;fill-opacity:1;stroke-width:0.21749422" />
              <rect
                 style="fill:#c8beb7;fill-opacity:1;stroke-width:0.21749422"
                 id="rect5967"
                 width="10.054167"
                 height="4.7624998"
                 x="-73.818748"
                 y="170.26456"
                 ry="1.190625" />
            </g>
            <path
               style="fill:#c8beb7;fill-opacity:1;stroke-width:0.82202542"
               d="m -320,61 v 18 h 14.5 c 2.493,0 4.5,-2.007 4.5,-4.5 v -9 c 0,-2.493 -2.007,-4.5 -4.5,-4.5 z"
               transform="matrix(0.26458333,0,0,0.26458333,0,169.99998)"
               id="path5971"
               inkscape:connector-curvature="0" />
            <rect
               style="fill:#c8beb7;fill-opacity:1;stroke-width:0.21749422"
               id="rect5973"
               width="10.054167"
               height="4.7624998"
               x="-79.110413"
               y="186.13956"
               ry="1.190625" />
            <path
               style="fill:#c8beb7;fill-opacity:1;stroke-width:0.82202542"
               d="m -254.5,61 c -2.493,0 -4.5,2.007 -4.5,4.5 v 9 c 0,2.493 2.007,4.5 4.5,4.5 H -240 V 61 Z"
               transform="matrix(0.26458333,0,0,0.26458333,0,169.99998)"
               id="path5975"
               inkscape:connector-curvature="0" />
            <g
               style="fill:#c8beb7"
               id="g5981">
              <rect
                 ry="1.190625"
                 y="180.8479"
                 x="-84.354836"
                 height="4.7624998"
                 width="10.054167"
                 id="rect5977"
                 style="fill:#c8beb7;fill-opacity:1;stroke-width:0.21749422" />
              <rect
                 style="fill:#c8beb7;fill-opacity:1;stroke-width:0.21749422"
                 id="rect5979"
                 width="10.054167"
                 height="4.7624998"
                 x="-73.7715"
                 y="180.8479"
                 ry="1.190625" />
            </g>
            <path
               style="fill:#c8beb7;fill-opacity:1;stroke-width:0.82202542"
               d="m -320,21 v 18 h 14.5 c 2.493,0 4.5,-2.007 4.5,-4.5 v -9 c 0,-2.493 -2.007,-4.5 -4.5,-4.5 z"
               transform="matrix(0.26458333,0,0,0.26458333,0,169.99998)"
               id="path5983"
               inkscape:connector-curvature="0" />
            <rect
               style="fill:#c8beb7;fill-opacity:1;stroke-width:0.21749422"
               id="rect5985"
               width="10.054167"
               height="4.7624998"
               x="-79.110413"
               y="175.55623"
               ry="1.190625" />
            <path
               style="fill:#c8beb7;fill-opacity:1;stroke-width:0.82202542"
               d="m -254.5,21 c -2.493,0 -4.5,2.007 -4.5,4.5 v 9 c 0,2.493 2.007,4.5 4.5,4.5 H -240 V 21 Z"
               transform="matrix(0.26458333,0,0,0.26458333,0,169.99998)"
               id="path5987"
               inkscape:connector-curvature="0" />
          </g>
        </g>
        <g
           id="g6021"
           transform="translate(84.666666)">
          <rect
             style="fill:#483e37;fill-opacity:1;stroke-width:0.26192921"
             id="rect5993"
             width="21.166666"
             height="21.166666"
             x="-84.666664"
             y="169.99998" />
          <g
             id="g6019"
             style="fill:#c8beb7">
            <g
               id="g5999"
               style="fill:#c8beb7">
              <rect
                 style="fill:#c8beb7;fill-opacity:1;stroke-width:0.21749422"
                 id="rect5995"
                 width="10.054167"
                 height="4.7624998"
                 x="-84.402084"
                 y="170.26456"
                 ry="1.190625" />
              <rect
                 ry="1.190625"
                 y="170.26456"
                 x="-73.818748"
                 height="4.7624998"
                 width="10.054167"
                 id="rect5997"
                 style="fill:#c8beb7;fill-opacity:1;stroke-width:0.21749422" />
            </g>
            <path
               id="path6001"
               transform="matrix(0.26458333,0,0,0.26458333,0,169.99998)"
               d="m -320,61 v 18 h 14.5 c 2.493,0 4.5,-2.007 4.5,-4.5 v -9 c 0,-2.493 -2.007,-4.5 -4.5,-4.5 z"
               style="fill:#c8beb7;fill-opacity:1;stroke-width:0.82202542"
               inkscape:connector-curvature="0" />
            <rect
               ry="1.190625"
               y="186.13956"
               x="-79.110413"
               height="4.7624998"
               width="10.054167"
               id="rect6003"
               style="fill:#c8beb7;fill-opacity:1;stroke-width:0.21749422" />
            <path
               id="path6005"
               transform="matrix(0.26458333,0,0,0.26458333,0,169.99998)"
               d="m -254.5,61 c -2.493,0 -4.5,2.007 -4.5,4.5 v 9 c 0,2.493 2.007,4.5 4.5,4.5 H -240 V 61 Z"
               style="fill:#c8beb7;fill-opacity:1;stroke-width:0.82202542"
               inkscape:connector-curvature="0" />
            <g
               id="g6011"
               style="fill:#c8beb7">
              <rect
                 style="fill:#c8beb7;fill-opacity:1;stroke-width:0.21749422"
                 id="rect6007"
                 width="10.054167"
                 height="4.7624998"
                 x="-84.354836"
                 y="180.8479"
                 ry="1.190625" />
              <rect
                 ry="1.190625"
                 y="180.8479"
                 x="-73.7715"
                 height="4.7624998"
                 width="10.054167"
                 id="rect6009"
                 style="fill:#c8beb7;fill-opacity:1;stroke-width:0.21749422" />
            </g>
            <path
               id="path6013"
               transform="matrix(0.26458333,0,0,0.26458333,0,169.99998)"
               d="m -320,21 v 18 h 14.5 c 2.493,0 4.5,-2.007 4.5,-4.5 v -9 c 0,-2.493 -2.007,-4.5 -4.5,-4.5 z"
               style="fill:#c8beb7;fill-opacity:1;stroke-width:0.82202542"
               inkscape:connector-curvature="0" />
            <rect
               ry="1.190625"
               y="175.55623"
               x="-79.110413"
               height="4.7624998"
               width="10.054167"
               id="rect6015"
               style="fill:#c8beb7;fill-opacity:1;stroke-width:0.21749422" />
            <path
               id="path6017"
               transform="matrix(0.26458333,0,0,0.26458333,0,169.99998)"
               d="m -254.5,21 c -2.493,0 -4.5,2.007 -4.5,4.5 v 9 c 0,2.493 2.007,4.5 4.5,4.5 H -240 V 21 Z"
               style="fill:#c8beb7;fill-opacity:1;stroke-width:0.82202542"
               inkscape:connector-curvature="0" />
          </g>
        </g>
      </g>
      <g
         transform="translate(0,21.166664)"
         id="g6417">
        <g
           transform="translate(127)"
           id="g6355">
          <rect
             y="169.99998"
             x="-84.666664"
             height="21.166666"
             width="21.166666"
             id="rect6327"
             style="fill:#483e37;fill-opacity:1;stroke-width:0.26192921" />
          <g
             style="fill:#c8beb7"
             id="g6353">
            <g
               style="fill:#c8beb7"
               id="g6333">
              <rect
                 ry="1.190625"
                 y="170.26456"
                 x="-84.402084"
                 height="4.7624998"
                 width="10.054167"
                 id="rect6329"
                 style="fill:#c8beb7;fill-opacity:1;stroke-width:0.21749422" />
              <rect
                 style="fill:#c8beb7;fill-opacity:1;stroke-width:0.21749422"
                 id="rect6331"
                 width="10.054167"
                 height="4.7624998"
                 x="-73.818748"
                 y="170.26456"
                 ry="1.190625" />
            </g>
            <path
               inkscape:connector-curvature="0"
               style="fill:#c8beb7;fill-opacity:1;stroke-width:0.82202542"
               d="m -320,61 v 18 h 14.5 c 2.493,0 4.5,-2.007 4.5,-4.5 v -9 c 0,-2.493 -2.007,-4.5 -4.5,-4.5 z"
               transform="matrix(0.26458333,0,0,0.26458333,0,169.99998)"
               id="path6335" />
            <rect
               style="fill:#c8beb7;fill-opacity:1;stroke-width:0.21749422"
               id="rect6337"
               width="10.054167"
               height="4.7624998"
               x="-79.110413"
               y="186.13956"
               ry="1.190625" />
            <path
               inkscape:connector-curvature="0"
               style="fill:#c8beb7;fill-opacity:1;stroke-width:0.82202542"
               d="m -254.5,61 c -2.493,0 -4.5,2.007 -4.5,4.5 v 9 c 0,2.493 2.007,4.5 4.5,4.5 H -240 V 61 Z"
               transform="matrix(0.26458333,0,0,0.26458333,0,169.99998)"
               id="path6339" />
            <g
               style="fill:#c8beb7"
               id="g6345">
              <rect
                 ry="1.190625"
                 y="180.8479"
                 x="-84.354836"
                 height="4.7624998"
                 width="10.054167"
                 id="rect6341"
                 style="fill:#c8beb7;fill-opacity:1;stroke-width:0.21749422" />
              <rect
                 style="fill:#c8beb7;fill-opacity:1;stroke-width:0.21749422"
                 id="rect6343"
                 width="10.054167"
                 height="4.7624998"
                 x="-73.7715"
                 y="180.8479"
                 ry="1.190625" />
            </g>
            <path
               inkscape:connector-curvature="0"
               style="fill:#c8beb7;fill-opacity:1;stroke-width:0.82202542"
               d="m -320,21 v 18 h 14.5 c 2.493,0 4.5,-2.007 4.5,-4.5 v -9 c 0,-2.493 -2.007,-4.5 -4.5,-4.5 z"
               transform="matrix(0.26458333,0,0,0.26458333,0,169.99998)"
               id="path6347" />
            <rect
               style="fill:#c8beb7;fill-opacity:1;stroke-width:0.21749422"
               id="rect6349"
               width="10.054167"
               height="4.7624998"
               x="-79.110413"
               y="175.55623"
               ry="1.190625" />
            <path
               inkscape:connector-curvature="0"
               style="fill:#c8beb7;fill-opacity:1;stroke-width:0.82202542"
               d="m -254.5,21 c -2.493,0 -4.5,2.007 -4.5,4.5 v 9 c 0,2.493 2.007,4.5 4.5,4.5 H -240 V 21 Z"
               transform="matrix(0.26458333,0,0,0.26458333,0,169.99998)"
               id="path6351" />
          </g>
        </g>
        <g
           transform="translate(105.83333)"
           id="g6385">
          <rect
             style="fill:#483e37;fill-opacity:1;stroke-width:0.26192921"
             id="rect6357"
             width="21.166666"
             height="21.166666"
             x="-84.666664"
             y="169.99998" />
          <g
             id="g6383"
             style="fill:#c8beb7">
            <g
               id="g6363"
               style="fill:#c8beb7">
              <rect
                 style="fill:#c8beb7;fill-opacity:1;stroke-width:0.21749422"
                 id="rect6359"
                 width="10.054167"
                 height="4.7624998"
                 x="-84.402084"
                 y="170.26456"
                 ry="1.190625" />
              <rect
                 ry="1.190625"
                 y="170.26456"
                 x="-73.818748"
                 height="4.7624998"
                 width="10.054167"
                 id="rect6361"
                 style="fill:#c8beb7;fill-opacity:1;stroke-width:0.21749422" />
            </g>
            <path
               inkscape:connector-curvature="0"
               id="path6365"
               transform="matrix(0.26458333,0,0,0.26458333,0,169.99998)"
               d="m -320,61 v 18 h 14.5 c 2.493,0 4.5,-2.007 4.5,-4.5 v -9 c 0,-2.493 -2.007,-4.5 -4.5,-4.5 z"
               style="fill:#c8beb7;fill-opacity:1;stroke-width:0.82202542" />
            <rect
               ry="1.190625"
               y="186.13956"
               x="-79.110413"
               height="4.7624998"
               width="10.054167"
               id="rect6367"
               style="fill:#c8beb7;fill-opacity:1;stroke-width:0.21749422" />
            <path
               inkscape:connector-curvature="0"
               id="path6369"
               transform="matrix(0.26458333,0,0,0.26458333,0,169.99998)"
               d="m -254.5,61 c -2.493,0 -4.5,2.007 -4.5,4.5 v 9 c 0,2.493 2.007,4.5 4.5,4.5 H -240 V 61 Z"
               style="fill:#c8beb7;fill-opacity:1;stroke-width:0.82202542" />
            <g
               id="g6375"
               style="fill:#c8beb7">
              <rect
                 style="fill:#c8beb7;fill-opacity:1;stroke-width:0.21749422"
                 id="rect6371"
                 width="10.054167"
                 height="4.7624998"
                 x="-84.354836"
                 y="180.8479"
                 ry="1.190625" />
              <rect
                 ry="1.190625"
                 y="180.8479"
                 x="-73.7715"
                 height="4.7624998"
                 width="10.054167"
                 id="rect6373"
                 style="fill:#c8beb7;fill-opacity:1;stroke-width:0.21749422" />
            </g>
            <path
               inkscape:connector-curvature="0"
               id="path6377"
               transform="matrix(0.26458333,0,0,0.26458333,0,169.99998)"
               d="m -320,21 v 18 h 14.5 c 2.493,0 4.5,-2.007 4.5,-4.5 v -9 c 0,-2.493 -2.007,-4.5 -4.5,-4.5 z"
               style="fill:#c8beb7;fill-opacity:1;stroke-width:0.82202542" />
            <rect
               ry="1.190625"
               y="175.55623"
               x="-79.110413"
               height="4.7624998"
               width="10.054167"
               id="rect6379"
               style="fill:#c8beb7;fill-opacity:1;stroke-width:0.21749422" />
            <path
               inkscape:connector-curvature="0"
               id="path6381"
               transform="matrix(0.26458333,0,0,0.26458333,0,169.99998)"
               d="m -254.5,21 c -2.493,0 -4.5,2.007 -4.5,4.5 v 9 c 0,2.493 2.007,4.5 4.5,4.5 H -240 V 21 Z"
               style="fill:#c8beb7;fill-opacity:1;stroke-width:0.82202542" />
          </g>
        </g>
        <g
           transform="translate(84.666666)"
           id="g6415">
          <rect
             y="169.99998"
             x="-84.666664"
             height="21.166666"
             width="21.166666"
             id="rect6387"
             style="fill:#483e37;fill-opacity:1;stroke-width:0.26192921" />
          <g
             style="fill:#c8beb7"
             id="g6413">
            <g
               style="fill:#c8beb7"
               id="g6393">
              <rect
                 ry="1.190625"
                 y="170.26456"
                 x="-84.402084"
                 height="4.7624998"
                 width="10.054167"
                 id="rect6389"
                 style="fill:#c8beb7;fill-opacity:1;stroke-width:0.21749422" />
              <rect
                 style="fill:#c8beb7;fill-opacity:1;stroke-width:0.21749422"
                 id="rect6391"
                 width="10.054167"
                 height="4.7624998"
                 x="-73.818748"
                 y="170.26456"
                 ry="1.190625" />
            </g>
            <path
               inkscape:connector-curvature="0"
               style="fill:#c8beb7;fill-opacity:1;stroke-width:0.82202542"
               d="m -320,61 v 18 h 14.5 c 2.493,0 4.5,-2.007 4.5,-4.5 v -9 c 0,-2.493 -2.007,-4.5 -4.5,-4.5 z"
               transform="matrix(0.26458333,0,0,0.26458333,0,169.99998)"
               id="path6395" />
            <rect
               style="fill:#c8beb7;fill-opacity:1;stroke-width:0.21749422"
               id="rect6397"
               width="10.054167"
               height="4.7624998"
               x="-79.110413"
               y="186.13956"
               ry="1.190625" />
            <path
               inkscape:connector-curvature="0"
               style="fill:#c8beb7;fill-opacity:1;stroke-width:0.82202542"
               d="m -254.5,61 c -2.493,0 -4.5,2.007 -4.5,4.5 v 9 c 0,2.493 2.007,4.5 4.5,4.5 H -240 V 61 Z"
               transform="matrix(0.26458333,0,0,0.26458333,0,169.99998)"
               id="path6399" />
            <g
               style="fill:#c8beb7"
               id="g6405">
              <rect
                 ry="1.190625"
                 y="180.8479"
                 x="-84.354836"
                 height="4.7624998"
                 width="10.054167"
                 id="rect6401"
                 style="fill:#c8beb7;fill-opacity:1;stroke-width:0.21749422" />
              <rect
                 style="fill:#c8beb7;fill-opacity:1;stroke-width:0.21749422"
                 id="rect6403"
                 width="10.054167"
                 height="4.7624998"
                 x="-73.7715"
                 y="180.8479"
                 ry="1.190625" />
            </g>
            <path
               inkscape:connector-curvature="0"
               style="fill:#c8beb7;fill-opacity:1;stroke-width:0.82202542"
               d="m -320,21 v 18 h 14.5 c 2.493,0 4.5,-2.007 4.5,-4.5 v -9 c 0,-2.493 -2.007,-4.5 -4.5,-4.5 z"
               transform="matrix(0.26458333,0,0,0.26458333,0,169.99998)"
               id="path6407" />
            <rect
               style="fill:#c8beb7;fill-opacity:1;stroke-width:0.21749422"
               id="rect6409"
               width="10.054167"
               height="4.7624998"
               x="-79.110413"
               y="175.55623"
               ry="1.190625" />
            <path
               inkscape:connector-curvature="0"
               style="fill:#c8beb7;fill-opacity:1;stroke-width:0.82202542"
               d="m -254.5,21 c -2.493,0 -4.5,2.007 -4.5,4.5 v 9 c 0,2.493 2.007,4.5 4.5,4.5 H -240 V 21 Z"
               transform="matrix(0.26458333,0,0,0.26458333,0,169.99998)"
               id="path6411" />
          </g>
        </g>
      </g>
      <g
         id="g6509"
         transform="translate(0,42.333329)">
        <g
           id="g6447"
           transform="translate(127)">
          <rect
             style="fill:#483e37;fill-opacity:1;stroke-width:0.26192921"
             id="rect6419"
             width="21.166666"
             height="21.166666"
             x="-84.666664"
             y="169.99998" />
          <g
             id="g6445"
             style="fill:#c8beb7">
            <g
               id="g6425"
               style="fill:#c8beb7">
              <rect
                 style="fill:#c8beb7;fill-opacity:1;stroke-width:0.21749422"
                 id="rect6421"
                 width="10.054167"
                 height="4.7624998"
                 x="-84.402084"
                 y="170.26456"
                 ry="1.190625" />
              <rect
                 ry="1.190625"
                 y="170.26456"
                 x="-73.818748"
                 height="4.7624998"
                 width="10.054167"
                 id="rect6423"
                 style="fill:#c8beb7;fill-opacity:1;stroke-width:0.21749422" />
            </g>
            <path
               id="path6427"
               transform="matrix(0.26458333,0,0,0.26458333,0,169.99998)"
               d="m -320,61 v 18 h 14.5 c 2.493,0 4.5,-2.007 4.5,-4.5 v -9 c 0,-2.493 -2.007,-4.5 -4.5,-4.5 z"
               style="fill:#c8beb7;fill-opacity:1;stroke-width:0.82202542"
               inkscape:connector-curvature="0" />
            <rect
               ry="1.190625"
               y="186.13956"
               x="-79.110413"
               height="4.7624998"
               width="10.054167"
               id="rect6429"
               style="fill:#c8beb7;fill-opacity:1;stroke-width:0.21749422" />
            <path
               id="path6431"
               transform="matrix(0.26458333,0,0,0.26458333,0,169.99998)"
               d="m -254.5,61 c -2.493,0 -4.5,2.007 -4.5,4.5 v 9 c 0,2.493 2.007,4.5 4.5,4.5 H -240 V 61 Z"
               style="fill:#c8beb7;fill-opacity:1;stroke-width:0.82202542"
               inkscape:connector-curvature="0" />
            <g
               id="g6437"
               style="fill:#c8beb7">
              <rect
                 style="fill:#c8beb7;fill-opacity:1;stroke-width:0.21749422"
                 id="rect6433"
                 width="10.054167"
                 height="4.7624998"
                 x="-84.354836"
                 y="180.8479"
                 ry="1.190625" />
              <rect
                 ry="1.190625"
                 y="180.8479"
                 x="-73.7715"
                 height="4.7624998"
                 width="10.054167"
                 id="rect6435"
                 style="fill:#c8beb7;fill-opacity:1;stroke-width:0.21749422" />
            </g>
            <path
               id="path6439"
               transform="matrix(0.26458333,0,0,0.26458333,0,169.99998)"
               d="m -320,21 v 18 h 14.5 c 2.493,0 4.5,-2.007 4.5,-4.5 v -9 c 0,-2.493 -2.007,-4.5 -4.5,-4.5 z"
               style="fill:#c8beb7;fill-opacity:1;stroke-width:0.82202542"
               inkscape:connector-curvature="0" />
            <rect
               ry="1.190625"
               y="175.55623"
               x="-79.110413"
               height="4.7624998"
               width="10.054167"
               id="rect6441"
               style="fill:#c8beb7;fill-opacity:1;stroke-width:0.21749422" />
            <path
               id="path6443"
               transform="matrix(0.26458333,0,0,0.26458333,0,169.99998)"
               d="m -254.5,21 c -2.493,0 -4.5,2.007 -4.5,4.5 v 9 c 0,2.493 2.007,4.5 4.5,4.5 H -240 V 21 Z"
               style="fill:#c8beb7;fill-opacity:1;stroke-width:0.82202542"
               inkscape:connector-curvature="0" />
          </g>
        </g>
        <g
           id="g6477"
           transform="translate(105.83333)">
          <rect
             y="169.99998"
             x="-84.666664"
             height="21.166666"
             width="21.166666"
             id="rect6449"
             style="fill:#483e37;fill-opacity:1;stroke-width:0.26192921" />
          <g
             style="fill:#c8beb7"
             id="g6475">
            <g
               style="fill:#c8beb7"
               id="g6455">
              <rect
                 ry="1.190625"
                 y="170.26456"
                 x="-84.402084"
                 height="4.7624998"
                 width="10.054167"
                 id="rect6451"
                 style="fill:#c8beb7;fill-opacity:1;stroke-width:0.21749422" />
              <rect
                 style="fill:#c8beb7;fill-opacity:1;stroke-width:0.21749422"
                 id="rect6453"
                 width="10.054167"
                 height="4.7624998"
                 x="-73.818748"
                 y="170.26456"
                 ry="1.190625" />
            </g>
            <path
               style="fill:#c8beb7;fill-opacity:1;stroke-width:0.82202542"
               d="m -320,61 v 18 h 14.5 c 2.493,0 4.5,-2.007 4.5,-4.5 v -9 c 0,-2.493 -2.007,-4.5 -4.5,-4.5 z"
               transform="matrix(0.26458333,0,0,0.26458333,0,169.99998)"
               id="path6457"
               inkscape:connector-curvature="0" />
            <rect
               style="fill:#c8beb7;fill-opacity:1;stroke-width:0.21749422"
               id="rect6459"
               width="10.054167"
               height="4.7624998"
               x="-79.110413"
               y="186.13956"
               ry="1.190625" />
            <path
               style="fill:#c8beb7;fill-opacity:1;stroke-width:0.82202542"
               d="m -254.5,61 c -2.493,0 -4.5,2.007 -4.5,4.5 v 9 c 0,2.493 2.007,4.5 4.5,4.5 H -240 V 61 Z"
               transform="matrix(0.26458333,0,0,0.26458333,0,169.99998)"
               id="path6461"
               inkscape:connector-curvature="0" />
            <g
               style="fill:#c8beb7"
               id="g6467">
              <rect
                 ry="1.190625"
                 y="180.8479"
                 x="-84.354836"
                 height="4.7624998"
                 width="10.054167"
                 id="rect6463"
                 style="fill:#c8beb7;fill-opacity:1;stroke-width:0.21749422" />
              <rect
                 style="fill:#c8beb7;fill-opacity:1;stroke-width:0.21749422"
                 id="rect6465"
                 width="10.054167"
                 height="4.7624998"
                 x="-73.7715"
                 y="180.8479"
                 ry="1.190625" />
            </g>
            <path
               style="fill:#c8beb7;fill-opacity:1;stroke-width:0.82202542"
               d="m -320,21 v 18 h 14.5 c 2.493,0 4.5,-2.007 4.5,-4.5 v -9 c 0,-2.493 -2.007,-4.5 -4.5,-4.5 z"
               transform="matrix(0.26458333,0,0,0.26458333,0,169.99998)"
               id="path6469"
               inkscape:connector-curvature="0" />
            <rect
               style="fill:#c8beb7;fill-opacity:1;stroke-width:0.21749422"
               id="rect6471"
               width="10.054167"
               height="4.7624998"
               x="-79.110413"
               y="175.55623"
               ry="1.190625" />
            <path
               style="fill:#c8beb7;fill-opacity:1;stroke-width:0.82202542"
               d="m -254.5,21 c -2.493,0 -4.5,2.007 -4.5,4.5 v 9 c 0,2.493 2.007,4.5 4.5,4.5 H -240 V 21 Z"
               transform="matrix(0.26458333,0,0,0.26458333,0,169.99998)"
               id="path6473"
               inkscape:connector-curvature="0" />
          </g>
        </g>
        <g
           id="g6507"
           transform="translate(84.666666)">
          <rect
             style="fill:#483e37;fill-opacity:1;stroke-width:0.26192921"
             id="rect6479"
             width="21.166666"
             height="21.166666"
             x="-84.666664"
             y="169.99998" />
          <g
             id="g6505"
             style="fill:#c8beb7">
            <g
               id="g6485"
               style="fill:#c8beb7">
              <rect
                 style="fill:#c8beb7;fill-opacity:1;stroke-width:0.21749422"
                 id="rect6481"
                 width="10.054167"
                 height="4.7624998"
                 x="-84.402084"
                 y="170.26456"
                 ry="1.190625" />
              <rect
                 ry="1.190625"
                 y="170.26456"
                 x="-73.818748"
                 height="4.7624998"
                 width="10.054167"
                 id="rect6483"
                 style="fill:#c8beb7;fill-opacity:1;stroke-width:0.21749422" />
            </g>
            <path
               id="path6487"
               transform="matrix(0.26458333,0,0,0.26458333,0,169.99998)"
               d="m -320,61 v 18 h 14.5 c 2.493,0 4.5,-2.007 4.5,-4.5 v -9 c 0,-2.493 -2.007,-4.5 -4.5,-4.5 z"
               style="fill:#c8beb7;fill-opacity:1;stroke-width:0.82202542"
               inkscape:connector-curvature="0" />
            <rect
               ry="1.190625"
               y="186.13956"
               x="-79.110413"
               height="4.7624998"
               width="10.054167"
               id="rect6489"
               style="fill:#c8beb7;fill-opacity:1;stroke-width:0.21749422" />
            <path
               id="path6491"
               transform="matrix(0.26458333,0,0,0.26458333,0,169.99998)"
               d="m -254.5,61 c -2.493,0 -4.5,2.007 -4.5,4.5 v 9 c 0,2.493 2.007,4.5 4.5,4.5 H -240 V 61 Z"
               style="fill:#c8beb7;fill-opacity:1;stroke-width:0.82202542"
               inkscape:connector-curvature="0" />
            <g
               id="g6497"
               style="fill:#c8beb7">
              <rect
                 style="fill:#c8beb7;fill-opacity:1;stroke-width:0.21749422"
                 id="rect6493"
                 width="10.054167"
                 height="4.7624998"
                 x="-84.354836"
                 y="180.8479"
                 ry="1.190625" />
              <rect
                 ry="1.190625"
                 y="180.8479"
                 x="-73.7715"
                 height="4.7624998"
                 width="10.054167"
                 id="rect6495"
                 style="fill:#c8beb7;fill-opacity:1;stroke-width:0.21749422" />
            </g>
            <path
               id="path6499"
               transform="matrix(0.26458333,0,0,0.26458333,0,169.99998)"
               d="m -320,21 v 18 h 14.5 c 2.493,0 4.5,-2.007 4.5,-4.5 v -9 c 0,-2.493 -2.007,-4.5 -4.5,-4.5 z"
               style="fill:#c8beb7;fill-opacity:1;stroke-width:0.82202542"
               inkscape:connector-curvature="0" />
            <rect
               ry="1.190625"
               y="175.55623"
               x="-79.110413"
               height="4.7624998"
               width="10.054167"
               id="rect6501"
               style="fill:#c8beb7;fill-opacity:1;stroke-width:0.21749422" />
            <path
               id="path6503"
               transform="matrix(0.26458333,0,0,0.26458333,0,169.99998)"
               d="m -254.5,21 c -2.493,0 -4.5,2.007 -4.5,4.5 v 9 c 0,2.493 2.007,4.5 4.5,4.5 H -240 V 21 Z"
               style="fill:#c8beb7;fill-opacity:1;stroke-width:0.82202542"
               inkscape:connector-curvature="0" />
          </g>
        </g>
      </g>
    </g>
    <path
       style="fill:#94a749;stroke-width:0.26458332;fill-opacity:1"
       d="M 0.03358968,169.99998 C 0.01508128,169.99998 0,170.01506 0,170.03357 v 63.43282 c 0,0.0185 0.01508128,0.0336 0.03358968,0.0336 H 63.46641 c 0.01851,0 0.03359,-0.0151 0.03359,-0.0336 v -63.43282 c 0,-0.0185 -0.01508,-0.0336 -0.03359,-0.0336 z m 45.78738532,2.57976 c 4.766355,0.0126 6.319493,0.30254 9.508463,1.62929 1.904032,0.83679 4.006419,4.21749 4.307232,5.33404 0.756264,2.4369 0.962551,5.40956 1.217496,11.62358 v 21.16666 c -0.174948,5.67042 0.376663,14.72959 -4.631243,16.88218 -2.604227,1.79757 -6.472862,2.20813 -13.88959,1.63866 H 21.166666 c -2.059078,0.0885 -6.532826,1.15826 -8.928615,-0.20688 -2.395789,-1.36514 -2.4852306,-0.95682 -4.1246302,-2.09974 -1.6393993,-1.14291 -4.0312165,-3.04597 -4.1970118,-5.61531 -0.1657956,-2.56933 -1.0292008,-5.72124 -1.2705757,-10.59891 -0.1273138,-7.05293 -0.024342,-14.78872 0,-21.16666 0.8173749,-4.6587 -0.2547223,-6.44895 0.4320148,-8.66356 1.3519095,-5.76799 1.3982899,-5.97936 5.0089967,-8.11526 4.3335452,-1.60106 9.4075852,-1.62817 13.0798212,-1.74202 h 21.166667 c 0.764495,-0.0337 2.806734,-0.0679 3.487642,-0.0661 z"
       id="rect4262"
       inkscape:connector-curvature="0"
       sodipodi:nodetypes="ssssssssssccccccczzzccccccs" />
    <rect
       style="fill:#c8beb7;stroke-width:0.23380491"
       id="rect4634"
       width="21.166666"
       height="42.333332"
       x="63.5"
       y="191.16635"
       ry="0" />
    <path
       inkscape:connector-curvature="0"
       style="fill:#918a6f;stroke-width:0.13071649"
       d="m 64.794964,201.89125 c -0.543656,0 -0.98118,0.3289 -0.98118,0.73758 v 3.2459 c 0,0.40868 0.437524,0.73758 0.98118,0.73758 h 8.141664 c 0.543656,0 0.98118,-0.3289 0.98118,-0.73758 v -3.2459 c 0,-0.40868 -0.437524,-0.73758 -0.98118,-0.73758 z m 10.569377,0 c -0.543656,0 -0.98118,0.3289 -0.98118,0.73758 v 3.2459 c 0,0.40868 0.437524,0.73758 0.98118,0.73758 h 8.14116 c 0.543656,0 0.981684,-0.3289 0.981684,-0.73758 v -3.2459 c 0,-0.40868 -0.438028,-0.73758 -0.981684,-0.73758 z"
       id="rect4335" />
    <path
       style="fill:#918a6f;stroke-width:0.13226674"
       d="m 63.5,207.2684 v 4.72145 h 4.168738 c 0.424176,0 0.765844,-0.32928 0.765844,-0.73797 v -3.24552 c 0,-0.40868 -0.341668,-0.73796 -0.765844,-0.73796 z m 6.41563,0 c -0.556629,0 -1.005108,0.3289 -1.005108,0.73758 v 3.2459 c 0,0.40869 0.448479,0.73797 1.005108,0.73797 h 8.335405 c 0.556627,0 1.004593,-0.32928 1.004593,-0.73797 v -3.2459 c 0,-0.40868 -0.447966,-0.73758 -1.004593,-0.73758 z m 10.582298,0 c -0.42418,0 -0.76584,0.32928 -0.76584,0.73796 v 3.24552 c 0,0.40869 0.34166,0.73797 0.76584,0.73797 h 4.168739 v -4.72145 z"
       id="rect4344"
       inkscape:connector-curvature="0" />
    <path
       style="fill:#918a6f;stroke-width:0.13071649"
       d="m 64.841396,212.64631 c -0.543654,0 -0.981685,0.32891 -0.981685,0.73758 v 3.24591 c 3e-6,0.40868 0.438031,0.73758 0.981685,0.73758 h 8.141161 c 0.543657,0 0.981178,-0.3289 0.981178,-0.73758 v -3.24591 c 0,-0.40867 -0.437521,-0.73758 -0.981178,-0.73758 z m 10.569376,0 c -0.543653,0 -0.981681,0.32891 -0.981681,0.73758 v 3.24591 c 0,0.40868 0.438028,0.73758 0.981681,0.73758 h 8.141159 c 0.543658,0 0.981179,-0.3289 0.981179,-0.73758 v -3.24591 c 0,-0.40867 -0.437521,-0.73758 -0.981179,-0.73758 z"
       id="rect4482"
       inkscape:connector-curvature="0" />
    <path
       style="fill:#918a6f;stroke-width:0.13226674"
       d="m 63.5,218.02346 v 4.72145 h 4.168738 c 0.42418,0 0.765848,-0.32928 0.765848,-0.73797 v -3.24551 c 0,-0.40869 -0.341668,-0.73797 -0.765848,-0.73797 z m 6.415631,0 c -0.556628,0 -1.004588,0.32928 -1.004588,0.73797 v 3.2459 c 0,0.40868 0.44796,0.73758 1.004588,0.73758 h 8.33541 c 0.556628,0 1.005105,-0.3289 1.005105,-0.73758 v -3.2459 c 0,-0.40869 -0.448477,-0.73797 -1.005105,-0.73797 z m 10.582306,0 c -0.42418,0 -0.765851,0.32928 -0.765851,0.73797 v 3.24551 c 0,0.40869 0.341671,0.73797 0.765851,0.73797 h 4.16873 v -4.72145 z"
       id="path4488"
       inkscape:connector-curvature="0" />
    <path
       style="fill:#918a6f;stroke-width:0.13071649"
       d="m 64.749032,223.40138 c -0.543657,0 -0.981177,0.3289 -0.981177,0.73758 v 3.2459 c 0,0.40868 0.43752,0.73758 0.981177,0.73758 h 8.141162 c 0.543656,0 0.981177,-0.3289 0.981177,-0.73758 v -3.2459 c 0,-0.40868 -0.437521,-0.73758 -0.981177,-0.73758 z m 10.569377,0 c -0.543656,0 -0.981685,0.3289 -0.981685,0.73758 v 3.2459 c 0,0.40868 0.438029,0.73758 0.981685,0.73758 h 8.141166 c 0.543648,0 0.981169,-0.3289 0.981169,-0.73758 v -3.2459 c 0,-0.40868 -0.437521,-0.73758 -0.981169,-0.73758 z"
       id="rect4506"
       inkscape:connector-curvature="0" />
    <path
       inkscape:connector-curvature="0"
       style="fill:#918a6f;stroke-width:0.13226673"
       d="m 63.5,228.77853 v 4.72145 h 4.169257 c 0.424177,0 0.765325,-0.32928 0.765325,-0.73796 v -3.24552 c 0,-0.40869 -0.341148,-0.73797 -0.765325,-0.73797 z m 6.41563,0 c -0.556628,0 -1.004589,0.32928 -1.004589,0.73797 v 3.2459 c -3e-6,0.40868 0.447961,0.73758 1.004589,0.73758 h 8.335926 c 0.556627,0 1.004587,-0.3289 1.004587,-0.73758 v -3.2459 c 0,-0.40869 -0.44796,-0.73797 -1.004587,-0.73797 z m 10.582299,0 c -0.42418,0 -0.765326,0.32928 -0.765326,0.73797 v 3.24552 c 0,0.40868 0.341146,0.73796 0.765326,0.73796 h 4.168738 v -4.72145 z"
       id="path4512" />
    <rect
       ry="0"
       y="169.99997"
       x="63.500076"
       height="21.166666"
       width="21.166666"
       id="rect4675"
       style="fill:#c8beb7;stroke-width:0.16532505;fill-opacity:1" />
    <rect
       ry="1.7787193"
       y="170.1498"
       x="63.783554"
       height="10.285605"
       width="20.694195"
       id="rect4665"
       style="fill:#c8c4b7;stroke-width:0.29045844" />
    <rect
       style="fill:#6c5d53;stroke-width:0.20395865;fill-opacity:1"
       id="rect4671"
       width="10.203864"
       height="10.285605"
       x="63.783554"
       y="180.70694"
       ry="1.7787193" />
    <rect
       ry="1.7787193"
       y="180.70694"
       x="74.273888"
       height="10.285605"
       width="10.203864"
       id="rect4673"
       style="fill:#6c5d53;stroke-width:0.20395865;fill-opacity:1" />
    <rect
       style="fill:#6c5d53;stroke-width:0.29045844;fill-opacity:1"
       id="rect4705"
       width="20.694195"
       height="10.285605"
       x="63.783554"
       y="170.1498"
       ry="1.7787193" />
    <rect
       style="fill:#6c5d53;stroke-width:0.29045844"
       id="rect4731"
       width="20.694195"
       height="10.285605"
       x="63.783531"
       y="191.31645"
       ry="1.7787193" />
    <rect
       style="fill:#94a749;fill-opacity:1;stroke-width:0.25094527"
       id="rect4750"
       width="21.166666"
       height="21.166666"
       x="0"
       y="233.49998" />
  </g>
</svg>
